<svg width="1440" height="562" viewBox="0 0 1440 562" fill="none" xmlns="http://www.w3.org/2000/svg">
<path d="M-112.61 608.15C-15.94 606.88 80.74 621.15 176.12 635.29C274.6 649.9 373.6 664.29 472.93 672.29C563.81 679.64 652.5 672.19 742.93 662.48C870.61 648.77 997.98 632.62 1125.51 617.66C1269.96 600.66 1416.05 579.41 1561.65 576.36M-103.64 584.51C-9.27999 581.99 85.17 594.07 178.25 608.4C201.56 611.99 224.77 616.4 248.11 619.82C278.26 624.2 308.94 624.38 339.39 628.82C384.98 635.51 430.53 642.62 476.39 647.5C567.88 657.24 656.07 648.1 747.04 637.41C875.18 622.35 1002.94 604.61 1131.04 588.87C1272.86 571.45 1415.68 550.63 1558.55 544.32M-95.95 558.74C-6.44 555.32 83.05 565.04 171.33 579.29C195.98 583.29 220.84 589.58 245.6 592.49C263.42 594.59 281.27 590.6 299.12 591.92C313.62 592.99 328.32 596.49 342.65 599.01C389.44 607.25 436.06 616.68 483.11 623.37C573.85 636.27 659.93 625.75 750.25 614.3C876.31 598.3 1001.84 578.86 1127.85 562.67C1269.27 544.5 1411.18 523.83 1553.49 513.91M-89.34 531.12C-3.34 527.12 82.38 535.17 167.06 550.05C189.62 554.05 211.96 559.37 234.53 563.16C259.07 567.29 282.97 557.08 307.43 560.37C320.07 562.07 332.67 565.22 345.13 567.9C391.45 577.9 437.34 589.81 483.87 598.8C523.64 606.49 564.21 612.3 604.82 610.49C654.19 608.3 703.91 599.4 752.82 592.8C879.3 575.73 1005 553.91 1131.43 536.98C1269.69 518.47 1408.06 498.6 1546.92 484.98M-83.6 501.91C-1.22 497.78 80.4 504.48 161.31 520.28C183.12 524.54 205.48 532.17 227.44 534.76C255.22 538.04 282.28 524.58 309.87 526.92C323.81 528.1 338.71 533.78 352.17 537.35C396.23 549.02 439.63 563.08 483.8 574.35C522.36 584.21 562.06 592.35 602.06 591.51C652.85 590.51 704.49 579.75 754.69 572.62C819.1 563.48 883.89 555.74 948.07 545.09C1007.76 535.18 1066.58 522.09 1126.58 513.68C1264 494.52 1401.42 475.26 1539.04 457.54M-78.52 471.39C-1.18 467.61 74.8 473.02 150.55 489.39C171.93 494.01 193.55 502.04 215.12 505.23C249.12 510.23 282.76 491.23 317.06 494.66C329.06 495.87 342.06 501.76 353.54 505.37C397.18 519.22 439.76 536.08 483.26 550.22C520.53 562.34 559.26 573 598.73 573.33C648.44 573.75 699.59 561.82 748.59 554.58C815.15 544.75 882.19 536.58 948.46 525.09C1006.26 515.02 1062.74 500.09 1120.91 491.71C1257.3 471.92 1393.98 453.58 1530.01 431.45M-73.9 439.83C-0.340004 436.83 71.1 441.65 142.82 459.14C163.94 464.3 185.2 472.9 206.51 476.78C244.6 483.78 281.88 455.64 319.44 462.53C332.54 464.94 345.15 470.06 357.61 474.69C401.05 490.85 442.92 510.8 486.01 527.8C520.89 541.56 557.43 554.19 595.22 555.75C646.16 557.86 700.11 543.75 750.16 536.06C818.59 525.58 888.09 517.91 956.01 504.5C1010.6 493.73 1063.56 478.57 1118.76 470.22C1252.51 450.06 1387.42 433.05 1520.12 406.57M-69.54 407.51C2.19 405.7 70.75 410.84 140.12 430.27C160.12 435.87 183.25 448.27 203.52 450.27C220.64 452.02 241.78 445.7 257.63 441.99C273.63 438.23 304.63 427.23 321.87 429.7C333.94 431.42 347.35 439.05 358.54 443.77C401.82 462.03 442.93 484.77 485.43 504.72C519.08 520.48 554.76 535.72 592.25 538.48C643.45 542.26 699.78 526.01 749.96 518.09C817.56 507.42 886.14 499.56 953.25 486.23C1009.18 475.12 1062.69 458.08 1119.25 449.23C1249.06 428.92 1381.57 413.52 1509.48 382.91M-65.24 374.69C5.87 374.59 72.76 380.81 140.83 402.63C160.41 408.9 179.73 418.3 199.55 423.47C212.76 426.92 230.03 421.3 243.48 418.47C267.08 413.47 303.79 394.91 328.34 400.82C340.6 403.82 353.2 411.18 364.56 416.57C406.01 436.25 444.97 460.57 485.31 482.3C517.86 499.85 552.8 517.54 590.15 521.24C609.6 523.16 628.51 519.51 647.68 516.56C681.51 511.35 715.29 505.83 749.08 500.34C817.27 489.28 886.8 481.57 954.4 467.34C1007.4 456.23 1057.83 439.04 1111.54 430.34C1186.21 418.2 1260.91 406.18 1335.44 393.19C1389.84 383.71 1445.28 375.33 1498.51 360.36M-60.78 341.64C10.38 342.09 77.15 352.28 144.52 375.69C165.96 383.14 187.75 395.27 209.96 399.56C245.96 406.5 283.82 371.78 320.34 374.42C335.14 375.5 347.49 382.54 360.9 388.96C404.16 409.69 446.01 433.22 489.29 453.89C524.29 470.59 561.68 487.37 600.71 491.23C646.6 495.76 697.8 481.49 743.29 475.81C810.21 467.46 878.09 460.81 944.2 447.22C1000.13 435.72 1054.57 420.36 1111.02 410.89C1182.89 398.89 1254.76 386.72 1326.44 373.52C1380.17 363.62 1434.96 354.67 1487.31 338.7M-55.98 308.64C17.62 309.2 86.92 324.64 155.79 350.07C175.5 357.35 200.99 373.81 221.79 376.28C235.29 377.88 254.29 368.91 265.44 364.56C276.59 360.21 302.44 347.12 315.69 348.24C327.82 349.24 343.56 359.29 354.94 363.81C403.85 383.24 452.88 402.63 503.13 418.36C543.38 430.96 585.53 442.53 627.97 443.49C668.55 444.4 709.76 438.49 750.58 438.41C869.19 438.17 982.58 413.91 1099.05 393.99C1171.39 381.61 1243.7 368.99 1315.74 354.99C1369.33 344.58 1424.18 335.11 1476.15 317.99M-50.65 275.96C24.82 276.44 95.99 298.18 165.43 326.18C185.26 334.18 205.85 346.6 226.43 352.04C253.54 359.22 280.93 330.3 308.12 328.79C324.34 327.9 337.05 335.43 352.21 341.59C402.6 362.03 453.97 380.44 506.37 395.04C548.47 406.77 592.29 417.22 636.2 418.04C674.78 418.79 712.56 414.04 751.44 416.22C868.26 422.85 983.82 395.77 1098.44 375.65C1167.91 363.45 1237.31 350.75 1306.44 336.75C1359.44 326.01 1414.16 316.24 1465.25 297.99M-44.57 243.87C34.1 244.44 108.9 273.92 179.86 305.2C199.61 313.91 221.43 328.49 242.52 332.88C268.65 338.31 293.52 308.66 319.94 311.21C334.33 312.6 348.16 321.4 361.38 327.21C408.76 347.91 457.06 366.85 506.49 382.09C547.24 394.66 589.88 406.01 632.74 407.39C670.65 408.62 709.19 402.65 747.33 402.64C863.87 402.64 981.22 380.51 1095.56 359.51C1165.42 346.677 1235.13 332.877 1304.68 318.11C1354.76 307.45 1407.06 297.92 1454.76 278.78M-37.52 212.65C12.64 213.35 61.48 228.43 107.9 246.42C134.68 256.81 160.95 268.51 186.97 280.66C213.53 293.05 250.03 321 279.53 314.92C295.562 306.305 312.905 300.393 330.86 297.42C338.24 301.12 345.643 304.787 353.07 308.42C368.103 315.753 383.233 322.863 398.46 329.75C428.25 343.24 458.46 355.92 489.16 367.14C537.41 384.77 591.33 403.28 643.5 400.68C693.91 398.15 745.5 391.2 795.78 385.84C832.34 381.94 868.4 375.14 904.78 370.39C952.3 364.19 1000.14 360.49 1047.51 353.18C1123.91 341.39 1199.51 322.69 1275.05 306.46C1331.31 294.38 1392.36 284.39 1445.05 260.19M-29.31 182.58C24.34 183.89 76.69 203.3 125.5 224.07C154.07 236.23 182.11 249.63 209.91 263.46C224.537 270.727 239.103 278.113 253.61 285.62C272.93 295.56 283.06 305.45 305.39 298.97C317.19 290.757 329.92 287.757 343.58 289.97C350.86 293.87 358.157 297.727 365.47 301.54C380.097 309.18 394.82 316.633 409.64 323.9C438.08 337.81 466.91 350.98 496.36 362.61C540.36 379.98 589.76 398.19 637.84 395.78C686.45 393.34 737.05 379.6 785.03 371.32C821.51 365.02 857.83 357.32 894.64 353.14C946.78 347.23 999.31 345.07 1051.36 338.31C1124.79 328.77 1196.87 306.97 1269.04 290.79C1324.04 278.45 1385.84 268.47 1436.33 242.05M-19.74 153.91C37.04 155.65 92.66 179.39 143.54 202.67C173.75 216.5 203.4 231.55 232.82 246.99C247.96 254.95 263.053 263.01 278.1 271.17C296.81 281.28 306.75 290.68 328.32 285.08C351.32 279.08 358.13 285.26 378.21 296.33C392.47 304.177 406.803 311.873 421.21 319.42C445.16 331.88 469.4 343.83 494.15 354.61C536.85 373.19 586.35 393.81 633.99 390.73C685.1 387.44 737.99 366.84 787.72 355.23C876.32 334.54 964.84 333.75 1054.96 323.99C1126.07 316.29 1194.81 291.92 1264.25 275.67C1317.89 263.11 1380.73 253.04 1428.75 224.38M-8.63 126.92C50.63 128.52 109.22 156.83 161.45 182.34C193.05 197.78 224.05 214.43 254.81 231.47C266.47 237.917 278.093 244.423 289.68 250.99C303.2 258.63 319.87 272.61 335.81 273.99C344.057 271.42 352.899 271.479 361.11 274.16C368.363 278.353 375.623 282.523 382.89 286.67C397.123 294.79 411.42 302.79 425.78 310.67C452.42 325.19 479.4 339.18 507.16 351.46C545.95 368.61 590.35 386.82 633.64 383.29C682.39 379.29 731.21 356.69 778.05 343.41C815.38 332.83 852.84 323.83 891.57 320.41C951.57 315.12 1011.99 315.86 1071.79 308.73C1135.66 301.12 1196.79 276.49 1259.06 261.35C1311.77 248.53 1376.81 238.22 1422.62 207.1M4.25001 101.88C63.84 103.16 123.16 134.67 174.8 161.46C202.62 175.89 229.95 191.24 257.08 206.9C286.01 223.6 317.32 249.48 349.41 259C380.76 268.29 408.52 288.07 437.33 303.76C460.55 316.41 484.05 328.62 508.15 339.51C547.88 357.45 593.49 376.23 638.05 371.84C690.05 366.71 741.69 343.2 791.79 329.42C882.79 304.36 976.32 303.48 1069.54 291.62C1133.18 283.51 1194.95 262.42 1256.99 246.67C1308.43 233.62 1374.66 222.81 1418.11 189.95M19.1 79.08C78.76 80.47 137.96 114.22 188.86 142.14C247.94 174.56 303.37 213.96 362.86 245.36C415.73 273.25 465.61 306.07 520.46 330.36C558.55 347.23 602.34 364.41 644.84 359.9C698.5 354.19 752.66 336.39 805.26 324.76C892.53 305.47 978.78 284.04 1065.4 261.98C1128.6 245.88 1193.53 248.84 1256.34 232.18C1306.87 218.78 1373.8 207.18 1415.45 172.99M36.08 58.84C92.31 60.94 147.08 92.05 195.08 118.84C254.76 152.22 311.21 190.6 369.56 226.11C421.56 257.77 473.66 290.37 528.87 316.32C566.61 334.05 610.46 352.5 653.19 348.05C709.13 342.23 766.05 325.78 821.13 314.71C855.39 307.82 890.32 302.22 923.77 291.92C975.43 276.02 1024.77 253.27 1076.5 237.67C1108.04 228.17 1138.09 225.47 1170.88 226.44C1205.61 227.44 1235.24 223.68 1268.79 214.1C1315.95 200.64 1376.56 188.63 1414.93 156.1M54.23 42.95C110.06 45.66 164.46 71.66 213.51 96.58C244.9 112.53 275.51 129.99 305.71 148.09C333.71 164.9 360.71 185.29 390.71 198.27C447.99 223.05 496.17 264.42 549.58 296.54C582.42 316.3 620.17 337.36 659.77 334.83C712.25 331.47 766.92 313.78 818.33 302.74C857.33 294.35 896.63 286.82 934.72 274.85C976.96 261.58 1018.19 245.27 1060.56 232.41C1127.29 212.15 1197.17 215.18 1264.09 195.56C1314.15 180.89 1372.09 168.02 1415.84 138.56M73.17 31.67C128.47 32.43 183.39 51.88 233.72 73.31C260.92 84.89 287.52 97.86 313.62 111.74C341.16 126.39 367.44 145.5 396.16 157.67C425.27 170 451.46 172.38 476.65 192.06C488.97 201.69 500.97 211.72 512.82 221.93C531.28 237.85 549.24 254.35 567.87 270.05C594.69 292.65 627.08 320.43 664.24 320.14C687.44 319.95 712.16 311.8 734.76 307C763.427 300.9 792.023 294.567 820.55 288C894.99 270.94 967.37 248.9 1040.87 228.36C1111.62 208.58 1183.93 195.92 1254.52 175.52C1308.86 159.82 1366.42 145.47 1417.38 120.43M93.04 24.4C148.11 24.94 202.98 38.89 254.47 57.58C281.376 67.3992 307.713 78.7101 333.36 91.46C365.65 107.46 394.66 127.21 429.36 137.57C460.36 146.82 478.91 148.83 502.18 168.67C512.31 177.3 521.99 186.41 531.4 195.82C548.24 212.64 563.88 230.56 580.05 248C602.64 272.39 630.16 304.59 666.33 305C689.33 305.24 714.45 296.86 736.82 292C765.66 285.78 794.41 279.08 823.09 272.16C892.23 255.49 961 237.38 1029.63 218.74C1159.56 183.46 1292.63 150.23 1418.63 102.23M113.97 20.52C167.19 20.69 220.43 32.85 270.74 49.47C298.239 58.5832 325.184 69.288 351.44 81.53C378.9 94.31 404.44 111.81 432.34 123.42C461.85 135.7 488.4 136.74 512.91 157.98C521.27 165.22 529.3 172.83 537.13 180.64C553.54 197 568.69 214.53 584.26 231.64C606.01 255.58 632.38 287.56 667.57 288.8C688.91 289.55 712.32 281.91 733.04 277.46C762.13 271.21 791.04 264.25 819.93 256.99C892 238.88 960.68 214.34 1031.55 192.48C1102.69 170.55 1176.38 159.7 1247.38 137.34C1304.44 119.34 1361.38 100.91 1418.88 84.34M136.13 19.42C193.29 19.77 250.46 32.58 304.68 49.92C333.498 59.1258 361.761 69.9838 389.33 82.44C417.87 95.34 444.56 112.53 473.46 124.44C523.37 144.96 555.66 185.22 592.19 223.6C612.62 245.07 636.75 271.08 668.48 272.51C687.96 273.39 708.91 266.87 727.86 262.8C756.76 256.58 785.46 249.38 814.04 241.8C846.98 233.09 880.89 225.26 912.42 212.17C953.1 195.28 991.12 172.64 1031.87 155.92C1098.42 128.62 1171.76 137.79 1240.14 116.22C1298.14 97.92 1357.14 77.97 1417.22 67.33M159.62 20.49C274.29 23.31 391.34 62.94 489.44 121.19C529 144.68 560.14 177.67 592.64 209.73C613.64 230.44 638.45 255.23 669.92 256.3C714.67 257.82 765.98 238.25 808.4 226.36C841.12 217.18 875.2 209.11 905.6 193.55C948.42 171.65 986.83 141.81 1030.35 121.21C1058.56 107.85 1087.18 104.87 1118.04 106.69C1153.71 108.8 1183.77 108.08 1218.04 97.59C1280.9 78.32 1346.96 56.43 1412.92 51.59M184.6 23.11C291.73 26.46 400.87 62.03 492.38 117.34C529.46 139.75 560.67 168.48 593.22 196.71C615.74 216.24 641.1 237.71 672.4 238.85C716.4 240.49 767.14 221.85 808.65 209.65C838.75 200.81 869.48 192.23 897.05 176.93C935.56 155.57 969.99 127.45 1009.05 107.08C1040.37 90.75 1069.62 87.23 1104.3 88.46C1138.49 89.66 1166.68 86.74 1199.79 77.07C1266.18 57.69 1335.37 38.3 1404.98 37.53M211.2 26.65C313.1 29.65 408.86 63.32 496 114.95C531.8 136.15 564 161.4 597.87 185.32C620.95 201.6 646.39 217.32 675.51 217.95C717.09 218.95 763.03 205.75 802.64 194.74C831.81 186.64 861.1 177.74 887.44 162.54C919.14 144.25 947.8 121.13 979.66 103.08C1010.9 85.38 1042.25 79.74 1077.66 76.56C1112.17 73.6576 1146.32 67.4729 1179.66 58.09C1248.66 38.72 1320.66 21.88 1392.73 25.66M239.58 30.52C334.58 32.4 416.31 62.7 497.79 109.46C552.46 140.84 614.69 195.24 681.15 196.09C720.65 196.6 761.91 189.7 800.07 180.2C825.69 173.83 851.51 165.93 874.57 152.88C901.57 137.59 925.65 117.56 952.57 102.11C1011.15 68.54 1084.21 63.22 1148.4 44.84C1221.94 23.77 1298.8 8.44999 1375.49 16.41M269.87 34.08C313.65 34.53 356.87 38.74 398.75 52.3C436.75 64.6 471.26 84.05 505.82 103.7C563.37 136.43 622.92 175.02 691.32 176.28C727.99 176.95 765.07 175.46 800.98 167.55C851.98 156.33 886.09 127.85 930.05 102.33C960.05 84.9 993.64 74.14 1026.69 64.05C1063.02 52.97 1099.13 40.76 1135.69 30.46C1206.52 10.46 1279.06 -0.649986 1352.34 10.26M1277.13 1.04001C1348.05 9.29001 1392.68 47.09 1394.22 119.45C1395.12 161.84 1394.55 203.37 1409.52 243.59C1427.73 292.49 1456.44 336.68 1476.92 384.59C1507.92 457.07 1522.63 532.28 1522.19 611.13M1231.23 1C1300.67 13.22 1355.4 58.69 1361.84 130.57C1365.51 171.51 1364.59 215.14 1377.18 254.57C1392.45 302.45 1419.5 345.57 1437.55 392.34C1465.02 463.54 1475.91 537.53 1474.11 613.7M1185.04 6.61002C1250.86 22.34 1313.57 73.93 1322.31 143.29C1325.31 166.91 1330.47 187.72 1329.81 211.64C1329.43 230.019 1331.71 248.356 1336.59 266.08C1349.08 312.95 1374.4 355.2 1390.28 400.88C1414.69 471.06 1422.28 543.77 1419.56 617.77M1138.9 16.96C1176.3 28.61 1208.64 51.96 1235.84 79.85C1260.18 104.79 1271.08 126.18 1276.84 159.63C1280.63 181.81 1287.58 199.77 1285.56 222.37C1283.89 240.965 1285.06 259.704 1289.01 277.95C1298.3 321.26 1320.13 360.74 1334.01 402.61C1357.7 474.04 1363.01 548.24 1359.64 623.04M1093.08 31.22C1129.44 44.44 1163.18 71.7 1189.66 99.3C1212.24 122.83 1220.14 141.08 1225.41 172.3C1229.41 195.83 1238.5 212.68 1235.1 236.72C1232.62 254.484 1232.84 272.519 1235.73 290.22C1242.57 333.43 1263.35 373.22 1275.73 414.92C1296.34 484.74 1299.05 557.1 1295.28 629.41M1040.97 48.89C1074.97 64.84 1112.69 72.16 1139.61 100.52C1152.61 114.17 1160.69 130.13 1165.61 148.31C1169.09 161.2 1167.84 175.08 1171.74 187.49C1175.25 198.68 1185.74 205.64 1189.74 216.29C1193.74 226.76 1191.22 234.55 1190.24 245.43C1188.53 264.28 1188.24 283.37 1186.76 302.27C1183.27 348.07 1202.76 386.7 1213.76 430.27C1230.89 497.82 1231.95 567.16 1227.5 636.35M985.15 69.01C1018.43 80.37 1062.38 69.19 1090.95 94.67C1109.35 111.08 1111.27 141.38 1112.51 164.14C1113.14 175.56 1108.89 192.45 1115.45 202.26C1121.35 211.1 1134.21 210.76 1141.78 216.9C1154.58 227.31 1149.13 235.85 1149.23 251.97C1149.39 275.53 1148.98 292.36 1139.85 314.4C1132.85 331.34 1125.5 348.47 1127.75 367.24C1130.45 389.88 1141.21 413.04 1146.46 435.38C1162.57 503.95 1162.85 574.04 1157.6 643.95M936.47 89.82C968.47 102.89 1019.11 73.5 1045.64 106.18C1057.55 120.85 1056.24 152.02 1055.93 168.91C1055.78 177.14 1048.34 208.28 1055.01 216.71C1063.6 227.56 1081.57 219.91 1091.64 226.71C1102.79 234.26 1096.9 249.54 1097.32 263.05C1098.14 288.66 1097.79 304.96 1084.21 326.64C1073.38 343.93 1060.21 360.52 1062.74 382.16C1065.34 404.26 1075.21 426.75 1079.65 448.77C1093.17 515.77 1092.13 584.01 1086.41 651.87M903.17 109.76C913 117.64 929.23 115.89 941.07 118.27C958.07 121.7 976.79 125.75 986.27 142.14C995.36 157.85 994.7 181.44 994.72 198.62C994.72 210.62 989.84 226.31 997.58 236.39C1003.11 243.59 1017.96 242.16 1022.69 249.45C1028.28 258.06 1022.79 267.04 1020.23 276.66C1014.92 296.55 1010.23 316.12 1003.92 335.73C998.31 353.16 992.45 372.58 995.41 391.11C999.52 416.81 1019.41 434.86 1023.54 461.59C1033.54 526.85 1021.71 594.94 1015.05 659.94M876.97 128.64C875.65 143.4 911.35 167.95 918.59 180.43C932.03 203.61 928.14 225.27 934.23 249.67C939.04 268.96 956.46 280.04 935.54 295.75C926.54 302.52 917.86 304.12 913.78 315.16C910.98 322.75 913.31 334.43 914.19 342.47C916.551 363.621 921.356 384.426 928.51 404.47C938.92 433.47 972.86 441.47 974.91 475.22C978.8 539.06 953.91 605.32 944.56 667.91M844.93 146.36C836.74 162.55 854.62 187.24 861.28 201.36C872.03 224.16 874.08 242.53 876.41 266.87C878.41 287.87 888.06 306.99 861.15 312.87C848.62 315.6 841.98 314.7 838.33 328.35C836.4 335.57 839.88 345.35 841.69 352.18C847.54 374.025 855.12 395.369 864.36 416.01C876.56 442.6 913.08 451.35 914.72 483.44C916.09 510.29 909.03 536.94 902.11 562.63C892.02 600.13 882.29 637.1 875.99 675.49M809.17 157.74C794.17 172.15 807.04 200.3 812 216.53C818.72 238.53 820 257.62 820.9 280.23C821.75 300.69 827.33 317.66 803.77 325.4C782.9 332.25 780.22 342.73 786.25 363.33C791.8 382.26 800.92 401.03 807.55 419.63C816.64 445.1 837.4 467.39 838.97 495.11C842.5 557.56 820.97 621.61 810.38 682.53M775.05 162.49C753.86 177.71 761.76 212.22 764.95 233.62C767.799 252.209 769.16 270.995 769.02 289.8C768.83 309.25 770.49 322.88 754.69 336.2C740.06 348.54 730.17 351.54 737.92 373.35C743.32 388.54 754.7 400.74 758.31 416.83C765.01 446.74 756.44 479.83 759.63 510.64C765.82 570.37 757.82 629.79 748.79 688.82M744.32 163.08C705.76 196.97 725.4 258.89 721.76 304.51C720.29 322.84 716.21 334.95 704.42 348.85C695.55 359.31 688.08 368.61 694.42 382.52C699.42 393.61 710.8 399.96 713.73 412.7C717.59 429.38 704.3 449.34 698.03 464.53C689.23 485.83 681.87 500 685.8 522.36C696.01 580.54 700.21 635.13 692.31 694.1M718.76 161.96C675.3 195.96 686.3 259.22 680.76 308.3C678.31 330.15 670.28 341.8 659.52 360.13C653.95 369.62 646.81 380.65 652.93 391.13C658.77 401.13 669.93 402.37 671.84 416.21C674.98 438.88 646.01 469.42 636.44 487.91C628.12 503.96 623.98 513.22 626.76 531.22C629.98 552.22 636.88 572.67 641.03 593.52C648.03 628.87 647.33 662.52 641.87 698.13M697.64 160.81C651.76 196.93 662.76 257.28 653.2 308.63C649.12 330.46 638.8 345.37 627.39 363.63C621.84 372.53 614.76 382.69 618.71 393.23C622.35 402.94 632.09 405.9 633.11 418.4C634.97 441.33 608.49 469.68 598.76 488.74C590.69 504.55 586.5 514.62 588.1 532.46C590.05 554.2 595.61 575.58 598.64 597.18C603.58 632.36 602 665.62 595.29 700.5M677.34 158.91C629.82 194.22 643.48 248.22 628.41 298.22C621.54 321.02 606.64 340.05 593.46 359.34C587.97 367.34 580.21 377.19 581.14 387.46C581.97 396.55 588.48 403.89 588.38 413.87C588.17 436.65 568.65 460.2 559.64 480.21C552.64 495.77 549.28 507.02 549.76 524.21C551.46 584.97 560.86 640.1 547.15 700.67M657.28 155.86C608.58 187.19 623.6 236.65 602.04 282.42C591.14 305.55 573.43 325.97 558.04 346.25C551.63 354.67 542.67 365.11 539.61 375.53C537.08 384.14 539.12 393.71 538.45 402.53C535.52 440.82 510.1 472.03 510.02 511.8C509.89 575.33 513.62 636.57 497.7 698.8M637.02 151.22C612.28 163.97 601.02 178.8 594.22 205.01C589.15 224.69 585.8 243.39 574.03 260.54C550.3 295.11 518.57 324.06 494.94 358.54C488 368.68 486.67 378.99 484.74 391.1C479.86 421.7 470.74 451.26 469.01 482.34C464.87 554.26 466.65 625.26 447.13 695.34M616.12 144.72C594.95 152.72 580.62 160.72 571.42 181.55C564.54 197.13 560.53 212.22 550.21 226.22C528.44 255.63 500.67 281.36 476.55 308.97C467.55 319.32 458.46 328.51 448.55 337.9C416.8 368.05 428.84 427.01 425.65 466.4C419.53 541.88 417.46 617.51 395.87 690.64M594.12 135.86C575.9 140.61 557.12 144.22 544.93 159.45C534.58 172.36 527.65 186.75 516.16 199.21C488.87 228.79 459.16 255.99 432.16 285.86C422.795 296.285 412.539 305.874 401.51 314.52C388.24 324.96 378.21 337.57 375.85 355.04C374.21 367.13 378.14 379.63 380.25 391.37C383.78 411.05 382.44 427.84 380.48 447.59C372.58 527.22 367.76 607.79 344.24 684.74M570.59 124.28C554.26 127.19 529.5 126.71 514.88 136.07C502.62 143.91 492.41 158.75 481.88 168.5C450.16 197.99 417.46 226.26 388.5 258.5C378.346 269.968 367.085 280.405 354.88 289.66C340.5 300.58 328.57 313.34 325.42 332.01C323.33 344.46 326.55 353.69 330.61 365.14C337.54 384.71 336.8 399.33 334.52 419.75C324.83 506.25 318.57 594.57 292.52 678.06M505.54 87.58C493.42 90.58 485.64 91.09 481.86 102.92C480.32 107.75 485.12 109.21 481.86 113.72C478.49 118.42 434.04 114.63 427.86 115.25C409.57 117.08 398.26 119.14 388.16 134.45C377.06 151.22 372.87 173.55 365.76 192.15C359.48 208.58 351.43 220.02 341.55 234.09C325.34 257.19 315.45 275.38 291.3 291.77C266.9 308.31 237.98 322.22 224.84 350.22C217.99 364.76 213.32 379.8 205.73 394.4C197.41 410.4 195.99 425.28 197.73 443.08C205.49 520.46 260.3 591.4 241.01 670.96M481.61 75.03C468.33 77.26 462.7 80.03 452.12 86.03C449.18 87.69 449.61 91.88 445.65 93.81C434.78 99.09 406.65 92.64 394.65 93.16C376.56 93.93 357.36 93.75 346.3 109.95C334.03 127.95 328.3 150.43 319.19 170.01C312.56 184.3 303.36 195.23 294.62 208.08C278.88 231.24 267.96 249.83 245.23 267.43C222.23 285.22 194.86 301.57 182.05 328.82C175.26 343.27 171.59 358.5 164.25 372.99C155.9 389.49 152.76 403.29 153.7 421.83C157.81 503.6 210.17 580.66 190.16 663.5M459.21 64.4C440.21 66.23 423.01 74.91 404.74 75.96C374.13 77.71 327.69 62.59 304.74 89.23C292.03 104 285.29 124.17 276.13 141.16C268.79 154.8 259.39 166.16 250.64 178.79C234.16 202.59 222.27 224.55 200.64 244.66C176.85 266.79 149.26 288.52 139.64 320.95C129.64 354.49 113.64 381.47 115.64 417.6C119.98 497.2 161.27 576.32 140.13 656.16M437.36 55.63C412.45 56.63 387.36 61.74 362.5 60.24C333.31 58.47 287.62 48.77 263.99 70.53C249.64 83.75 241.25 104.69 230.6 120.6C222.6 132.53 212.94 143.09 204.91 154.98C189.02 178.52 176.76 202.23 157.98 223.98C136.81 248.45 113.19 273.3 104.46 305.38C94.86 340.6 80.71 372.64 81.25 409.8C82.42 489.22 115.3 570.82 91.37 649.22M415.08 48.63C384.38 48.51 353.68 49.93 323.08 47.15C292.99 44.42 250.39 36.34 224.38 55.56C210.07 66.14 200.65 82.89 189.94 96.82C181.35 108.01 171.47 117.99 163.37 129.58C146.37 153.91 133.95 181.16 117.15 205.78C77.71 263.57 51.55 333.78 49.65 404.47C47.53 483.3 71.43 566.47 44.13 642.82M391.4 43.33C354.01 42.04 316.97 40.02 279.76 36.22C250.41 33.22 212.94 28.02 186.19 43.22C162.28 56.79 136.5 89.27 121.13 111.77C104.32 136.38 92.41 164.43 78.33 190.66C43.79 255 24.92 328.46 20.03 401.4C14.79 479.4 29.45 563.4 -1.26 637.4M365.35 39.63C323.35 37.33 281.79 32.56 239.96 28.21C210.96 25.21 177.13 21.94 149.84 34.38C93.01 60.3 64.64 125.6 41.68 178.97C11.68 248.56 -1.19 324.85 -8.85 399.97C-16.74 477.31 -10.75 561.19 -44.45 633.15M335.96 37.46C291.62 34.46 247.91 28 203.78 23.32C174.14 20.18 141.87 18.43 113.69 29.93C55.63 53.63 27.14 116.27 7.28 171.27C-18.8 243.47 -27.97 320.49 -37.61 396.27C-47.54 474.35 -48.73 558.9 -85.16 630.36M302.24 36.75C342.78 37.1 383.62 39.04 422.69 50.8C454.82 60.46 484.75 76.04 513.98 92.24C579.06 128.31 633.26 157.16 707.98 161.44C741.46 163.36 775.11 164.94 808.15 157.87C852.94 148.29 882.88 120.71 921.07 98.23C979.65 63.76 1050.34 44.07 1114.87 24.02C1182.95 2.84999 1251.87 -5.88998 1322.35 7.64002C1354.19 9.38002 1391.92 13.72 1409.35 44.34C1420.84 64.46 1419.49 89.92 1417.95 112.15C1414.95 155.99 1414.71 191.96 1432.29 233.15C1453.23 282.23 1482.73 327.29 1505.82 375.35C1541.68 449.82 1561.26 527.42 1562.76 610.22C1417.37 610.22 1270.84 631.38 1126.6 647.44C997.11 661.87 867.71 677.44 738.02 689.92C647.56 698.65 558.51 703.48 467.7 697.04C367.59 689.94 268.23 675.04 169 660.44C72.47 646.26 -25.21 629.69 -123 629.44C-86.37 559.51 -78.73 477.22 -68.58 400.22C-58.33 322.42 -49.76 242.88 -24.68 168.13C-6.15 112.92 25.2 47.87 84.22 27.13C110.97 17.75 139.83 18.63 167.64 21.25C212.64 25.49 257.1 33.49 302.24 36.75Z" stroke="#B3B3B3" stroke-miterlimit="10"/>
</svg>
