<svg width="24" height="24" viewBox="0 0 24 24" fill="none" xmlns="http://www.w3.org/2000/svg">
<path d="M7.83691 16.4944C8.11886 16.6935 8.45573 16.8 8.80088 16.7991C9.14603 16.7983 9.48237 16.6901 9.76331 16.4896C10.0481 16.2816 10.2641 15.9936 10.3825 15.6608L11.0977 13.464C11.2812 12.9134 11.5903 12.413 12.0004 12.0023C12.4105 11.5916 12.9105 11.2819 13.4609 11.0976L15.6865 10.3776C16.0156 10.2585 16.2989 10.0391 16.4967 9.75038C16.6945 9.46167 16.7967 9.11819 16.7889 8.76832C16.7811 8.41846 16.6638 8.07985 16.4534 7.80021C16.243 7.52057 15.9501 7.314 15.6161 7.2096L13.4161 6.4928C12.8652 6.30948 12.3645 6.00054 11.9535 5.5904C11.5425 5.18026 11.2325 4.68015 11.0481 4.1296L10.3249 1.9088C10.2085 1.58162 9.99293 1.29887 9.7083 1.09989C9.42367 0.90091 9.0841 0.795589 8.73683 0.798581C8.38956 0.801573 8.05185 0.91273 7.77069 1.11659C7.48954 1.32044 7.27891 1.60686 7.16811 1.936L6.43691 4.176C6.25336 4.71179 5.95064 5.19895 5.55156 5.6008C5.15247 6.00266 4.66742 6.30874 4.13291 6.496L1.90891 7.2112C1.58187 7.3279 1.29927 7.54353 1.10035 7.82815C0.901434 8.11278 0.796069 8.45227 0.798883 8.7995C0.801698 9.14673 0.912552 9.48448 1.11606 9.76584C1.31956 10.0472 1.60562 10.2582 1.93451 10.3696L4.13291 11.0816C4.68663 11.2653 5.18949 11.5765 5.60105 11.99C6.01261 12.4035 6.32138 12.9078 6.50251 13.4624L7.22571 15.688C7.34091 16.0144 7.55531 16.296 7.83691 16.4944ZM17.6561 22.9616C17.8198 23.0767 18.008 23.1521 18.2058 23.1819C18.4036 23.2116 18.6057 23.195 18.796 23.1332C18.9863 23.0714 19.1596 22.9662 19.3022 22.8259C19.4448 22.6856 19.5528 22.5141 19.6177 22.3248L20.0145 21.1056C20.1004 20.853 20.2427 20.6232 20.4305 20.4336C20.6193 20.2416 20.8497 20.1008 21.1025 20.0176L22.3377 19.6144C22.5926 19.5264 22.8132 19.3602 22.968 19.1395C23.1229 18.9187 23.204 18.6547 23.2 18.3851C23.1959 18.1155 23.1068 17.854 22.9453 17.6381C22.7839 17.4221 22.5583 17.2626 22.3009 17.1824L21.0785 16.7824C20.8258 16.6977 20.5961 16.5558 20.4073 16.3676C20.2186 16.1794 20.0759 15.9501 19.9905 15.6976L19.5873 14.4608C19.5007 14.2064 19.3363 13.9857 19.1173 13.83C18.8983 13.6743 18.6358 13.5915 18.3671 13.5933C18.0984 13.595 17.8371 13.6813 17.6202 13.8399C17.4033 13.9985 17.2417 14.2213 17.1585 14.4768L16.7633 15.696C16.6816 15.9468 16.5431 16.1754 16.3586 16.3638C16.174 16.5523 15.9484 16.6955 15.6993 16.7824L14.4625 17.1856C14.208 17.2719 13.9871 17.436 13.8311 17.6548C13.6752 17.8736 13.592 18.1359 13.5934 18.4046C13.5948 18.6733 13.6807 18.9348 13.839 19.1519C13.9973 19.369 14.2199 19.5308 14.4753 19.6144L15.6961 20.0096C15.9521 20.096 16.1825 20.2384 16.3713 20.4272C16.5617 20.6176 16.7025 20.848 16.7841 21.1024L17.1889 22.3408C17.2766 22.5911 17.4398 22.8081 17.6561 22.9616Z" fill="#F1E5FF"/>
</svg>
