<svg width="24" height="25" viewBox="0 0 24 25" fill="none" xmlns="http://www.w3.org/2000/svg">
<path d="M12.2212 12.1212C7.66869 12.1212 3.97119 15.8112 3.97119 20.3712V22.9962H20.4637V20.3712C20.4637 15.8112 16.7737 12.1212 12.2212 12.1212Z" fill="#56436B"/>
<path d="M12.2212 12.1212C7.66869 12.1212 3.97119 15.8112 3.97119 20.3712V22.9962H20.4637V20.3712C20.4637 15.8112 16.7737 12.1212 12.2212 12.1212Z" fill="url(#paint0_radial_176_802)"/>
<path d="M12.2212 12.1212C7.66869 12.1212 3.97119 15.8112 3.97119 20.3712V22.9962H20.4637V20.3712C20.4637 15.8112 16.7737 12.1212 12.2212 12.1212Z" fill="url(#paint1_radial_176_802)"/>
<path d="M17.4832 14.0705C17.5012 14.0345 17.5066 13.9935 17.4985 13.9541C17.4905 13.9147 17.4695 13.8791 17.4389 13.853C16.0469 12.6515 14.1794 11.9885 12.2234 11.9885C10.2674 11.9885 8.38866 12.6582 6.99591 13.8537C6.96516 13.8797 6.94402 13.9153 6.93586 13.9547C6.9277 13.9942 6.933 14.0352 6.95091 14.0712C7.90791 16.0212 9.76791 17.531 12.2234 17.531C14.6789 17.531 16.5209 16.0205 17.4832 14.0705Z" fill="url(#paint2_radial_176_802)"/>
<path d="M17.4832 14.0705C17.5012 14.0345 17.5066 13.9935 17.4985 13.9541C17.4905 13.9147 17.4695 13.8791 17.4389 13.853C16.0469 12.6515 14.1794 11.9885 12.2234 11.9885C10.2674 11.9885 8.38866 12.6582 6.99591 13.8537C6.96516 13.8797 6.94402 13.9153 6.93586 13.9547C6.9277 13.9942 6.933 14.0352 6.95091 14.0712C7.90791 16.0212 9.76791 17.531 12.2234 17.531C14.6789 17.531 16.5209 16.0205 17.4832 14.0705Z" fill="url(#paint3_radial_176_802)"/>
<path d="M17.4832 14.0705C17.5012 14.0345 17.5066 13.9935 17.4985 13.9541C17.4905 13.9147 17.4695 13.8791 17.4389 13.853C16.0469 12.6515 14.1794 11.9885 12.2234 11.9885C10.2674 11.9885 8.38866 12.6582 6.99591 13.8537C6.96516 13.8797 6.94402 13.9153 6.93586 13.9547C6.9277 13.9942 6.933 14.0352 6.95091 14.0712C7.90791 16.0212 9.76791 17.531 12.2234 17.531C14.6789 17.531 16.5209 16.0205 17.4832 14.0705Z" fill="url(#paint4_radial_176_802)"/>
<path d="M17.4832 14.0705C17.5012 14.0345 17.5066 13.9935 17.4985 13.9541C17.4905 13.9147 17.4695 13.8791 17.4389 13.853C16.0469 12.6515 14.1794 11.9885 12.2234 11.9885C10.2674 11.9885 8.38866 12.6582 6.99591 13.8537C6.96516 13.8797 6.94402 13.9153 6.93586 13.9547C6.9277 13.9942 6.933 14.0352 6.95091 14.0712C7.90791 16.0212 9.76791 17.531 12.2234 17.531C14.6789 17.531 16.5209 16.0205 17.4832 14.0705Z" fill="url(#paint5_radial_176_802)"/>
<path d="M17.4832 14.0705C17.5012 14.0345 17.5066 13.9935 17.4985 13.9541C17.4905 13.9147 17.4695 13.8791 17.4389 13.853C16.0469 12.6515 14.1794 11.9885 12.2234 11.9885C10.2674 11.9885 8.38866 12.6582 6.99591 13.8537C6.96516 13.8797 6.94402 13.9153 6.93586 13.9547C6.9277 13.9942 6.933 14.0352 6.95091 14.0712C7.90791 16.0212 9.76791 17.531 12.2234 17.531C14.6789 17.531 16.5209 16.0205 17.4832 14.0705Z" fill="url(#paint6_radial_176_802)"/>
<path d="M17.4832 14.0705C17.5012 14.0345 17.5066 13.9935 17.4985 13.9541C17.4905 13.9147 17.4695 13.8791 17.4389 13.853C16.0469 12.6515 14.1794 11.9885 12.2234 11.9885C10.2674 11.9885 8.38866 12.6582 6.99591 13.8537C6.96516 13.8797 6.94402 13.9153 6.93586 13.9547C6.9277 13.9942 6.933 14.0352 6.95091 14.0712C7.90791 16.0212 9.76791 17.531 12.2234 17.531C14.6789 17.531 16.5209 16.0205 17.4832 14.0705Z" fill="url(#paint7_radial_176_802)"/>
<g filter="url(#filter0_f_176_802)">
<path d="M11.9969 14.6488C12.0441 14.681 12.1244 14.7088 12.2069 14.7118C12.2812 14.7097 12.3537 14.688 12.4169 14.6488C13.1796 14.1268 13.7519 13.607 13.7519 12.7093V9.98375C13.7519 9.12875 13.0619 8.43875 12.2069 8.43875C11.3519 8.43875 10.6619 9.12875 10.6619 9.98375V12.7093C10.6619 13.607 11.2341 14.1268 11.9969 14.6488Z" stroke="#1F0F21" stroke-width="0.2"/>
</g>
<path d="M11.9969 14.6488C12.0441 14.681 12.1244 14.7088 12.2069 14.7118C12.2812 14.7097 12.3537 14.688 12.4169 14.6488C13.1796 14.1268 13.7519 13.607 13.7519 12.7093V9.98375C13.7519 9.12875 13.0619 8.43875 12.2069 8.43875C11.3519 8.43875 10.6619 9.12875 10.6619 9.98375V12.7093C10.6619 13.607 11.2341 14.1268 11.9969 14.6488Z" fill="url(#paint8_radial_176_802)"/>
<path d="M11.9969 14.6488C12.0441 14.681 12.1244 14.7088 12.2069 14.7118C12.2812 14.7097 12.3537 14.688 12.4169 14.6488C13.1796 14.1268 13.7519 13.607 13.7519 12.7093V9.98375C13.7519 9.12875 13.0619 8.43875 12.2069 8.43875C11.3519 8.43875 10.6619 9.12875 10.6619 9.98375V12.7093C10.6619 13.607 11.2341 14.1268 11.9969 14.6488Z" fill="url(#paint9_radial_176_802)"/>
<path d="M11.9969 14.6488C12.0441 14.681 12.1244 14.7088 12.2069 14.7118C12.2812 14.7097 12.3537 14.688 12.4169 14.6488C13.1796 14.1268 13.7519 13.607 13.7519 12.7093V9.98375C13.7519 9.12875 13.0619 8.43875 12.2069 8.43875C11.3519 8.43875 10.6619 9.12875 10.6619 9.98375V12.7093C10.6619 13.607 11.2341 14.1268 11.9969 14.6488Z" fill="url(#paint10_radial_176_802)"/>
<path d="M18.7672 9.25101V2.60376H18.1672V9.25101H18.7672Z" fill="url(#paint11_linear_176_802)"/>
<path d="M18.7672 9.25101V2.60376H18.1672V9.25101H18.7672Z" fill="url(#paint12_radial_176_802)"/>
<path d="M18.1671 9.233C18.0445 9.29969 17.9477 9.40533 17.8918 9.53322C17.836 9.66111 17.8243 9.80396 17.8587 9.93921C17.8931 10.0744 17.9716 10.1944 18.0818 10.28C18.192 10.3657 18.3276 10.4122 18.4671 10.4122C18.6067 10.4122 18.7422 10.3657 18.8524 10.28C18.9626 10.1944 19.0411 10.0744 19.0755 9.93921C19.1099 9.80396 19.0982 9.66111 19.0424 9.53322C18.9866 9.40533 18.8897 9.29969 18.7671 9.233H18.1671Z" fill="url(#paint13_radial_176_802)"/>
<path d="M18.1671 9.233C18.0445 9.29969 17.9477 9.40533 17.8918 9.53322C17.836 9.66111 17.8243 9.80396 17.8587 9.93921C17.8931 10.0744 17.9716 10.1944 18.0818 10.28C18.192 10.3657 18.3276 10.4122 18.4671 10.4122C18.6067 10.4122 18.7422 10.3657 18.8524 10.28C18.9626 10.1944 19.0411 10.0744 19.0755 9.93921C19.1099 9.80396 19.0982 9.66111 19.0424 9.53322C18.9866 9.40533 18.8897 9.29969 18.7671 9.233H18.1671Z" fill="url(#paint14_radial_176_802)"/>
<g filter="url(#filter1_f_176_802)">
<path d="M18.5444 3.28177V9.10702" stroke="url(#paint15_linear_176_802)" stroke-width="0.075"/>
</g>
<path d="M17.8275 10.7038L17.4398 12.383C17.4283 12.4329 17.4283 12.4847 17.4398 12.5346C17.4513 12.5844 17.4739 12.631 17.5061 12.6709C17.5382 12.7107 17.579 12.7426 17.6254 12.7644C17.6717 12.7861 17.7224 12.797 17.7735 12.7963H19.1708C19.2215 12.7955 19.2713 12.7833 19.3167 12.7605C19.362 12.7378 19.4016 12.7052 19.4326 12.665C19.4636 12.6249 19.4851 12.5783 19.4956 12.5287C19.5061 12.4791 19.5053 12.4278 19.4933 12.3785L19.0868 10.6985C19.0667 10.6172 19.0199 10.545 18.954 10.4933C18.8881 10.4417 18.8068 10.4136 18.723 10.4135H18.1928C18.1079 10.4134 18.0255 10.442 17.9591 10.4947C17.8926 10.5474 17.8459 10.6211 17.8268 10.7038" fill="url(#paint16_linear_176_802)"/>
<path d="M17.8275 10.7038L17.4398 12.383C17.4283 12.4329 17.4283 12.4847 17.4398 12.5346C17.4513 12.5844 17.4739 12.631 17.5061 12.6709C17.5382 12.7107 17.579 12.7426 17.6254 12.7644C17.6717 12.7861 17.7224 12.797 17.7735 12.7963H19.1708C19.2215 12.7955 19.2713 12.7833 19.3167 12.7605C19.362 12.7378 19.4016 12.7052 19.4326 12.665C19.4636 12.6249 19.4851 12.5783 19.4956 12.5287C19.5061 12.4791 19.5053 12.4278 19.4933 12.3785L19.0868 10.6985C19.0667 10.6172 19.0199 10.545 18.954 10.4933C18.8881 10.4417 18.8068 10.4136 18.723 10.4135H18.1928C18.1079 10.4134 18.0255 10.442 17.9591 10.4947C17.8926 10.5474 17.8459 10.6211 17.8268 10.7038" fill="url(#paint17_linear_176_802)"/>
<path d="M17.8275 10.7038L17.4398 12.383C17.4283 12.4329 17.4283 12.4847 17.4398 12.5346C17.4513 12.5844 17.4739 12.631 17.5061 12.6709C17.5382 12.7107 17.579 12.7426 17.6254 12.7644C17.6717 12.7861 17.7224 12.797 17.7735 12.7963H19.1708C19.2215 12.7955 19.2713 12.7833 19.3167 12.7605C19.362 12.7378 19.4016 12.7052 19.4326 12.665C19.4636 12.6249 19.4851 12.5783 19.4956 12.5287C19.5061 12.4791 19.5053 12.4278 19.4933 12.3785L19.0868 10.6985C19.0667 10.6172 19.0199 10.545 18.954 10.4933C18.8881 10.4417 18.8068 10.4136 18.723 10.4135H18.1928C18.1079 10.4134 18.0255 10.442 17.9591 10.4947C17.8926 10.5474 17.8459 10.6211 17.8268 10.7038" fill="url(#paint18_radial_176_802)"/>
<path d="M17.8275 10.7038L17.4398 12.383C17.4283 12.4329 17.4283 12.4847 17.4398 12.5346C17.4513 12.5844 17.4739 12.631 17.5061 12.6709C17.5382 12.7107 17.579 12.7426 17.6254 12.7644C17.6717 12.7861 17.7224 12.797 17.7735 12.7963H19.1708C19.2215 12.7955 19.2713 12.7833 19.3167 12.7605C19.362 12.7378 19.4016 12.7052 19.4326 12.665C19.4636 12.6249 19.4851 12.5783 19.4956 12.5287C19.5061 12.4791 19.5053 12.4278 19.4933 12.3785L19.0868 10.6985C19.0667 10.6172 19.0199 10.545 18.954 10.4933C18.8881 10.4417 18.8068 10.4136 18.723 10.4135H18.1928C18.1079 10.4134 18.0255 10.442 17.9591 10.4947C17.8926 10.5474 17.8459 10.6211 17.8268 10.7038" fill="url(#paint19_radial_176_802)"/>
<path d="M17.8275 10.7038L17.4398 12.383C17.4283 12.4329 17.4283 12.4847 17.4398 12.5346C17.4513 12.5844 17.4739 12.631 17.5061 12.6709C17.5382 12.7107 17.579 12.7426 17.6254 12.7644C17.6717 12.7861 17.7224 12.797 17.7735 12.7963H19.1708C19.2215 12.7955 19.2713 12.7833 19.3167 12.7605C19.362 12.7378 19.4016 12.7052 19.4326 12.665C19.4636 12.6249 19.4851 12.5783 19.4956 12.5287C19.5061 12.4791 19.5053 12.4278 19.4933 12.3785L19.0868 10.6985C19.0667 10.6172 19.0199 10.545 18.954 10.4933C18.8881 10.4417 18.8068 10.4136 18.723 10.4135H18.1928C18.1079 10.4134 18.0255 10.442 17.9591 10.4947C17.8926 10.5474 17.8459 10.6211 17.8268 10.7038" fill="url(#paint20_radial_176_802)"/>
<path d="M6.79495 22.9963V14.1575C5.90695 14.9309 5.19533 15.886 4.70819 16.9581C4.22104 18.0302 3.96971 19.1944 3.9712 20.372V22.997L6.79495 22.9963Z" fill="url(#paint21_radial_176_802)"/>
<path d="M6.79495 22.9963V14.1575C5.90695 14.9309 5.19533 15.886 4.70819 16.9581C4.22104 18.0302 3.96971 19.1944 3.9712 20.372V22.997L6.79495 22.9963Z" fill="url(#paint22_radial_176_802)"/>
<path d="M6.79495 22.9963V14.1575C5.90695 14.9309 5.19533 15.886 4.70819 16.9581C4.22104 18.0302 3.96971 19.1944 3.9712 20.372V22.997L6.79495 22.9963Z" fill="url(#paint23_linear_176_802)"/>
<path d="M17.6399 22.9963V14.1575C18.5279 14.9309 19.2395 15.886 19.7267 16.9581C20.2138 18.0302 20.4651 19.1944 20.4636 20.372V22.997L17.6399 22.9963Z" fill="url(#paint24_radial_176_802)"/>
<path d="M17.6399 22.9963V14.1575C18.5279 14.9309 19.2395 15.886 19.7267 16.9581C20.2138 18.0302 20.4651 19.1944 20.4636 20.372V22.997L17.6399 22.9963Z" fill="url(#paint25_radial_176_802)"/>
<g filter="url(#filter2_f_176_802)">
<path d="M8.96851 18.3282C8.96851 18.1872 9.08476 18.0732 9.22801 18.0732C9.37126 18.0732 9.48676 18.1872 9.48676 18.3282V22.898H8.96851V18.3282Z" fill="url(#paint26_linear_176_802)"/>
<path d="M11.958 18.3282C11.958 18.1872 12.0743 18.0732 12.2175 18.0732C12.3608 18.0732 12.477 18.1872 12.477 18.3282V22.898H11.958V18.3282Z" fill="url(#paint27_linear_176_802)"/>
<path d="M14.9475 18.3282C14.9475 18.1872 15.0638 18.0732 15.207 18.0732C15.3503 18.0732 15.4665 18.1872 15.4665 18.3282V22.898H14.9483L14.9475 18.3282Z" fill="url(#paint28_linear_176_802)"/>
</g>
<g filter="url(#filter3_f_176_802)">
<path d="M15.426 4.34002H13.8338C13.784 4.33819 13.7351 4.32632 13.6901 4.30511C13.645 4.28391 13.6048 4.2538 13.5717 4.21662C13.5386 4.17943 13.5133 4.13593 13.4975 4.08873C13.4816 4.04153 13.4755 3.99162 13.4794 3.94199C13.4834 3.89236 13.4973 3.84404 13.5205 3.79995C13.5436 3.75585 13.5754 3.71689 13.6139 3.68541C13.6525 3.65392 13.697 3.63057 13.7449 3.61676C13.7927 3.60294 13.8428 3.59895 13.8923 3.60502C14.3055 3.67102 14.8545 3.76252 15.222 3.85402C16.0523 4.05952 16.2818 4.46377 16.3455 4.75252C16.2334 4.61875 16.0924 4.51214 15.9331 4.44069C15.7739 4.36924 15.6005 4.33482 15.426 4.34002Z" fill="#504A4C"/>
</g>
<g filter="url(#filter4_f_176_802)">
<path d="M15.426 4.29351H13.8338C13.784 4.29168 13.7351 4.27981 13.6901 4.2586C13.645 4.2374 13.6048 4.20729 13.5717 4.17011C13.5386 4.13292 13.5133 4.08942 13.4975 4.04222C13.4816 3.99502 13.4755 3.94511 13.4794 3.89548C13.4834 3.84585 13.4973 3.79753 13.5205 3.75344C13.5436 3.70934 13.5754 3.67038 13.6139 3.6389C13.6525 3.60741 13.697 3.58406 13.7449 3.57025C13.7927 3.55643 13.8428 3.55244 13.8923 3.55851C14.3055 3.62376 14.8545 3.71601 15.222 3.80601C16.0523 4.01226 16.2818 4.41651 16.3455 4.70526C16.2334 4.57149 16.0924 4.46488 15.9331 4.39343C15.7739 4.32199 15.6005 4.28832 15.426 4.29351Z" fill="#49373D"/>
</g>
<g filter="url(#filter5_f_176_802)">
<path d="M15.5955 4.32876H13.9545C13.9021 4.32843 13.8504 4.3173 13.8025 4.29605C13.7546 4.27481 13.7116 4.24391 13.6761 4.2053C13.6407 4.16668 13.6137 4.12118 13.5966 4.07163C13.5796 4.02208 13.573 3.96954 13.5771 3.91731C13.5813 3.86509 13.5963 3.81428 13.621 3.76808C13.6457 3.72188 13.6797 3.68127 13.7208 3.64879C13.7619 3.61631 13.8093 3.59266 13.8599 3.57933C13.9106 3.56599 13.9635 3.56324 14.0153 3.57126C14.4413 3.63876 15.0068 3.73326 15.3855 3.82626C16.2413 4.03926 16.4775 4.45626 16.5435 4.75326C16.4274 4.61601 16.2819 4.5066 16.1178 4.43313C15.9537 4.35965 15.7752 4.32399 15.5955 4.32876Z" fill="#725050"/>
</g>
<path d="M15.9194 9.5585C16.1677 9.55016 16.4079 9.46818 16.6094 9.323V10.034C16.6094 10.7165 16.2037 11.324 15.5857 11.576C15.7167 11.298 15.8047 10.9975 15.8497 10.6745L15.9194 9.5585Z" fill="url(#paint29_radial_176_802)"/>
<path d="M8.49371 9.5585C8.24545 9.55016 8.00527 9.46818 7.80371 9.323V10.034C7.80371 10.7165 8.20946 11.324 8.82746 11.576C8.6949 11.2904 8.60591 10.9865 8.56346 10.6745L8.49371 9.5585Z" fill="url(#paint30_radial_176_802)"/>
<g filter="url(#filter6_ii_176_802)">
<path d="M8.52209 10.715C8.61689 11.4348 8.97013 12.0956 9.51598 12.5742C10.0618 13.0529 10.7631 13.3168 11.4891 13.3168H12.9298C13.6559 13.317 14.3572 13.0533 14.9032 12.5748C15.4492 12.0962 15.8026 11.4355 15.8976 10.7158C15.9876 9.27726 16.0776 7.84401 16.1451 6.40626C16.142 6.12413 16.0313 5.85382 15.8356 5.65058C15.6398 5.44734 15.3739 5.32651 15.0921 5.31276H14.0226C13.6646 5.31182 13.3146 5.20719 13.0149 5.01153C12.7152 4.81587 12.4785 4.53756 12.3336 4.21026C12.2957 4.11648 12.2307 4.0361 12.147 3.97935C12.0632 3.92259 11.9645 3.89201 11.8633 3.89151H10.8913C9.48134 3.89151 8.33984 5.04651 8.33984 6.47151C8.33984 7.89276 8.42834 9.29151 8.52209 10.7158" fill="url(#paint31_radial_176_802)"/>
</g>
<path d="M8.52209 10.715C8.61689 11.4348 8.97013 12.0956 9.51598 12.5742C10.0618 13.0529 10.7631 13.3168 11.4891 13.3168H12.9298C13.6559 13.317 14.3572 13.0533 14.9032 12.5748C15.4492 12.0962 15.8026 11.4355 15.8976 10.7158C15.9876 9.27726 16.0776 7.84401 16.1451 6.40626C16.142 6.12413 16.0313 5.85382 15.8356 5.65058C15.6398 5.44734 15.3739 5.32651 15.0921 5.31276H14.0226C13.6646 5.31182 13.3146 5.20719 13.0149 5.01153C12.7152 4.81587 12.4785 4.53756 12.3336 4.21026C12.2957 4.11648 12.2307 4.0361 12.147 3.97935C12.0632 3.92259 11.9645 3.89201 11.8633 3.89151H10.8913C9.48134 3.89151 8.33984 5.04651 8.33984 6.47151C8.33984 7.89276 8.42834 9.29151 8.52209 10.7158" fill="url(#paint32_linear_176_802)"/>
<path d="M8.52209 10.715C8.61689 11.4348 8.97013 12.0956 9.51598 12.5742C10.0618 13.0529 10.7631 13.3168 11.4891 13.3168H12.9298C13.6559 13.317 14.3572 13.0533 14.9032 12.5748C15.4492 12.0962 15.8026 11.4355 15.8976 10.7158C15.9876 9.27726 16.0776 7.84401 16.1451 6.40626C16.142 6.12413 16.0313 5.85382 15.8356 5.65058C15.6398 5.44734 15.3739 5.32651 15.0921 5.31276H14.0226C13.6646 5.31182 13.3146 5.20719 13.0149 5.01153C12.7152 4.81587 12.4785 4.53756 12.3336 4.21026C12.2957 4.11648 12.2307 4.0361 12.147 3.97935C12.0632 3.92259 11.9645 3.89201 11.8633 3.89151H10.8913C9.48134 3.89151 8.33984 5.04651 8.33984 6.47151C8.33984 7.89276 8.42834 9.29151 8.52209 10.7158" fill="url(#paint33_radial_176_802)"/>
<path d="M8.52209 10.715C8.61689 11.4348 8.97013 12.0956 9.51598 12.5742C10.0618 13.0529 10.7631 13.3168 11.4891 13.3168H12.9298C13.6559 13.317 14.3572 13.0533 14.9032 12.5748C15.4492 12.0962 15.8026 11.4355 15.8976 10.7158C15.9876 9.27726 16.0776 7.84401 16.1451 6.40626C16.142 6.12413 16.0313 5.85382 15.8356 5.65058C15.6398 5.44734 15.3739 5.32651 15.0921 5.31276H14.0226C13.6646 5.31182 13.3146 5.20719 13.0149 5.01153C12.7152 4.81587 12.4785 4.53756 12.3336 4.21026C12.2957 4.11648 12.2307 4.0361 12.147 3.97935C12.0632 3.92259 11.9645 3.89201 11.8633 3.89151H10.8913C9.48134 3.89151 8.33984 5.04651 8.33984 6.47151C8.33984 7.89276 8.42834 9.29151 8.52209 10.7158" fill="url(#paint34_radial_176_802)"/>
<path d="M8.52209 10.715C8.61689 11.4348 8.97013 12.0956 9.51598 12.5742C10.0618 13.0529 10.7631 13.3168 11.4891 13.3168H12.9298C13.6559 13.317 14.3572 13.0533 14.9032 12.5748C15.4492 12.0962 15.8026 11.4355 15.8976 10.7158C15.9876 9.27726 16.0776 7.84401 16.1451 6.40626C16.142 6.12413 16.0313 5.85382 15.8356 5.65058C15.6398 5.44734 15.3739 5.32651 15.0921 5.31276H14.0226C13.6646 5.31182 13.3146 5.20719 13.0149 5.01153C12.7152 4.81587 12.4785 4.53756 12.3336 4.21026C12.2957 4.11648 12.2307 4.0361 12.147 3.97935C12.0632 3.92259 11.9645 3.89201 11.8633 3.89151H10.8913C9.48134 3.89151 8.33984 5.04651 8.33984 6.47151C8.33984 7.89276 8.42834 9.29151 8.52209 10.7158" fill="url(#paint35_radial_176_802)"/>
<path d="M8.52209 10.715C8.61689 11.4348 8.97013 12.0956 9.51598 12.5742C10.0618 13.0529 10.7631 13.3168 11.4891 13.3168H12.9298C13.6559 13.317 14.3572 13.0533 14.9032 12.5748C15.4492 12.0962 15.8026 11.4355 15.8976 10.7158C15.9876 9.27726 16.0776 7.84401 16.1451 6.40626C16.142 6.12413 16.0313 5.85382 15.8356 5.65058C15.6398 5.44734 15.3739 5.32651 15.0921 5.31276H14.0226C13.6646 5.31182 13.3146 5.20719 13.0149 5.01153C12.7152 4.81587 12.4785 4.53756 12.3336 4.21026C12.2957 4.11648 12.2307 4.0361 12.147 3.97935C12.0632 3.92259 11.9645 3.89201 11.8633 3.89151H10.8913C9.48134 3.89151 8.33984 5.04651 8.33984 6.47151C8.33984 7.89276 8.42834 9.29151 8.52209 10.7158" fill="url(#paint36_radial_176_802)"/>
<path d="M8.52209 10.715C8.61689 11.4348 8.97013 12.0956 9.51598 12.5742C10.0618 13.0529 10.7631 13.3168 11.4891 13.3168H12.9298C13.6559 13.317 14.3572 13.0533 14.9032 12.5748C15.4492 12.0962 15.8026 11.4355 15.8976 10.7158C15.9876 9.27726 16.0776 7.84401 16.1451 6.40626C16.142 6.12413 16.0313 5.85382 15.8356 5.65058C15.6398 5.44734 15.3739 5.32651 15.0921 5.31276H14.0226C13.6646 5.31182 13.3146 5.20719 13.0149 5.01153C12.7152 4.81587 12.4785 4.53756 12.3336 4.21026C12.2957 4.11648 12.2307 4.0361 12.147 3.97935C12.0632 3.92259 11.9645 3.89201 11.8633 3.89151H10.8913C9.48134 3.89151 8.33984 5.04651 8.33984 6.47151C8.33984 7.89276 8.42834 9.29151 8.52209 10.7158" fill="url(#paint37_radial_176_802)"/>
<path d="M8.52209 10.715C8.61689 11.4348 8.97013 12.0956 9.51598 12.5742C10.0618 13.0529 10.7631 13.3168 11.4891 13.3168H12.9298C13.6559 13.317 14.3572 13.0533 14.9032 12.5748C15.4492 12.0962 15.8026 11.4355 15.8976 10.7158C15.9876 9.27726 16.0776 7.84401 16.1451 6.40626C16.142 6.12413 16.0313 5.85382 15.8356 5.65058C15.6398 5.44734 15.3739 5.32651 15.0921 5.31276H14.0226C13.6646 5.31182 13.3146 5.20719 13.0149 5.01153C12.7152 4.81587 12.4785 4.53756 12.3336 4.21026C12.2957 4.11648 12.2307 4.0361 12.147 3.97935C12.0632 3.92259 11.9645 3.89201 11.8633 3.89151H10.8913C9.48134 3.89151 8.33984 5.04651 8.33984 6.47151C8.33984 7.89276 8.42834 9.29151 8.52209 10.7158" fill="url(#paint38_radial_176_802)"/>
<path d="M8.52209 10.715C8.61689 11.4348 8.97013 12.0956 9.51598 12.5742C10.0618 13.0529 10.7631 13.3168 11.4891 13.3168H12.9298C13.6559 13.317 14.3572 13.0533 14.9032 12.5748C15.4492 12.0962 15.8026 11.4355 15.8976 10.7158C15.9876 9.27726 16.0776 7.84401 16.1451 6.40626C16.142 6.12413 16.0313 5.85382 15.8356 5.65058C15.6398 5.44734 15.3739 5.32651 15.0921 5.31276H14.0226C13.6646 5.31182 13.3146 5.20719 13.0149 5.01153C12.7152 4.81587 12.4785 4.53756 12.3336 4.21026C12.2957 4.11648 12.2307 4.0361 12.147 3.97935C12.0632 3.92259 11.9645 3.89201 11.8633 3.89151H10.8913C9.48134 3.89151 8.33984 5.04651 8.33984 6.47151C8.33984 7.89276 8.42834 9.29151 8.52209 10.7158" fill="url(#paint39_radial_176_802)"/>
<g filter="url(#filter7_f_176_802)">
<path d="M11.9001 8.20402L11.4486 9.60802C11.3714 9.89677 11.5566 10.1855 11.8184 10.1855H12.3771C12.6396 10.1855 12.8241 9.89227 12.7476 9.60802L12.3696 8.20402C12.2886 7.89277 11.9849 7.89277 11.9001 8.20402Z" fill="#D69790"/>
</g>
<g filter="url(#filter8_f_176_802)">
<path d="M11.9143 8.05851L11.5086 9.46251C11.4261 9.75126 11.6248 10.04 11.9061 10.04H12.5061C12.7881 10.04 12.9868 9.74676 12.9043 9.46251L12.4986 8.05851C12.4116 7.74726 12.0058 7.74726 11.9143 8.05851Z" fill="#DEAB9D"/>
<path d="M11.9143 8.05851L11.5086 9.46251C11.4261 9.75126 11.6248 10.04 11.9061 10.04H12.5061C12.7881 10.04 12.9868 9.74676 12.9043 9.46251L12.4986 8.05851C12.4116 7.74726 12.0058 7.74726 11.9143 8.05851Z" fill="url(#paint40_linear_176_802)"/>
<path d="M11.9143 8.05851L11.5086 9.46251C11.4261 9.75126 11.6248 10.04 11.9061 10.04H12.5061C12.7881 10.04 12.9868 9.74676 12.9043 9.46251L12.4986 8.05851C12.4116 7.74726 12.0058 7.74726 11.9143 8.05851Z" fill="url(#paint41_radial_176_802)"/>
<path d="M11.9143 8.05851L11.5086 9.46251C11.4261 9.75126 11.6248 10.04 11.9061 10.04H12.5061C12.7881 10.04 12.9868 9.74676 12.9043 9.46251L12.4986 8.05851C12.4116 7.74726 12.0058 7.74726 11.9143 8.05851Z" fill="url(#paint42_linear_176_802)"/>
<path d="M11.9143 8.05851L11.5086 9.46251C11.4261 9.75126 11.6248 10.04 11.9061 10.04H12.5061C12.7881 10.04 12.9868 9.74676 12.9043 9.46251L12.4986 8.05851C12.4116 7.74726 12.0058 7.74726 11.9143 8.05851Z" fill="url(#paint43_radial_176_802)"/>
<path d="M11.9143 8.05851L11.5086 9.46251C11.4261 9.75126 11.6248 10.04 11.9061 10.04H12.5061C12.7881 10.04 12.9868 9.74676 12.9043 9.46251L12.4986 8.05851C12.4116 7.74726 12.0058 7.74726 11.9143 8.05851Z" fill="url(#paint44_linear_176_802)"/>
</g>
<g filter="url(#filter9_f_176_802)">
<path d="M11.1749 10.5155C11.1415 10.498 11.1024 10.4919 11.0651 10.4983C11.0279 10.5047 10.9937 10.5231 10.9679 10.5508C10.9414 10.5775 10.9251 10.6128 10.9219 10.6504C10.9188 10.6879 10.929 10.7254 10.9507 10.7563C11.2169 11.159 11.6797 11.4268 12.2062 11.4268C12.7334 11.4268 13.1962 11.159 13.4624 10.7555C13.4834 10.7242 13.4931 10.6867 13.4898 10.6492C13.4865 10.6117 13.4705 10.5764 13.4444 10.5493C13.4186 10.5219 13.3846 10.5037 13.3475 10.4975C13.3104 10.4912 13.2723 10.4973 13.2389 10.5148C12.9192 10.6777 12.5651 10.7618 12.2062 10.76C11.8476 10.7619 11.4945 10.6781 11.1749 10.5155Z" stroke="url(#paint45_linear_176_802)" stroke-width="0.075"/>
</g>
<path d="M12.2062 10.8162C11.8387 10.8184 11.476 10.7322 11.1487 10.565C11.0437 10.5125 10.9312 10.6295 10.9972 10.7247C11.253 11.1125 11.6985 11.3705 12.2062 11.3705C12.714 11.3705 13.1602 11.1125 13.416 10.7247C13.4812 10.6257 13.3695 10.5117 13.2645 10.565C12.9373 10.7325 12.5738 10.8187 12.2062 10.8162Z" fill="url(#paint46_radial_176_802)"/>
<g filter="url(#filter10_ii_176_802)">
<path d="M15.9143 3.53076C16.3073 3.66576 16.6598 3.94026 16.8818 4.33326C17.0523 4.62959 17.1352 4.96818 17.121 5.30976C17.1068 5.65133 16.996 5.98187 16.8015 6.26301C16.6678 6.46005 16.5958 6.6924 16.5945 6.93051V7.83801C16.4404 7.73552 16.2668 7.66582 16.0845 7.63326L16.1445 6.40626C16.1414 6.12425 16.0308 5.85406 15.8353 5.65083C15.6397 5.44761 15.374 5.32669 15.0923 5.31276H14.0228C13.6648 5.31182 13.3148 5.20719 13.0151 5.01153C12.7153 4.81587 12.4787 4.53757 12.3338 4.21026C12.2959 4.11649 12.2309 4.03611 12.1472 3.97935C12.0634 3.92259 11.9647 3.89202 11.8635 3.89151H10.8915C9.48154 3.89151 8.34004 5.04651 8.34004 6.47151L8.36254 7.64601C8.16663 7.67086 7.97891 7.73984 7.81354 7.84776V6.93051C7.81229 6.6924 7.74023 6.46005 7.60654 6.26301C7.42122 5.99068 7.31318 5.67322 7.2939 5.34438C7.27462 5.01555 7.34482 4.68763 7.49704 4.39551C7.70783 3.99389 8.06247 3.68666 8.49004 3.53526C8.92852 3.38099 9.30146 3.08211 9.54754 2.68776C9.86254 2.18301 10.413 2.13876 11.049 2.13876C11.2965 2.13876 11.5313 2.19126 11.7495 2.28126C12.042 2.40876 12.3698 2.40876 12.6608 2.28126C12.876 2.19126 13.1108 2.13876 13.3583 2.13876C14.0018 2.13876 14.5695 2.19576 14.8808 2.71176C15.1163 3.10101 15.4845 3.38376 15.9143 3.53076Z" fill="url(#paint47_linear_176_802)"/>
<path d="M15.9143 3.53076C16.3073 3.66576 16.6598 3.94026 16.8818 4.33326C17.0523 4.62959 17.1352 4.96818 17.121 5.30976C17.1068 5.65133 16.996 5.98187 16.8015 6.26301C16.6678 6.46005 16.5958 6.6924 16.5945 6.93051V7.83801C16.4404 7.73552 16.2668 7.66582 16.0845 7.63326L16.1445 6.40626C16.1414 6.12425 16.0308 5.85406 15.8353 5.65083C15.6397 5.44761 15.374 5.32669 15.0923 5.31276H14.0228C13.6648 5.31182 13.3148 5.20719 13.0151 5.01153C12.7153 4.81587 12.4787 4.53757 12.3338 4.21026C12.2959 4.11649 12.2309 4.03611 12.1472 3.97935C12.0634 3.92259 11.9647 3.89202 11.8635 3.89151H10.8915C9.48154 3.89151 8.34004 5.04651 8.34004 6.47151L8.36254 7.64601C8.16663 7.67086 7.97891 7.73984 7.81354 7.84776V6.93051C7.81229 6.6924 7.74023 6.46005 7.60654 6.26301C7.42122 5.99068 7.31318 5.67322 7.2939 5.34438C7.27462 5.01555 7.34482 4.68763 7.49704 4.39551C7.70783 3.99389 8.06247 3.68666 8.49004 3.53526C8.92852 3.38099 9.30146 3.08211 9.54754 2.68776C9.86254 2.18301 10.413 2.13876 11.049 2.13876C11.2965 2.13876 11.5313 2.19126 11.7495 2.28126C12.042 2.40876 12.3698 2.40876 12.6608 2.28126C12.876 2.19126 13.1108 2.13876 13.3583 2.13876C14.0018 2.13876 14.5695 2.19576 14.8808 2.71176C15.1163 3.10101 15.4845 3.38376 15.9143 3.53076Z" fill="url(#paint48_radial_176_802)"/>
<path d="M15.9143 3.53076C16.3073 3.66576 16.6598 3.94026 16.8818 4.33326C17.0523 4.62959 17.1352 4.96818 17.121 5.30976C17.1068 5.65133 16.996 5.98187 16.8015 6.26301C16.6678 6.46005 16.5958 6.6924 16.5945 6.93051V7.83801C16.4404 7.73552 16.2668 7.66582 16.0845 7.63326L16.1445 6.40626C16.1414 6.12425 16.0308 5.85406 15.8353 5.65083C15.6397 5.44761 15.374 5.32669 15.0923 5.31276H14.0228C13.6648 5.31182 13.3148 5.20719 13.0151 5.01153C12.7153 4.81587 12.4787 4.53757 12.3338 4.21026C12.2959 4.11649 12.2309 4.03611 12.1472 3.97935C12.0634 3.92259 11.9647 3.89202 11.8635 3.89151H10.8915C9.48154 3.89151 8.34004 5.04651 8.34004 6.47151L8.36254 7.64601C8.16663 7.67086 7.97891 7.73984 7.81354 7.84776V6.93051C7.81229 6.6924 7.74023 6.46005 7.60654 6.26301C7.42122 5.99068 7.31318 5.67322 7.2939 5.34438C7.27462 5.01555 7.34482 4.68763 7.49704 4.39551C7.70783 3.99389 8.06247 3.68666 8.49004 3.53526C8.92852 3.38099 9.30146 3.08211 9.54754 2.68776C9.86254 2.18301 10.413 2.13876 11.049 2.13876C11.2965 2.13876 11.5313 2.19126 11.7495 2.28126C12.042 2.40876 12.3698 2.40876 12.6608 2.28126C12.876 2.19126 13.1108 2.13876 13.3583 2.13876C14.0018 2.13876 14.5695 2.19576 14.8808 2.71176C15.1163 3.10101 15.4845 3.38376 15.9143 3.53076Z" fill="url(#paint49_radial_176_802)"/>
<path d="M15.9143 3.53076C16.3073 3.66576 16.6598 3.94026 16.8818 4.33326C17.0523 4.62959 17.1352 4.96818 17.121 5.30976C17.1068 5.65133 16.996 5.98187 16.8015 6.26301C16.6678 6.46005 16.5958 6.6924 16.5945 6.93051V7.83801C16.4404 7.73552 16.2668 7.66582 16.0845 7.63326L16.1445 6.40626C16.1414 6.12425 16.0308 5.85406 15.8353 5.65083C15.6397 5.44761 15.374 5.32669 15.0923 5.31276H14.0228C13.6648 5.31182 13.3148 5.20719 13.0151 5.01153C12.7153 4.81587 12.4787 4.53757 12.3338 4.21026C12.2959 4.11649 12.2309 4.03611 12.1472 3.97935C12.0634 3.92259 11.9647 3.89202 11.8635 3.89151H10.8915C9.48154 3.89151 8.34004 5.04651 8.34004 6.47151L8.36254 7.64601C8.16663 7.67086 7.97891 7.73984 7.81354 7.84776V6.93051C7.81229 6.6924 7.74023 6.46005 7.60654 6.26301C7.42122 5.99068 7.31318 5.67322 7.2939 5.34438C7.27462 5.01555 7.34482 4.68763 7.49704 4.39551C7.70783 3.99389 8.06247 3.68666 8.49004 3.53526C8.92852 3.38099 9.30146 3.08211 9.54754 2.68776C9.86254 2.18301 10.413 2.13876 11.049 2.13876C11.2965 2.13876 11.5313 2.19126 11.7495 2.28126C12.042 2.40876 12.3698 2.40876 12.6608 2.28126C12.876 2.19126 13.1108 2.13876 13.3583 2.13876C14.0018 2.13876 14.5695 2.19576 14.8808 2.71176C15.1163 3.10101 15.4845 3.38376 15.9143 3.53076Z" fill="url(#paint50_radial_176_802)"/>
<path d="M15.9143 3.53076C16.3073 3.66576 16.6598 3.94026 16.8818 4.33326C17.0523 4.62959 17.1352 4.96818 17.121 5.30976C17.1068 5.65133 16.996 5.98187 16.8015 6.26301C16.6678 6.46005 16.5958 6.6924 16.5945 6.93051V7.83801C16.4404 7.73552 16.2668 7.66582 16.0845 7.63326L16.1445 6.40626C16.1414 6.12425 16.0308 5.85406 15.8353 5.65083C15.6397 5.44761 15.374 5.32669 15.0923 5.31276H14.0228C13.6648 5.31182 13.3148 5.20719 13.0151 5.01153C12.7153 4.81587 12.4787 4.53757 12.3338 4.21026C12.2959 4.11649 12.2309 4.03611 12.1472 3.97935C12.0634 3.92259 11.9647 3.89202 11.8635 3.89151H10.8915C9.48154 3.89151 8.34004 5.04651 8.34004 6.47151L8.36254 7.64601C8.16663 7.67086 7.97891 7.73984 7.81354 7.84776V6.93051C7.81229 6.6924 7.74023 6.46005 7.60654 6.26301C7.42122 5.99068 7.31318 5.67322 7.2939 5.34438C7.27462 5.01555 7.34482 4.68763 7.49704 4.39551C7.70783 3.99389 8.06247 3.68666 8.49004 3.53526C8.92852 3.38099 9.30146 3.08211 9.54754 2.68776C9.86254 2.18301 10.413 2.13876 11.049 2.13876C11.2965 2.13876 11.5313 2.19126 11.7495 2.28126C12.042 2.40876 12.3698 2.40876 12.6608 2.28126C12.876 2.19126 13.1108 2.13876 13.3583 2.13876C14.0018 2.13876 14.5695 2.19576 14.8808 2.71176C15.1163 3.10101 15.4845 3.38376 15.9143 3.53076Z" fill="url(#paint51_radial_176_802)"/>
</g>
<g filter="url(#filter11_i_176_802)">
<path d="M15.0577 6.32826C14.9075 6.18673 14.7284 6.07951 14.5327 6.01401C14.3002 5.94126 14.0092 5.92176 13.6065 5.97051C13.5789 5.97386 13.5522 5.9826 13.528 5.99625C13.5038 6.0099 13.4826 6.02818 13.4654 6.05005C13.4483 6.07191 13.4356 6.09694 13.4282 6.1237C13.4207 6.15046 13.4186 6.17843 13.422 6.20601C13.4253 6.23358 13.434 6.26023 13.4477 6.28443C13.4613 6.30863 13.4796 6.3299 13.5015 6.34703C13.5234 6.36416 13.5484 6.37682 13.5751 6.38428C13.6019 6.39174 13.6299 6.39386 13.6575 6.39051C14.025 6.34551 14.25 6.36951 14.4052 6.41826C14.5567 6.46626 14.6587 6.54351 14.7787 6.64776C14.8214 6.68218 14.8758 6.69874 14.9304 6.69396C14.985 6.68918 15.0357 6.66343 15.0718 6.62212C15.1079 6.58081 15.1265 6.52714 15.1239 6.47235C15.1213 6.41757 15.0976 6.36593 15.0577 6.32826Z" fill="#202020"/>
</g>
<g filter="url(#filter12_i_176_802)">
<path d="M9.6015 6.24502C10.0019 6.01035 10.4684 5.91389 10.929 5.97052C10.9567 5.9737 10.9835 5.98231 11.0078 5.99587C11.0321 6.00943 11.0535 6.02766 11.0708 6.04952C11.0881 6.07138 11.1009 6.09643 11.1084 6.12324C11.116 6.15006 11.1182 6.1781 11.1149 6.20576C11.1116 6.23342 11.1028 6.26016 11.0891 6.28443C11.0755 6.3087 11.0571 6.33003 11.0352 6.3472C11.0133 6.36437 10.9881 6.37703 10.9613 6.38447C10.9344 6.3919 10.9064 6.39396 10.8787 6.39052C10.5112 6.34531 10.139 6.42171 9.819 6.60802C9.7949 6.6222 9.77161 6.63773 9.74925 6.65452L9.747 6.65602C9.70254 6.69043 9.64624 6.70577 9.59047 6.69867C9.5347 6.69157 9.48404 6.6626 9.44962 6.61814C9.41521 6.57369 9.39987 6.51738 9.40697 6.46161C9.41408 6.40584 9.44304 6.35518 9.4875 6.32077L9.6015 6.24502Z" fill="#202020"/>
</g>
<g filter="url(#filter13_if_176_802)">
<path d="M12.3839 4.31525L12.3337 4.211C12.2959 4.11708 12.2309 4.03654 12.1472 3.97965C12.0634 3.92275 11.9647 3.89206 11.8634 3.8915H10.8914C9.48142 3.8915 8.33992 5.0465 8.33992 6.4715V6.6815C8.08042 6.48425 7.75342 6.068 7.75342 5.393C7.75342 4.57475 8.35042 4.16075 8.73142 3.89675C8.83867 3.8225 8.92942 3.76025 8.98417 3.70325L9.05992 3.62375C9.32692 3.34025 9.80242 2.83625 10.6334 2.61575C11.0131 2.51975 11.4044 2.47734 11.7959 2.48975C12.1499 2.4995 12.4004 2.80475 12.4004 3.16025V4.3055L12.3839 4.31525Z" fill="#23181C"/>
<path d="M12.3839 4.31525L12.3337 4.211C12.2959 4.11708 12.2309 4.03654 12.1472 3.97965C12.0634 3.92275 11.9647 3.89206 11.8634 3.8915H10.8914C9.48142 3.8915 8.33992 5.0465 8.33992 6.4715V6.6815C8.08042 6.48425 7.75342 6.068 7.75342 5.393C7.75342 4.57475 8.35042 4.16075 8.73142 3.89675C8.83867 3.8225 8.92942 3.76025 8.98417 3.70325L9.05992 3.62375C9.32692 3.34025 9.80242 2.83625 10.6334 2.61575C11.0131 2.51975 11.4044 2.47734 11.7959 2.48975C12.1499 2.4995 12.4004 2.80475 12.4004 3.16025V4.3055L12.3839 4.31525Z" fill="url(#paint52_radial_176_802)"/>
<path d="M12.3839 4.31525L12.3337 4.211C12.2959 4.11708 12.2309 4.03654 12.1472 3.97965C12.0634 3.92275 11.9647 3.89206 11.8634 3.8915H10.8914C9.48142 3.8915 8.33992 5.0465 8.33992 6.4715V6.6815C8.08042 6.48425 7.75342 6.068 7.75342 5.393C7.75342 4.57475 8.35042 4.16075 8.73142 3.89675C8.83867 3.8225 8.92942 3.76025 8.98417 3.70325L9.05992 3.62375C9.32692 3.34025 9.80242 2.83625 10.6334 2.61575C11.0131 2.51975 11.4044 2.47734 11.7959 2.48975C12.1499 2.4995 12.4004 2.80475 12.4004 3.16025V4.3055L12.3839 4.31525Z" fill="url(#paint53_radial_176_802)"/>
</g>
<g filter="url(#filter14_f_176_802)">
<path d="M16.1872 6.80975L16.1647 6.32825C16.1572 5.74475 15.675 5.26325 15.0922 5.23925H14.0227C13.344 5.23925 12.7252 4.868 12.4005 4.277C12.4005 4.277 12.3517 4.1645 12.303 3.97325C12.1162 3.24425 12.8107 2.6885 13.5502 2.8295C14.2987 2.9735 15.1567 3.22475 15.7897 3.63725C17.1217 4.5065 16.8885 6.0725 16.1872 6.80975Z" fill="#1F151B"/>
<path d="M16.1872 6.80975L16.1647 6.32825C16.1572 5.74475 15.675 5.26325 15.0922 5.23925H14.0227C13.344 5.23925 12.7252 4.868 12.4005 4.277C12.4005 4.277 12.3517 4.1645 12.303 3.97325C12.1162 3.24425 12.8107 2.6885 13.5502 2.8295C14.2987 2.9735 15.1567 3.22475 15.7897 3.63725C17.1217 4.5065 16.8885 6.0725 16.1872 6.80975Z" fill="url(#paint54_radial_176_802)"/>
<path d="M16.1872 6.80975L16.1647 6.32825C16.1572 5.74475 15.675 5.26325 15.0922 5.23925H14.0227C13.344 5.23925 12.7252 4.868 12.4005 4.277C12.4005 4.277 12.3517 4.1645 12.303 3.97325C12.1162 3.24425 12.8107 2.6885 13.5502 2.8295C14.2987 2.9735 15.1567 3.22475 15.7897 3.63725C17.1217 4.5065 16.8885 6.0725 16.1872 6.80975Z" fill="url(#paint55_radial_176_802)"/>
<path d="M16.1872 6.80975L16.1647 6.32825C16.1572 5.74475 15.675 5.26325 15.0922 5.23925H14.0227C13.344 5.23925 12.7252 4.868 12.4005 4.277C12.4005 4.277 12.3517 4.1645 12.303 3.97325C12.1162 3.24425 12.8107 2.6885 13.5502 2.8295C14.2987 2.9735 15.1567 3.22475 15.7897 3.63725C17.1217 4.5065 16.8885 6.0725 16.1872 6.80975Z" fill="url(#paint56_radial_176_802)"/>
</g>
<path d="M14.0324 7.33249C14.5312 7.33249 14.9527 7.67599 15.0674 8.14099C15.0751 8.17199 15.0755 8.20432 15.0688 8.23553C15.0621 8.26674 15.0483 8.296 15.0286 8.32109C15.0088 8.34618 14.9836 8.36644 14.9549 8.38033C14.9261 8.39422 14.8946 8.40137 14.8627 8.40124H13.1587C13.1328 8.40135 13.1073 8.39575 13.0838 8.38484C13.0604 8.37394 13.0397 8.35799 13.0231 8.33814C13.0066 8.3183 12.9946 8.29504 12.9881 8.27003C12.9816 8.24503 12.9807 8.21889 12.9854 8.19349C13.0328 7.95072 13.1632 7.73201 13.3542 7.57491C13.5453 7.4178 13.7851 7.33209 14.0324 7.33249Z" fill="white"/>
<path d="M13.8742 7.53949C13.9789 7.53957 14.0822 7.56381 14.1761 7.61033C14.2699 7.65684 14.3518 7.72437 14.4153 7.80767C14.4788 7.89098 14.5222 7.9878 14.5422 8.09062C14.5621 8.19344 14.5581 8.29948 14.5304 8.40049H13.2149C13.1878 8.29921 13.1843 8.19304 13.2048 8.0902C13.2252 7.98735 13.269 7.89058 13.3328 7.80736C13.3966 7.72414 13.4787 7.65671 13.5727 7.61026C13.6667 7.56381 13.7693 7.5396 13.8742 7.53949Z" fill="url(#paint57_radial_176_802)"/>
<path d="M13.4842 8.22126C13.4842 8.00451 13.6574 7.83126 13.8742 7.83126C13.9414 7.8306 14.0077 7.84744 14.0666 7.8801C14.1254 7.91277 14.1747 7.96015 14.2097 8.01761C14.2447 8.07507 14.2642 8.14064 14.2662 8.20789C14.2683 8.27514 14.2529 8.34177 14.2214 8.40126H13.5307C13.4993 8.3465 13.4833 8.28434 13.4842 8.22126Z" fill="black"/>
<g filter="url(#filter15_f_176_802)">
<path d="M13.8247 7.68425C13.8727 7.74875 13.7714 7.82825 13.6559 7.9145C13.5404 8.00075 13.4549 8.0615 13.4062 7.997C13.3582 7.93175 13.4122 7.8095 13.5277 7.7225C13.6432 7.6355 13.7752 7.619 13.8247 7.68425Z" fill="#C7A7A3"/>
<path d="M13.8247 7.68425C13.8727 7.74875 13.7714 7.82825 13.6559 7.9145C13.5404 8.00075 13.4549 8.0615 13.4062 7.997C13.3582 7.93175 13.4122 7.8095 13.5277 7.7225C13.6432 7.6355 13.7752 7.619 13.8247 7.68425Z" fill="url(#paint58_radial_176_802)"/>
</g>
<g filter="url(#filter16_f_176_802)">
<path d="M14.4809 8.13125C14.4609 7.99808 14.3992 7.87468 14.3047 7.77875L14.1067 7.99625L14.1959 8.1695L14.4809 8.13125Z" fill="url(#paint59_linear_176_802)"/>
</g>
<path d="M10.38 7.33249C9.88195 7.33249 9.46045 7.67599 9.3457 8.14099C9.33806 8.17199 9.33759 8.20432 9.34432 8.23553C9.35106 8.26674 9.36481 8.296 9.38455 8.32109C9.4043 8.34618 9.4295 8.36644 9.45824 8.38033C9.48699 8.39422 9.51853 8.40137 9.55045 8.40124H11.2545C11.3625 8.40124 11.4495 8.30224 11.4277 8.19349C11.379 7.95137 11.2482 7.73347 11.0575 7.57661C10.8667 7.41974 10.6269 7.33351 10.38 7.33249Z" fill="white"/>
<path d="M10.5381 7.53949C10.4334 7.53957 10.3301 7.56381 10.2362 7.61033C10.1424 7.65684 10.0605 7.72437 9.99705 7.80767C9.93356 7.89098 9.89014 7.9878 9.87016 8.09062C9.85019 8.19344 9.8542 8.29948 9.88189 8.40049H11.1981C11.2136 8.34171 11.222 8.28127 11.2229 8.22049C11.2215 8.03966 11.1488 7.86668 11.0206 7.73916C10.8923 7.61163 10.719 7.53988 10.5381 7.53949Z" fill="url(#paint60_radial_176_802)"/>
<path d="M10.9282 8.22125C10.9282 8.11782 10.8871 8.01862 10.814 7.94548C10.7409 7.87234 10.6417 7.83125 10.5382 7.83125C10.471 7.83073 10.4048 7.84766 10.3461 7.88038C10.2874 7.9131 10.2382 7.9605 10.2033 8.01793C10.1683 8.07537 10.1489 8.14088 10.1469 8.20807C10.1449 8.27526 10.1603 8.34182 10.1917 8.40125H10.8817C10.9121 8.3461 10.9281 8.2842 10.9282 8.22125Z" fill="black"/>
<g filter="url(#filter17_f_176_802)">
<path d="M11.1614 8.14175C11.1614 7.92125 10.9821 7.77425 10.9341 7.72925L10.7136 7.943L10.8486 8.219L11.1614 8.14175Z" fill="url(#paint61_linear_176_802)"/>
</g>
<g filter="url(#filter18_f_176_802)">
<path d="M10.4033 7.96446C10.5486 7.88748 10.6348 7.76543 10.5958 7.69186C10.5568 7.61829 10.4074 7.62106 10.2621 7.69804C10.1168 7.77503 10.0306 7.89707 10.0696 7.97064C10.1086 8.04421 10.258 8.04145 10.4033 7.96446Z" fill="#C7A7A3" fill-opacity="0.9"/>
<path d="M10.4033 7.96446C10.5486 7.88748 10.6348 7.76543 10.5958 7.69186C10.5568 7.61829 10.4074 7.62106 10.2621 7.69804C10.1168 7.77503 10.0306 7.89707 10.0696 7.97064C10.1086 8.04421 10.258 8.04145 10.4033 7.96446Z" fill="url(#paint62_radial_176_802)"/>
</g>
<path d="M15.9661 9.62752C16.0171 8.81552 16.0641 8.00327 16.1071 7.19077C16.4035 7.24324 16.6704 7.4027 16.8572 7.6389C17.0439 7.8751 17.1374 8.17161 17.12 8.47219C17.1026 8.77277 16.9755 9.05652 16.7628 9.26961C16.5501 9.4827 16.2666 9.60957 15.9661 9.62752Z" fill="url(#paint63_linear_176_802)"/>
<path d="M15.9661 9.62752C16.0171 8.81552 16.0641 8.00327 16.1071 7.19077C16.4035 7.24324 16.6704 7.4027 16.8572 7.6389C17.0439 7.8751 17.1374 8.17161 17.12 8.47219C17.1026 8.77277 16.9755 9.05652 16.7628 9.26961C16.5501 9.4827 16.2666 9.60957 15.9661 9.62752Z" fill="url(#paint64_radial_176_802)"/>
<path d="M15.9661 9.62752C16.0171 8.81552 16.0641 8.00327 16.1071 7.19077C16.4035 7.24324 16.6704 7.4027 16.8572 7.6389C17.0439 7.8751 17.1374 8.17161 17.12 8.47219C17.1026 8.77277 16.9755 9.05652 16.7628 9.26961C16.5501 9.4827 16.2666 9.60957 15.9661 9.62752Z" fill="url(#paint65_radial_176_802)"/>
<path d="M15.9661 9.62752C16.0171 8.81552 16.0641 8.00327 16.1071 7.19077C16.4035 7.24324 16.6704 7.4027 16.8572 7.6389C17.0439 7.8751 17.1374 8.17161 17.12 8.47219C17.1026 8.77277 16.9755 9.05652 16.7628 9.26961C16.5501 9.4827 16.2666 9.60957 15.9661 9.62752Z" fill="url(#paint66_radial_176_802)"/>
<path d="M8.35425 7.18399C8.06064 7.22587 7.79183 7.3718 7.59678 7.59521C7.40172 7.81863 7.29339 8.10466 7.2915 8.40124C7.2915 9.05749 7.80525 9.59374 8.4525 9.62824C8.40294 8.81425 8.37018 7.99933 8.35425 7.18399Z" fill="url(#paint67_linear_176_802)"/>
<path d="M8.35425 7.18399C8.06064 7.22587 7.79183 7.3718 7.59678 7.59521C7.40172 7.81863 7.29339 8.10466 7.2915 8.40124C7.2915 9.05749 7.80525 9.59374 8.4525 9.62824C8.40294 8.81425 8.37018 7.99933 8.35425 7.18399Z" fill="url(#paint68_radial_176_802)"/>
<g filter="url(#filter19_f_176_802)">
<path d="M8.32267 7.68875C8.15593 7.72665 8.00778 7.82189 7.9041 7.95787C7.80041 8.09385 7.74777 8.26192 7.75536 8.43275C7.76295 8.60358 7.83029 8.76632 7.94563 8.89257C8.06096 9.01881 8.21697 9.10055 8.38642 9.1235C8.35945 8.64552 8.3382 8.16724 8.32267 7.68875Z" fill="url(#paint69_radial_176_802)"/>
</g>
<g filter="url(#filter20_f_176_802)">
<path d="M16.0298 9.13624C16.0598 8.65174 16.088 8.16724 16.1145 7.68274C16.2978 7.70629 16.4653 7.79848 16.5832 7.94069C16.7012 8.08291 16.7608 8.26457 16.75 8.44901C16.7393 8.63346 16.659 8.80696 16.5253 8.93451C16.3916 9.06205 16.2145 9.13415 16.0298 9.13624Z" fill="url(#paint70_linear_176_802)"/>
</g>
<g filter="url(#filter21_f_176_802)">
<path d="M9.62988 6.45876C9.82638 6.31776 10.3154 6.07026 10.8936 6.16776" stroke="#353535" stroke-width="0.075" stroke-linecap="round"/>
</g>
<g filter="url(#filter22_f_176_802)">
<path d="M14.9263 6.42351C14.7298 6.28251 14.2408 6.03501 13.6626 6.13251" stroke="#353535" stroke-width="0.075" stroke-linecap="round"/>
</g>
<g filter="url(#filter23_i_176_802)">
<path d="M7.48267 4.421L8.39017 2.94125L16.0837 2.8595L16.9214 4.3745C13.4234 5.58125 9.04942 4.9715 7.48267 4.421Z" fill="url(#paint71_radial_176_802)"/>
<path d="M7.48267 4.421L8.39017 2.94125L16.0837 2.8595L16.9214 4.3745C13.4234 5.58125 9.04942 4.9715 7.48267 4.421Z" fill="url(#paint72_radial_176_802)"/>
</g>
<path d="M18.1747 3.20375H6.19717C5.86717 3.20375 5.59717 2.93375 5.59717 2.60375C5.59717 2.27375 5.86717 2.00375 6.19717 2.00375H18.1672C18.4972 2.00375 18.7672 2.27375 18.7672 2.60375C18.7747 2.93375 18.5047 3.20375 18.1747 3.20375Z" fill="url(#paint73_linear_176_802)"/>
<path d="M18.1747 3.20375H6.19717C5.86717 3.20375 5.59717 2.93375 5.59717 2.60375C5.59717 2.27375 5.86717 2.00375 6.19717 2.00375H18.1672C18.4972 2.00375 18.7672 2.27375 18.7672 2.60375C18.7747 2.93375 18.5047 3.20375 18.1747 3.20375Z" fill="url(#paint74_radial_176_802)"/>
<path d="M18.1747 3.20375H6.19717C5.86717 3.20375 5.59717 2.93375 5.59717 2.60375C5.59717 2.27375 5.86717 2.00375 6.19717 2.00375H18.1672C18.4972 2.00375 18.7672 2.27375 18.7672 2.60375C18.7747 2.93375 18.5047 3.20375 18.1747 3.20375Z" fill="url(#paint75_radial_176_802)"/>
<defs>
<filter id="filter0_f_176_802" x="10.3618" y="8.13875" width="3.69004" height="6.87314" filterUnits="userSpaceOnUse" color-interpolation-filters="sRGB">
<feFlood flood-opacity="0" result="BackgroundImageFix"/>
<feBlend mode="normal" in="SourceGraphic" in2="BackgroundImageFix" result="shape"/>
<feGaussianBlur stdDeviation="0.1" result="effect1_foregroundBlur_176_802"/>
</filter>
<filter id="filter1_f_176_802" x="18.3818" y="3.15677" width="0.325195" height="6.07526" filterUnits="userSpaceOnUse" color-interpolation-filters="sRGB">
<feFlood flood-opacity="0" result="BackgroundImageFix"/>
<feBlend mode="normal" in="SourceGraphic" in2="BackgroundImageFix" result="shape"/>
<feGaussianBlur stdDeviation="0.0625" result="effect1_foregroundBlur_176_802"/>
</filter>
<filter id="filter2_f_176_802" x="8.89351" y="17.9982" width="6.64805" height="4.97474" filterUnits="userSpaceOnUse" color-interpolation-filters="sRGB">
<feFlood flood-opacity="0" result="BackgroundImageFix"/>
<feBlend mode="normal" in="SourceGraphic" in2="BackgroundImageFix" result="shape"/>
<feGaussianBlur stdDeviation="0.0375" result="effect1_foregroundBlur_176_802"/>
</filter>
<filter id="filter3_f_176_802" x="12.9783" y="3.10226" width="3.86719" height="2.15024" filterUnits="userSpaceOnUse" color-interpolation-filters="sRGB">
<feFlood flood-opacity="0" result="BackgroundImageFix"/>
<feBlend mode="normal" in="SourceGraphic" in2="BackgroundImageFix" result="shape"/>
<feGaussianBlur stdDeviation="0.25" result="effect1_foregroundBlur_176_802"/>
</filter>
<filter id="filter4_f_176_802" x="12.9783" y="3.05576" width="3.86719" height="2.14951" filterUnits="userSpaceOnUse" color-interpolation-filters="sRGB">
<feFlood flood-opacity="0" result="BackgroundImageFix"/>
<feBlend mode="normal" in="SourceGraphic" in2="BackgroundImageFix" result="shape"/>
<feGaussianBlur stdDeviation="0.25" result="effect1_foregroundBlur_176_802"/>
</filter>
<filter id="filter5_f_176_802" x="13.0759" y="3.06677" width="3.96753" height="2.18649" filterUnits="userSpaceOnUse" color-interpolation-filters="sRGB">
<feFlood flood-opacity="0" result="BackgroundImageFix"/>
<feBlend mode="normal" in="SourceGraphic" in2="BackgroundImageFix" result="shape"/>
<feGaussianBlur stdDeviation="0.25" result="effect1_foregroundBlur_176_802"/>
</filter>
<filter id="filter6_ii_176_802" x="8.33984" y="3.89151" width="8.30518" height="9.52526" filterUnits="userSpaceOnUse" color-interpolation-filters="sRGB">
<feFlood flood-opacity="0" result="BackgroundImageFix"/>
<feBlend mode="normal" in="SourceGraphic" in2="BackgroundImageFix" result="shape"/>
<feColorMatrix in="SourceAlpha" type="matrix" values="0 0 0 0 0 0 0 0 0 0 0 0 0 0 0 0 0 0 127 0" result="hardAlpha"/>
<feOffset dx="0.5"/>
<feGaussianBlur stdDeviation="0.35"/>
<feComposite in2="hardAlpha" operator="arithmetic" k2="-1" k3="1"/>
<feColorMatrix type="matrix" values="0 0 0 0 0.913725 0 0 0 0 0.686275 0 0 0 0 0.592157 0 0 0 1 0"/>
<feBlend mode="normal" in2="shape" result="effect1_innerShadow_176_802"/>
<feColorMatrix in="SourceAlpha" type="matrix" values="0 0 0 0 0 0 0 0 0 0 0 0 0 0 0 0 0 0 127 0" result="hardAlpha"/>
<feOffset dy="0.1"/>
<feGaussianBlur stdDeviation="0.1875"/>
<feComposite in2="hardAlpha" operator="arithmetic" k2="-1" k3="1"/>
<feColorMatrix type="matrix" values="0 0 0 0 0.780392 0 0 0 0 0.568627 0 0 0 0 0.486275 0 0 0 1 0"/>
<feBlend mode="normal" in2="effect1_innerShadow_176_802" result="effect2_innerShadow_176_802"/>
</filter>
<filter id="filter7_f_176_802" x="10.9309" y="7.47058" width="2.33423" height="3.21494" filterUnits="userSpaceOnUse" color-interpolation-filters="sRGB">
<feFlood flood-opacity="0" result="BackgroundImageFix"/>
<feBlend mode="normal" in="SourceGraphic" in2="BackgroundImageFix" result="shape"/>
<feGaussianBlur stdDeviation="0.25" result="effect1_foregroundBlur_176_802"/>
</filter>
<filter id="filter8_f_176_802" x="11.3897" y="7.72507" width="1.63335" height="2.41494" filterUnits="userSpaceOnUse" color-interpolation-filters="sRGB">
<feFlood flood-opacity="0" result="BackgroundImageFix"/>
<feBlend mode="normal" in="SourceGraphic" in2="BackgroundImageFix" result="shape"/>
<feGaussianBlur stdDeviation="0.05" result="effect1_foregroundBlur_176_802"/>
</filter>
<filter id="filter9_f_176_802" x="10.8338" y="10.4076" width="2.74404" height="1.10668" filterUnits="userSpaceOnUse" color-interpolation-filters="sRGB">
<feFlood flood-opacity="0" result="BackgroundImageFix"/>
<feBlend mode="normal" in="SourceGraphic" in2="BackgroundImageFix" result="shape"/>
<feGaussianBlur stdDeviation="0.025" result="effect1_foregroundBlur_176_802"/>
</filter>
<filter id="filter10_ii_176_802" x="7.29077" y="1.88876" width="9.83179" height="5.95901" filterUnits="userSpaceOnUse" color-interpolation-filters="sRGB">
<feFlood flood-opacity="0" result="BackgroundImageFix"/>
<feBlend mode="normal" in="SourceGraphic" in2="BackgroundImageFix" result="shape"/>
<feColorMatrix in="SourceAlpha" type="matrix" values="0 0 0 0 0 0 0 0 0 0 0 0 0 0 0 0 0 0 127 0" result="hardAlpha"/>
<feOffset dy="-0.25"/>
<feGaussianBlur stdDeviation="0.3125"/>
<feComposite in2="hardAlpha" operator="arithmetic" k2="-1" k3="1"/>
<feColorMatrix type="matrix" values="0 0 0 0 0.137255 0 0 0 0 0.0901961 0 0 0 0 0.145098 0 0 0 1 0"/>
<feBlend mode="normal" in2="shape" result="effect1_innerShadow_176_802"/>
<feColorMatrix in="SourceAlpha" type="matrix" values="0 0 0 0 0 0 0 0 0 0 0 0 0 0 0 0 0 0 127 0" result="hardAlpha"/>
<feOffset dy="-0.1"/>
<feGaussianBlur stdDeviation="0.1"/>
<feComposite in2="hardAlpha" operator="arithmetic" k2="-1" k3="1"/>
<feColorMatrix type="matrix" values="0 0 0 0 0.0784314 0 0 0 0 0.0352941 0 0 0 0 0.0470588 0 0 0 1 0"/>
<feBlend mode="normal" in2="effect1_innerShadow_176_802" result="effect2_innerShadow_176_802"/>
</filter>
<filter id="filter11_i_176_802" x="13.4204" y="5.84366" width="1.75386" height="0.851099" filterUnits="userSpaceOnUse" color-interpolation-filters="sRGB">
<feFlood flood-opacity="0" result="BackgroundImageFix"/>
<feBlend mode="normal" in="SourceGraphic" in2="BackgroundImageFix" result="shape"/>
<feColorMatrix in="SourceAlpha" type="matrix" values="0 0 0 0 0 0 0 0 0 0 0 0 0 0 0 0 0 0 127 0" result="hardAlpha"/>
<feOffset dx="0.05" dy="-0.1"/>
<feGaussianBlur stdDeviation="0.0625"/>
<feComposite in2="hardAlpha" operator="arithmetic" k2="-1" k3="1"/>
<feColorMatrix type="matrix" values="0 0 0 0 0.0588235 0 0 0 0 0.054902 0 0 0 0 0.0588235 0 0 0 1 0"/>
<feBlend mode="normal" in2="shape" result="effect1_innerShadow_176_802"/>
</filter>
<filter id="filter12_i_176_802" x="9.40527" y="5.85471" width="1.76118" height="0.845667" filterUnits="userSpaceOnUse" color-interpolation-filters="sRGB">
<feFlood flood-opacity="0" result="BackgroundImageFix"/>
<feBlend mode="normal" in="SourceGraphic" in2="BackgroundImageFix" result="shape"/>
<feColorMatrix in="SourceAlpha" type="matrix" values="0 0 0 0 0 0 0 0 0 0 0 0 0 0 0 0 0 0 127 0" result="hardAlpha"/>
<feOffset dx="0.05" dy="-0.1"/>
<feGaussianBlur stdDeviation="0.0625"/>
<feComposite in2="hardAlpha" operator="arithmetic" k2="-1" k3="1"/>
<feColorMatrix type="matrix" values="0 0 0 0 0.0588235 0 0 0 0 0.054902 0 0 0 0 0.0588235 0 0 0 1 0"/>
<feBlend mode="normal" in2="shape" result="effect1_innerShadow_176_802"/>
</filter>
<filter id="filter13_if_176_802" x="7.50342" y="2.23764" width="5.14697" height="4.69385" filterUnits="userSpaceOnUse" color-interpolation-filters="sRGB">
<feFlood flood-opacity="0" result="BackgroundImageFix"/>
<feBlend mode="normal" in="SourceGraphic" in2="BackgroundImageFix" result="shape"/>
<feColorMatrix in="SourceAlpha" type="matrix" values="0 0 0 0 0 0 0 0 0 0 0 0 0 0 0 0 0 0 127 0" result="hardAlpha"/>
<feOffset dx="0.2" dy="0.1"/>
<feGaussianBlur stdDeviation="0.1"/>
<feComposite in2="hardAlpha" operator="arithmetic" k2="-1" k3="1"/>
<feColorMatrix type="matrix" values="0 0 0 0 0.286275 0 0 0 0 0.243137 0 0 0 0 0.227451 0 0 0 1 0"/>
<feBlend mode="normal" in2="shape" result="effect1_innerShadow_176_802"/>
<feGaussianBlur stdDeviation="0.125" result="effect2_foregroundBlur_176_802"/>
</filter>
<filter id="filter14_f_176_802" x="12.0222" y="2.55753" width="4.97998" height="4.50223" filterUnits="userSpaceOnUse" color-interpolation-filters="sRGB">
<feFlood flood-opacity="0" result="BackgroundImageFix"/>
<feBlend mode="normal" in="SourceGraphic" in2="BackgroundImageFix" result="shape"/>
<feGaussianBlur stdDeviation="0.125" result="effect1_foregroundBlur_176_802"/>
</filter>
<filter id="filter15_f_176_802" x="13.3387" y="7.59444" width="0.548242" height="0.479517" filterUnits="userSpaceOnUse" color-interpolation-filters="sRGB">
<feFlood flood-opacity="0" result="BackgroundImageFix"/>
<feBlend mode="normal" in="SourceGraphic" in2="BackgroundImageFix" result="shape"/>
<feGaussianBlur stdDeviation="0.025" result="effect1_foregroundBlur_176_802"/>
</filter>
<filter id="filter16_f_176_802" x="14.0067" y="7.67875" width="0.574268" height="0.590747" filterUnits="userSpaceOnUse" color-interpolation-filters="sRGB">
<feFlood flood-opacity="0" result="BackgroundImageFix"/>
<feBlend mode="normal" in="SourceGraphic" in2="BackgroundImageFix" result="shape"/>
<feGaussianBlur stdDeviation="0.05" result="effect1_foregroundBlur_176_802"/>
</filter>
<filter id="filter17_f_176_802" x="10.6136" y="7.62925" width="0.647754" height="0.689746" filterUnits="userSpaceOnUse" color-interpolation-filters="sRGB">
<feFlood flood-opacity="0" result="BackgroundImageFix"/>
<feBlend mode="normal" in="SourceGraphic" in2="BackgroundImageFix" result="shape"/>
<feGaussianBlur stdDeviation="0.05" result="effect1_foregroundBlur_176_802"/>
</filter>
<filter id="filter18_f_176_802" x="10.0103" y="7.58846" width="0.644922" height="0.48559" filterUnits="userSpaceOnUse" color-interpolation-filters="sRGB">
<feFlood flood-opacity="0" result="BackgroundImageFix"/>
<feBlend mode="normal" in="SourceGraphic" in2="BackgroundImageFix" result="shape"/>
<feGaussianBlur stdDeviation="0.025" result="effect1_foregroundBlur_176_802"/>
</filter>
<filter id="filter19_f_176_802" x="7.62964" y="7.56375" width="0.881836" height="1.68475" filterUnits="userSpaceOnUse" color-interpolation-filters="sRGB">
<feFlood flood-opacity="0" result="BackgroundImageFix"/>
<feBlend mode="normal" in="SourceGraphic" in2="BackgroundImageFix" result="shape"/>
<feGaussianBlur stdDeviation="0.0625" result="effect1_foregroundBlur_176_802"/>
</filter>
<filter id="filter20_f_176_802" x="15.7798" y="7.43274" width="1.22144" height="1.95349" filterUnits="userSpaceOnUse" color-interpolation-filters="sRGB">
<feFlood flood-opacity="0" result="BackgroundImageFix"/>
<feBlend mode="normal" in="SourceGraphic" in2="BackgroundImageFix" result="shape"/>
<feGaussianBlur stdDeviation="0.125" result="effect1_foregroundBlur_176_802"/>
</filter>
<filter id="filter21_f_176_802" x="9.46729" y="5.98309" width="1.58887" height="0.638153" filterUnits="userSpaceOnUse" color-interpolation-filters="sRGB">
<feFlood flood-opacity="0" result="BackgroundImageFix"/>
<feBlend mode="normal" in="SourceGraphic" in2="BackgroundImageFix" result="shape"/>
<feGaussianBlur stdDeviation="0.0625" result="effect1_foregroundBlur_176_802"/>
</filter>
<filter id="filter22_f_176_802" x="13.5" y="5.94785" width="1.58887" height="0.638153" filterUnits="userSpaceOnUse" color-interpolation-filters="sRGB">
<feFlood flood-opacity="0" result="BackgroundImageFix"/>
<feBlend mode="normal" in="SourceGraphic" in2="BackgroundImageFix" result="shape"/>
<feGaussianBlur stdDeviation="0.0625" result="effect1_foregroundBlur_176_802"/>
</filter>
<filter id="filter23_i_176_802" x="7.48267" y="2.8345" width="9.43872" height="2.23829" filterUnits="userSpaceOnUse" color-interpolation-filters="sRGB">
<feFlood flood-opacity="0" result="BackgroundImageFix"/>
<feBlend mode="normal" in="SourceGraphic" in2="BackgroundImageFix" result="shape"/>
<feColorMatrix in="SourceAlpha" type="matrix" values="0 0 0 0 0 0 0 0 0 0 0 0 0 0 0 0 0 0 127 0" result="hardAlpha"/>
<feOffset dy="-0.025"/>
<feGaussianBlur stdDeviation="0.0125"/>
<feComposite in2="hardAlpha" operator="arithmetic" k2="-1" k3="1"/>
<feColorMatrix type="matrix" values="0 0 0 0 0.360784 0 0 0 0 0.337255 0 0 0 0 0.372549 0 0 0 1 0"/>
<feBlend mode="normal" in2="shape" result="effect1_innerShadow_176_802"/>
</filter>
<radialGradient id="paint0_radial_176_802" cx="0" cy="0" r="1" gradientUnits="userSpaceOnUse" gradientTransform="translate(17.6939 17.8355) rotate(90) scale(8.15625 2.74219)">
<stop stop-color="#70647F"/>
<stop offset="1" stop-color="#70647F" stop-opacity="0"/>
</radialGradient>
<radialGradient id="paint1_radial_176_802" cx="0" cy="0" r="1" gradientUnits="userSpaceOnUse" gradientTransform="translate(6.74844 16.5935) scale(0.984375 5.29688)">
<stop stop-color="#5D516A"/>
<stop offset="1" stop-color="#5D516A" stop-opacity="0"/>
</radialGradient>
<radialGradient id="paint2_radial_176_802" cx="0" cy="0" r="1" gradientUnits="userSpaceOnUse" gradientTransform="translate(12.2234 16.5117) rotate(-90) scale(3.53906 11.8938)">
<stop offset="0.201" stop-color="#46404E"/>
<stop offset="1" stop-color="#3A3142"/>
</radialGradient>
<radialGradient id="paint3_radial_176_802" cx="0" cy="0" r="1" gradientUnits="userSpaceOnUse" gradientTransform="translate(12.2174 13.172) rotate(90) scale(4.45313 5.65654)">
<stop offset="0.932" stop-color="#342542" stop-opacity="0"/>
<stop offset="0.995" stop-color="#342542"/>
</radialGradient>
<radialGradient id="paint4_radial_176_802" cx="0" cy="0" r="1" gradientUnits="userSpaceOnUse" gradientTransform="translate(11.9047 12.164) rotate(145.631) scale(5.34533 7.36946)">
<stop offset="0.928" stop-color="#6A656F" stop-opacity="0"/>
<stop offset="1" stop-color="#6A656F"/>
</radialGradient>
<radialGradient id="paint5_radial_176_802" cx="0" cy="0" r="1" gradientUnits="userSpaceOnUse" gradientTransform="translate(11.7172 11.9885) rotate(34.266) scale(6.13994 8.46495)">
<stop offset="0.939" stop-color="#655F6B" stop-opacity="0"/>
<stop offset="0.971" stop-color="#655F6B"/>
</radialGradient>
<radialGradient id="paint6_radial_176_802" cx="0" cy="0" r="1" gradientUnits="userSpaceOnUse" gradientTransform="translate(12.2174 18.2105) rotate(-90) scale(7.54688 7.98405)">
<stop offset="0.506" stop-color="#57525D" stop-opacity="0"/>
<stop offset="1" stop-color="#57525D"/>
</radialGradient>
<radialGradient id="paint7_radial_176_802" cx="0" cy="0" r="1" gradientUnits="userSpaceOnUse" gradientTransform="translate(12.2174 12.5472) rotate(90) scale(2.55469 3.94407)">
<stop offset="0.422" stop-color="#170919"/>
<stop offset="1" stop-color="#361E27" stop-opacity="0"/>
</radialGradient>
<radialGradient id="paint8_radial_176_802" cx="0" cy="0" r="1" gradientUnits="userSpaceOnUse" gradientTransform="translate(13.1954 14.165) rotate(-154.408) scale(2.46877 2.0786)">
<stop stop-color="#CD9E8E"/>
<stop offset="1" stop-color="#B78273"/>
</radialGradient>
<radialGradient id="paint9_radial_176_802" cx="0" cy="0" r="1" gradientUnits="userSpaceOnUse" gradientTransform="translate(12.2069 13.2388) rotate(90) scale(0.703125 1.545)">
<stop stop-color="#B0797E"/>
<stop offset="1" stop-color="#B0797E" stop-opacity="0"/>
</radialGradient>
<radialGradient id="paint10_radial_176_802" cx="0" cy="0" r="1" gradientUnits="userSpaceOnUse" gradientTransform="translate(12.2069 11.408) rotate(90) scale(3.40552 3.19637)">
<stop offset="0.81" stop-color="#B5836A" stop-opacity="0"/>
<stop offset="1" stop-color="#B5836A"/>
</radialGradient>
<linearGradient id="paint11_linear_176_802" x1="17.985" y1="7.20651" x2="18.8745" y2="7.20651" gradientUnits="userSpaceOnUse">
<stop stop-color="#33203C"/>
<stop offset="1" stop-color="#61546D"/>
</linearGradient>
<radialGradient id="paint12_radial_176_802" cx="0" cy="0" r="1" gradientUnits="userSpaceOnUse" gradientTransform="translate(18.6487 9.25101) rotate(-90) scale(1.75105 0.135233)">
<stop stop-color="#70635D"/>
<stop offset="1" stop-color="#70635D" stop-opacity="0"/>
</radialGradient>
<radialGradient id="paint13_radial_176_802" cx="0" cy="0" r="1" gradientUnits="userSpaceOnUse" gradientTransform="translate(18.8421 9.53) rotate(126.437) scale(1.0261 0.919619)">
<stop stop-color="#686071"/>
<stop offset="0.661" stop-color="#402A4C"/>
</radialGradient>
<radialGradient id="paint14_radial_176_802" cx="0" cy="0" r="1" gradientUnits="userSpaceOnUse" gradientTransform="translate(17.8386 9.82325) rotate(-6.43651) scale(0.601059 0.704982)">
<stop offset="0.087" stop-color="#685352"/>
<stop offset="1" stop-color="#685352" stop-opacity="0"/>
</radialGradient>
<linearGradient id="paint15_linear_176_802" x1="-nan" y1="-nan" x2="-nan" y2="-nan" gradientUnits="userSpaceOnUse">
<stop stop-color="#60546C"/>
<stop offset="1" stop-color="#504B55"/>
</linearGradient>
<linearGradient id="paint16_linear_176_802" x1="19.3305" y1="11.6045" x2="17.5913" y2="11.6045" gradientUnits="userSpaceOnUse">
<stop stop-color="#F9B72A"/>
<stop offset="0.897" stop-color="#FAAC28"/>
</linearGradient>
<linearGradient id="paint17_linear_176_802" x1="17.5545" y1="11.4523" x2="18.3518" y2="11.546" gradientUnits="userSpaceOnUse">
<stop stop-color="#BD9130"/>
<stop offset="1" stop-color="#FBB229" stop-opacity="0"/>
</linearGradient>
<radialGradient id="paint18_radial_176_802" cx="0" cy="0" r="1" gradientUnits="userSpaceOnUse" gradientTransform="translate(19.414 11.5136) rotate(169.33) scale(0.83649 4.17301)">
<stop offset="0.286" stop-color="#FFD93A"/>
<stop offset="1" stop-color="#FFD93A" stop-opacity="0"/>
</radialGradient>
<radialGradient id="paint19_radial_176_802" cx="0" cy="0" r="1" gradientUnits="userSpaceOnUse" gradientTransform="translate(18.4673 13.172) rotate(-90) scale(0.984375 2.16782)">
<stop offset="0.422" stop-color="#9B6733"/>
<stop offset="1" stop-color="#DB9820" stop-opacity="0"/>
</radialGradient>
<radialGradient id="paint20_radial_176_802" cx="0" cy="0" r="1" gradientUnits="userSpaceOnUse" gradientTransform="translate(18.4673 10.3303) rotate(90) scale(0.29883 1.03633)">
<stop offset="0.161" stop-color="#845D03"/>
<stop offset="1" stop-color="#EBA429" stop-opacity="0"/>
</radialGradient>
<radialGradient id="paint21_radial_176_802" cx="0" cy="0" r="1" gradientUnits="userSpaceOnUse" gradientTransform="translate(3.9712 22.9963) rotate(-90) scale(12.2801 3.27348)">
<stop stop-color="#766C83"/>
<stop offset="0.441" stop-color="#58496A"/>
<stop offset="1" stop-color="#4D4159"/>
</radialGradient>
<radialGradient id="paint22_radial_176_802" cx="0" cy="0" r="1" gradientUnits="userSpaceOnUse" gradientTransform="translate(6.79495 22.9963) rotate(-90) scale(7.89015 0.618098)">
<stop offset="0.286" stop-color="#4F445B"/>
<stop offset="1" stop-color="#4F445B" stop-opacity="0"/>
</radialGradient>
<linearGradient id="paint23_linear_176_802" x1="6.9037" y1="21.548" x2="6.5842" y2="21.548" gradientUnits="userSpaceOnUse">
<stop offset="0.444" stop-color="#433850"/>
<stop offset="1" stop-color="#433850" stop-opacity="0"/>
</linearGradient>
<radialGradient id="paint24_radial_176_802" cx="0" cy="0" r="1" gradientUnits="userSpaceOnUse" gradientTransform="translate(19.0514 22.9963) rotate(-100.465) scale(7.77413 2.18347)">
<stop stop-color="#736782"/>
<stop offset="1" stop-color="#5F5070"/>
</radialGradient>
<radialGradient id="paint25_radial_176_802" cx="0" cy="0" r="1" gradientUnits="userSpaceOnUse" gradientTransform="translate(17.5124 17.8678) rotate(87.413) scale(9.03427 0.527608)">
<stop offset="0.177" stop-color="#3F2A51"/>
<stop offset="1" stop-color="#3F2A51" stop-opacity="0"/>
</radialGradient>
<linearGradient id="paint26_linear_176_802" x1="12.2175" y1="22.898" x2="12.2175" y2="18.0732" gradientUnits="userSpaceOnUse">
<stop stop-color="#3F3748"/>
<stop offset="1" stop-color="#3F3748" stop-opacity="0"/>
</linearGradient>
<linearGradient id="paint27_linear_176_802" x1="12.2175" y1="22.898" x2="12.2175" y2="18.0732" gradientUnits="userSpaceOnUse">
<stop stop-color="#3F3748"/>
<stop offset="1" stop-color="#3F3748" stop-opacity="0"/>
</linearGradient>
<linearGradient id="paint28_linear_176_802" x1="12.2175" y1="22.898" x2="12.2175" y2="18.0732" gradientUnits="userSpaceOnUse">
<stop stop-color="#3F3748"/>
<stop offset="1" stop-color="#3F3748" stop-opacity="0"/>
</linearGradient>
<radialGradient id="paint29_radial_176_802" cx="0" cy="0" r="1" gradientUnits="userSpaceOnUse" gradientTransform="translate(15.8369 9.323) rotate(69.6568) scale(1.6449 1.95401)">
<stop offset="0.215" stop-color="#313131"/>
<stop offset="1" stop-color="#1A161E"/>
</radialGradient>
<radialGradient id="paint30_radial_176_802" cx="0" cy="0" r="1" gradientUnits="userSpaceOnUse" gradientTransform="translate(7.58118 9.69707) rotate(17.447) scale(1.18194 3.64636)">
<stop stop-color="#564943"/>
<stop offset="0.746" stop-color="#1E191C"/>
</radialGradient>
<radialGradient id="paint31_radial_176_802" cx="0" cy="0" r="1" gradientUnits="userSpaceOnUse" gradientTransform="translate(14.3503 8.60376) rotate(180) scale(3.99247 7.06263)">
<stop stop-color="#FFDCC0"/>
<stop offset="1" stop-color="#D6A195"/>
</radialGradient>
<linearGradient id="paint32_linear_176_802" x1="16.1451" y1="9.89076" x2="12.8211" y2="9.89076" gradientUnits="userSpaceOnUse">
<stop stop-color="#FFD6BA"/>
<stop offset="1" stop-color="#FFD6BA" stop-opacity="0"/>
</linearGradient>
<radialGradient id="paint33_radial_176_802" cx="0" cy="0" r="1" gradientUnits="userSpaceOnUse" gradientTransform="translate(12.6533 4.10841) rotate(90) scale(9.72615 8.0544)">
<stop offset="0.764" stop-color="#BE8689" stop-opacity="0"/>
<stop offset="0.981" stop-color="#A56F76"/>
</radialGradient>
<radialGradient id="paint34_radial_176_802" cx="0" cy="0" r="1" gradientUnits="userSpaceOnUse" gradientTransform="translate(14.0751 7.60101) rotate(-90) scale(0.876983 1.08527)">
<stop offset="0.325" stop-color="#F6B8A8"/>
<stop offset="1" stop-color="#F6B8A8" stop-opacity="0"/>
</radialGradient>
<radialGradient id="paint35_radial_176_802" cx="0" cy="0" r="1" gradientUnits="userSpaceOnUse" gradientTransform="translate(10.4496 7.63701) rotate(-89.7943) scale(0.835693 0.909433)">
<stop offset="0.378" stop-color="#D39991"/>
<stop offset="1" stop-color="#D39991" stop-opacity="0"/>
</radialGradient>
<radialGradient id="paint36_radial_176_802" cx="0" cy="0" r="1" gradientUnits="userSpaceOnUse" gradientTransform="translate(14.8273 9.35826) rotate(176.388) scale(6.50122 16.6074)">
<stop offset="0.836" stop-color="#E6AD97" stop-opacity="0"/>
<stop offset="1" stop-color="#E6AD97"/>
</radialGradient>
<radialGradient id="paint37_radial_176_802" cx="0" cy="0" r="1" gradientUnits="userSpaceOnUse" gradientTransform="translate(8.03084 5.30076) rotate(-46.6112) scale(3.44457 1.26096)">
<stop offset="0.428" stop-color="#9F6D5C"/>
<stop offset="1" stop-color="#9F6D5C" stop-opacity="0"/>
</radialGradient>
<radialGradient id="paint38_radial_176_802" cx="0" cy="0" r="1" gradientUnits="userSpaceOnUse" gradientTransform="translate(14.0599 4.80195) rotate(121.159) scale(2.57286 2.12411)">
<stop offset="0.078" stop-color="#F6C3B0"/>
<stop offset="1" stop-color="#F6C3B0" stop-opacity="0"/>
</radialGradient>
<radialGradient id="paint39_radial_176_802" cx="0" cy="0" r="1" gradientUnits="userSpaceOnUse" gradientTransform="translate(11.7373 3.89151) rotate(90) scale(1.76803 4.52021)">
<stop offset="0.502" stop-color="#BF8679"/>
<stop offset="1" stop-color="#BF8679" stop-opacity="0"/>
</radialGradient>
<linearGradient id="paint40_linear_176_802" x1="12.8466" y1="9.11901" x2="12.2068" y2="9.14601" gradientUnits="userSpaceOnUse">
<stop offset="0.36" stop-color="#FFDFC7"/>
<stop offset="1" stop-color="#FFDFC7" stop-opacity="0"/>
</linearGradient>
<radialGradient id="paint41_radial_176_802" cx="0" cy="0" r="1" gradientUnits="userSpaceOnUse" gradientTransform="translate(12.5623 9.64251) rotate(90) scale(0.18642 0.585892)">
<stop stop-color="#FFDDC7"/>
<stop offset="1" stop-color="#FFDDC7" stop-opacity="0"/>
</radialGradient>
<linearGradient id="paint42_linear_176_802" x1="12.2068" y1="9.98901" x2="12.2068" y2="9.63426" gradientUnits="userSpaceOnUse">
<stop stop-color="#D89793"/>
<stop offset="1" stop-color="#D89793" stop-opacity="0"/>
</linearGradient>
<radialGradient id="paint43_radial_176_802" cx="0" cy="0" r="1" gradientUnits="userSpaceOnUse" gradientTransform="translate(12.6515 9.20841) rotate(155.369) scale(1.27797 2.05379)">
<stop offset="0.714" stop-color="#D3968C" stop-opacity="0"/>
<stop offset="1" stop-color="#D3968C"/>
</radialGradient>
<linearGradient id="paint44_linear_176_802" x1="12.2068" y1="7.82526" x2="12.2068" y2="8.34051" gradientUnits="userSpaceOnUse">
<stop stop-color="#E8BBA8"/>
<stop offset="1" stop-color="#E8BBA8" stop-opacity="0"/>
</linearGradient>
<linearGradient id="paint45_linear_176_802" x1="11.2889" y1="11.189" x2="11.5319" y2="10.5515" gradientUnits="userSpaceOnUse">
<stop stop-color="#E1ACA6"/>
<stop offset="1" stop-color="#E1ACA6" stop-opacity="0"/>
</linearGradient>
<radialGradient id="paint46_radial_176_802" cx="0" cy="0" r="1" gradientUnits="userSpaceOnUse" gradientTransform="translate(12.2062 11.3075) rotate(-90) scale(0.550425 2.21448)">
<stop stop-color="#88014E"/>
<stop offset="1" stop-color="#86004D"/>
</radialGradient>
<linearGradient id="paint47_linear_176_802" x1="17.4398" y1="4.27926" x2="8.57104" y2="4.27926" gradientUnits="userSpaceOnUse">
<stop stop-color="#443D40"/>
<stop offset="1" stop-color="#272127"/>
</linearGradient>
<radialGradient id="paint48_radial_176_802" cx="0" cy="0" r="1" gradientUnits="userSpaceOnUse" gradientTransform="translate(8.21254 6.39501) rotate(-90) scale(2.67393 6.76206)">
<stop offset="0.536" stop-color="#3E3433"/>
<stop offset="1" stop-color="#3E3433" stop-opacity="0"/>
</radialGradient>
<radialGradient id="paint49_radial_176_802" cx="0" cy="0" r="1" gradientUnits="userSpaceOnUse" gradientTransform="translate(15.9188 7.39551) rotate(-87.4013) scale(1.92078 3.40325)">
<stop stop-color="#4F4D4D"/>
<stop offset="1" stop-color="#4F4D4D" stop-opacity="0"/>
</radialGradient>
<radialGradient id="paint50_radial_176_802" cx="0" cy="0" r="1" gradientUnits="userSpaceOnUse" gradientTransform="translate(15.3424 2.60317) rotate(-146.667) scale(2.15612 1.5827)">
<stop stop-color="#5E5A5B"/>
<stop offset="1" stop-color="#5E5A5B" stop-opacity="0"/>
</radialGradient>
<radialGradient id="paint51_radial_176_802" cx="0" cy="0" r="1" gradientUnits="userSpaceOnUse" gradientTransform="translate(11.5151 1.38708) rotate(58.465) scale(1.32161 3.06024)">
<stop offset="0.287" stop-color="#484646"/>
<stop offset="1" stop-color="#484646" stop-opacity="0"/>
</radialGradient>
<radialGradient id="paint52_radial_176_802" cx="0" cy="0" r="1" gradientUnits="userSpaceOnUse" gradientTransform="translate(12.4004 3.11225) rotate(180) scale(1.68098 0.62388)">
<stop stop-color="#423C3F"/>
<stop offset="1" stop-color="#423C3F" stop-opacity="0"/>
</radialGradient>
<radialGradient id="paint53_radial_176_802" cx="0" cy="0" r="1" gradientUnits="userSpaceOnUse" gradientTransform="translate(8.05943 6.1227) rotate(-57.724) scale(4.60248 5.09907)">
<stop offset="0.093" stop-color="#0B0306"/>
<stop offset="0.311" stop-color="#1C0C20"/>
<stop offset="1" stop-color="#1C0C20" stop-opacity="0"/>
</radialGradient>
<radialGradient id="paint54_radial_176_802" cx="0" cy="0" r="1" gradientUnits="userSpaceOnUse" gradientTransform="translate(14.814 3.70475) scale(2.33567 0.913208)">
<stop stop-color="#4E494B"/>
<stop offset="1" stop-color="#4E494B" stop-opacity="0"/>
</radialGradient>
<radialGradient id="paint55_radial_176_802" cx="0" cy="0" r="1" gradientUnits="userSpaceOnUse" gradientTransform="translate(14.2177 6.0245) rotate(-43.614) scale(2.82557 5.17289)">
<stop offset="0.857" stop-color="#545051" stop-opacity="0"/>
<stop offset="1" stop-color="#545051"/>
</radialGradient>
<radialGradient id="paint56_radial_176_802" cx="0" cy="0" r="1" gradientUnits="userSpaceOnUse" gradientTransform="translate(13.5412 4.89725) rotate(6.66679) scale(2.49752 1.04567)">
<stop stop-color="#200E25"/>
<stop offset="1" stop-color="#200E25" stop-opacity="0"/>
</radialGradient>
<radialGradient id="paint57_radial_176_802" cx="0" cy="0" r="1" gradientUnits="userSpaceOnUse" gradientTransform="translate(13.8727 7.90399) rotate(90) scale(0.619275 0.985027)">
<stop offset="0.802" stop-color="#7D574A"/>
<stop offset="1" stop-color="#664842"/>
</radialGradient>
<radialGradient id="paint58_radial_176_802" cx="0" cy="0" r="1" gradientUnits="userSpaceOnUse" gradientTransform="translate(13.6988 7.96821) rotate(-127.812) scale(0.288893 0.39774)">
<stop offset="0.766" stop-color="#FFE6E2" stop-opacity="0"/>
<stop offset="0.966" stop-color="#FFE6E2"/>
</radialGradient>
<linearGradient id="paint59_linear_176_802" x1="14.4659" y1="7.94525" x2="14.2274" y2="8.09225" gradientUnits="userSpaceOnUse">
<stop stop-color="#B4948D"/>
<stop offset="1" stop-color="#B4948D" stop-opacity="0"/>
</linearGradient>
<radialGradient id="paint60_radial_176_802" cx="0" cy="0" r="1" gradientUnits="userSpaceOnUse" gradientTransform="translate(10.5396 7.90399) rotate(90) scale(0.619305 0.98508)">
<stop offset="0.802" stop-color="#7D574A"/>
<stop offset="1" stop-color="#664842"/>
</radialGradient>
<linearGradient id="paint61_linear_176_802" x1="11.1081" y1="7.94525" x2="10.8689" y2="8.093" gradientUnits="userSpaceOnUse">
<stop stop-color="#B4948D"/>
<stop offset="1" stop-color="#B4948D" stop-opacity="0"/>
</linearGradient>
<radialGradient id="paint62_radial_176_802" cx="0" cy="0" r="1" gradientUnits="userSpaceOnUse" gradientTransform="translate(10.4355 8.04926) rotate(-118.811) scale(0.377371 0.453618)">
<stop offset="0.766" stop-color="#FFE6E2" stop-opacity="0"/>
<stop offset="0.966" stop-color="#FFE6E2"/>
</radialGradient>
<linearGradient id="paint63_linear_176_802" x1="17.1226" y1="7.96627" x2="16.2008" y2="9.62827" gradientUnits="userSpaceOnUse">
<stop stop-color="#FFD6BD"/>
<stop offset="1" stop-color="#F0B8A6"/>
</linearGradient>
<radialGradient id="paint64_radial_176_802" cx="0" cy="0" r="1" gradientUnits="userSpaceOnUse" gradientTransform="translate(15.7341 7.91569) rotate(74.348) scale(1.77915 1.69744)">
<stop offset="0.856" stop-color="#CE978E" stop-opacity="0"/>
<stop offset="1" stop-color="#CE978E"/>
</radialGradient>
<radialGradient id="paint65_radial_176_802" cx="0" cy="0" r="1" gradientUnits="userSpaceOnUse" gradientTransform="translate(16.0088 8.33077) rotate(-53.9199) scale(1.02157 0.85628)">
<stop offset="0.664" stop-color="#F7B99C"/>
<stop offset="1" stop-color="#F7B99C" stop-opacity="0"/>
</radialGradient>
<radialGradient id="paint66_radial_176_802" cx="0" cy="0" r="1" gradientUnits="userSpaceOnUse" gradientTransform="translate(16.0958 8.46277) rotate(-69.2632) scale(1.26607 1.69164)">
<stop offset="0.803" stop-color="#EBBB9D" stop-opacity="0"/>
<stop offset="1" stop-color="#EBBB9D"/>
</radialGradient>
<linearGradient id="paint67_linear_176_802" x1="7.73925" y1="8.50324" x2="8.853" y2="8.40649" gradientUnits="userSpaceOnUse">
<stop stop-color="#D19787"/>
<stop offset="1" stop-color="#C9887D"/>
</linearGradient>
<radialGradient id="paint68_radial_176_802" cx="0" cy="0" r="1" gradientUnits="userSpaceOnUse" gradientTransform="translate(8.4525 8.40649) rotate(-173.034) scale(1.24112 1.33229)">
<stop offset="0.775" stop-color="#E8AF99" stop-opacity="0"/>
<stop offset="1" stop-color="#E8AF99"/>
</radialGradient>
<radialGradient id="paint69_radial_176_802" cx="0" cy="0" r="1" gradientUnits="userSpaceOnUse" gradientTransform="translate(8.45242 8.40575) rotate(170.26) scale(0.709771 0.87093)">
<stop stop-color="#C18472"/>
<stop offset="1" stop-color="#CA8B7A"/>
</radialGradient>
<linearGradient id="paint70_linear_176_802" x1="16.3913" y1="7.68274" x2="16.3913" y2="9.13624" gradientUnits="userSpaceOnUse">
<stop stop-color="#F9BB9E"/>
<stop offset="1" stop-color="#F6BBA0"/>
</linearGradient>
<radialGradient id="paint71_radial_176_802" cx="0" cy="0" r="1" gradientUnits="userSpaceOnUse" gradientTransform="translate(14.1762 4.93535) rotate(-100.732) scale(2.75617 6.33843)">
<stop stop-color="#534D5A"/>
<stop offset="1" stop-color="#372E41"/>
</radialGradient>
<radialGradient id="paint72_radial_176_802" cx="0" cy="0" r="1" gradientUnits="userSpaceOnUse" gradientTransform="translate(12.1784 2.6495) rotate(90) scale(1.49863 5.48714)">
<stop offset="0.263" stop-color="#160C20"/>
<stop offset="1" stop-color="#160C20" stop-opacity="0"/>
</radialGradient>
<linearGradient id="paint73_linear_176_802" x1="13.5449" y1="3.4685" x2="12.5842" y2="0.187254" gradientUnits="userSpaceOnUse">
<stop stop-color="#3D294B"/>
<stop offset="1" stop-color="#433A4D"/>
</linearGradient>
<radialGradient id="paint74_radial_176_802" cx="0" cy="0" r="1" gradientUnits="userSpaceOnUse" gradientTransform="translate(16.5224 2.297) rotate(90) scale(0.703125 9.51562)">
<stop stop-color="#6A6273"/>
<stop offset="0.867" stop-color="#696070" stop-opacity="0"/>
</radialGradient>
<radialGradient id="paint75_radial_176_802" cx="0" cy="0" r="1" gradientUnits="userSpaceOnUse" gradientTransform="translate(5.29492 2.76575) scale(5.8125 0.65625)">
<stop stop-color="#75707B"/>
<stop offset="0.935" stop-color="#75707B" stop-opacity="0"/>
</radialGradient>
</defs>
</svg>
