<svg width="24" height="25" viewBox="0 0 24 25" fill="none" xmlns="http://www.w3.org/2000/svg">
<g filter="url(#filter0_i_176_238)">
<path d="M22.0304 19.2515H1.96793C1.71293 19.2515 1.50293 19.0415 1.50293 18.7865V3.97324C1.50293 3.71824 1.71293 3.50824 1.96793 3.50824H22.0229C22.2854 3.50824 22.4879 3.71824 22.4879 3.97324V18.7782C22.4899 18.8396 22.4796 18.9007 22.4575 18.9579C22.4354 19.0152 22.402 19.0674 22.3594 19.1115C22.3167 19.1556 22.2655 19.1906 22.209 19.2145C22.1525 19.2385 22.0918 19.2508 22.0304 19.2507" fill="url(#paint0_linear_176_238)"/>
</g>
<path d="M2.25293 18.5015V4.259H21.7454V18.5015H2.25293Z" fill="url(#paint1_linear_176_238)"/>
<path d="M2.25293 18.5015V4.259H21.7454V18.5015H2.25293Z" fill="url(#paint2_radial_176_238)"/>
<path d="M2.25293 18.5015V4.259H21.7454V18.5015H2.25293Z" fill="url(#paint3_radial_176_238)"/>
<g filter="url(#filter1_f_176_238)">
<path d="M2.41406 3.80374H22.0723C22.0922 3.80374 22.1113 3.81164 22.1253 3.82571C22.1394 3.83977 22.1473 3.85885 22.1473 3.87874V18.5675" stroke="url(#paint4_linear_176_238)" stroke-width="0.15" stroke-linecap="round"/>
</g>
<g filter="url(#filter2_i_176_238)">
<path d="M21.7454 18.5015H2.25293V4.25899L1.56293 3.74899C1.52543 3.81649 1.50293 3.89899 1.50293 3.97399V18.779C1.50293 19.0415 1.71293 19.244 1.96793 19.244H22.0229C22.2029 19.244 22.3529 19.1465 22.4354 18.9965L21.7454 18.5015Z" fill="url(#paint5_linear_176_238)"/>
<path d="M21.7454 18.5015H2.25293V4.25899L1.56293 3.74899C1.52543 3.81649 1.50293 3.89899 1.50293 3.97399V18.779C1.50293 19.0415 1.71293 19.244 1.96793 19.244H22.0229C22.2029 19.244 22.3529 19.1465 22.4354 18.9965L21.7454 18.5015Z" fill="url(#paint6_linear_176_238)"/>
<path d="M21.7454 18.5015H2.25293V4.25899L1.56293 3.74899C1.52543 3.81649 1.50293 3.89899 1.50293 3.97399V18.779C1.50293 19.0415 1.71293 19.244 1.96793 19.244H22.0229C22.2029 19.244 22.3529 19.1465 22.4354 18.9965L21.7454 18.5015Z" fill="url(#paint7_radial_176_238)"/>
</g>
<path d="M12.0029 12.134C7.45043 12.134 3.75293 15.824 3.75293 20.384V23.009H20.2454V20.384C20.2454 15.824 16.5554 12.134 12.0029 12.134Z" fill="url(#paint8_radial_176_238)"/>
<path d="M12.0029 12.134C7.45043 12.134 3.75293 15.824 3.75293 20.384V23.009H20.2454V20.384C20.2454 15.824 16.5554 12.134 12.0029 12.134Z" fill="url(#paint9_radial_176_238)"/>
<path d="M12.0029 12.134C7.45043 12.134 3.75293 15.824 3.75293 20.384V23.009H20.2454V20.384C20.2454 15.824 16.5554 12.134 12.0029 12.134Z" fill="url(#paint10_radial_176_238)"/>
<path d="M17.0054 23.009V13.8253C18.0143 14.595 18.8316 15.5874 19.3936 16.7251C19.9557 17.8628 20.2472 19.115 20.2454 20.384V23.009H17.0054Z" fill="url(#paint11_radial_176_238)"/>
<path d="M17.0054 23.009V13.8253C18.0143 14.595 18.8316 15.5874 19.3936 16.7251C19.9557 17.8628 20.2472 19.115 20.2454 20.384V23.009H17.0054Z" fill="url(#paint12_linear_176_238)"/>
<path d="M17.0054 23.009V13.8253C18.0143 14.595 18.8316 15.5874 19.3936 16.7251C19.9557 17.8628 20.2472 19.115 20.2454 20.384V23.009H17.0054Z" fill="url(#paint13_linear_176_238)"/>
<path d="M6.97048 23.009V13.8253C5.9616 14.595 5.14424 15.5874 4.58222 16.7251C4.02019 17.8628 3.72869 19.115 3.73048 20.384V23.009H6.97048Z" fill="url(#paint14_linear_176_238)"/>
<path d="M6.97048 23.009V13.8253C5.9616 14.595 5.14424 15.5874 4.58222 16.7251C4.02019 17.8628 3.72869 19.115 3.73048 20.384V23.009H6.97048Z" fill="url(#paint15_radial_176_238)"/>
<path d="M13.5405 13.124H10.458V23.009H13.5405V13.124Z" fill="url(#paint16_radial_176_238)"/>
<g filter="url(#filter3_i_176_238)">
<path d="M14.508 12.554L15.528 14.75C15.5955 14.8925 15.4905 15.0575 15.333 15.0575L14.6108 14.8588C14.2943 14.7793 14.283 15.0658 14.403 15.1858L15.423 16.3558C15.618 16.5508 15.693 16.8433 15.5955 17.1058L13.5405 23.0083V12.5533L14.508 12.554Z" fill="url(#paint17_linear_176_238)"/>
<path d="M14.508 12.554L15.528 14.75C15.5955 14.8925 15.4905 15.0575 15.333 15.0575L14.6108 14.8588C14.2943 14.7793 14.283 15.0658 14.403 15.1858L15.423 16.3558C15.618 16.5508 15.693 16.8433 15.5955 17.1058L13.5405 23.0083V12.5533L14.508 12.554Z" fill="url(#paint18_radial_176_238)"/>
<path d="M14.508 12.554L15.528 14.75C15.5955 14.8925 15.4905 15.0575 15.333 15.0575L14.6108 14.8588C14.2943 14.7793 14.283 15.0658 14.403 15.1858L15.423 16.3558C15.618 16.5508 15.693 16.8433 15.5955 17.1058L13.5405 23.0083V12.5533L14.508 12.554Z" fill="url(#paint19_radial_176_238)"/>
<path d="M14.508 12.554L15.528 14.75C15.5955 14.8925 15.4905 15.0575 15.333 15.0575L14.6108 14.8588C14.2943 14.7793 14.283 15.0658 14.403 15.1858L15.423 16.3558C15.618 16.5508 15.693 16.8433 15.5955 17.1058L13.5405 23.0083V12.5533L14.508 12.554Z" fill="url(#paint20_radial_176_238)"/>
</g>
<g filter="url(#filter4_i_176_238)">
<path d="M9.49045 12.554L8.47045 14.75C8.40295 14.8925 8.50795 15.0575 8.66545 15.0575L9.38845 14.8588C9.70495 14.7793 9.71545 15.0658 9.59545 15.1858L8.57545 16.3558C8.38045 16.5508 8.30545 16.8433 8.40295 17.1058L10.458 23.0083V12.5533L9.49045 12.554Z" fill="url(#paint21_linear_176_238)"/>
<path d="M9.49045 12.554L8.47045 14.75C8.40295 14.8925 8.50795 15.0575 8.66545 15.0575L9.38845 14.8588C9.70495 14.7793 9.71545 15.0658 9.59545 15.1858L8.57545 16.3558C8.38045 16.5508 8.30545 16.8433 8.40295 17.1058L10.458 23.0083V12.5533L9.49045 12.554Z" fill="url(#paint22_radial_176_238)"/>
<path d="M9.49045 12.554L8.47045 14.75C8.40295 14.8925 8.50795 15.0575 8.66545 15.0575L9.38845 14.8588C9.70495 14.7793 9.71545 15.0658 9.59545 15.1858L8.57545 16.3558C8.38045 16.5508 8.30545 16.8433 8.40295 17.1058L10.458 23.0083V12.5533L9.49045 12.554Z" fill="url(#paint23_linear_176_238)"/>
<path d="M9.49045 12.554L8.47045 14.75C8.40295 14.8925 8.50795 15.0575 8.66545 15.0575L9.38845 14.8588C9.70495 14.7793 9.71545 15.0658 9.59545 15.1858L8.57545 16.3558C8.38045 16.5508 8.30545 16.8433 8.40295 17.1058L10.458 23.0083V12.5533L9.49045 12.554Z" fill="url(#paint24_radial_176_238)"/>
</g>
<path d="M12.003 14.5115C11.148 14.5115 10.458 13.8215 10.458 12.9665V11.0465C10.458 10.1915 11.148 9.5015 12.003 9.5015C12.858 9.5015 13.548 10.1915 13.548 11.0465V12.9665C13.546 13.3756 13.3826 13.7675 13.0933 14.0568C12.804 14.3461 12.4122 14.5095 12.003 14.5115Z" fill="url(#paint25_radial_176_238)"/>
<g filter="url(#filter5_i_176_238)">
<path d="M16.5359 17.84C16.9484 17.84 17.2859 18.1775 17.2859 18.59V20.3075H15.7859V18.59C15.7859 18.1775 16.1159 17.84 16.5359 17.84Z" fill="url(#paint26_radial_176_238)"/>
<path d="M16.5359 17.84C16.9484 17.84 17.2859 18.1775 17.2859 18.59V20.3075H15.7859V18.59C15.7859 18.1775 16.1159 17.84 16.5359 17.84Z" fill="url(#paint27_radial_176_238)"/>
</g>
<g filter="url(#filter6_i_176_238)">
<path d="M7.4624 17.834C7.0499 17.834 6.7124 18.1715 6.7124 18.584V20.3015H8.2124V18.584C8.2124 18.1715 7.8824 17.834 7.4624 17.834Z" fill="url(#paint28_radial_176_238)"/>
</g>
<path d="M7.73535 16.919V23.009H16.2404V16.1165C16.2404 15.779 15.9704 15.509 15.6329 15.509H9.15285C8.36535 15.5015 7.73535 16.139 7.73535 16.919Z" fill="url(#paint29_linear_176_238)"/>
<path fill-rule="evenodd" clip-rule="evenodd" d="M9.30585 23.009V16.7037H7.73535V23.009H9.30585Z" fill="#513358"/>
<path fill-rule="evenodd" clip-rule="evenodd" d="M9.30585 23.009V16.7037H7.73535V23.009H9.30585Z" fill="url(#paint30_linear_176_238)"/>
<g filter="url(#filter7_i_176_238)">
<path d="M10.0079 19.535C10.0121 19.6305 9.99371 19.7257 9.95422 19.8127C9.91473 19.8998 9.85526 19.9763 9.78063 20.036C9.85251 20.093 9.91036 20.1657 9.94976 20.2485C9.98915 20.3313 10.009 20.4221 10.0079 20.5138C10.0107 20.6056 9.99153 20.6968 9.95201 20.7798C9.91249 20.8627 9.85373 20.9351 9.78063 20.9908C9.85251 21.0477 9.91036 21.1204 9.94976 21.2032C9.98915 21.2861 10.009 21.3768 10.0079 21.4685C10.0108 21.5605 9.99171 21.6518 9.95218 21.7349C9.91266 21.818 9.85384 21.8905 9.78063 21.9463C9.92088 22.0535 10.0079 22.2388 10.0079 22.4465C10.0004 22.7615 9.76788 23.009 9.49413 23.009H7.29288C6.97263 23.009 6.71313 22.7083 6.71313 22.3385V19.6355C6.71313 19.2658 6.97263 18.9658 7.29288 18.9658H9.42438C9.78063 18.9658 10.0019 19.2583 10.0079 19.5358" fill="url(#paint31_linear_176_238)"/>
<path d="M10.0079 19.535C10.0121 19.6305 9.99371 19.7257 9.95422 19.8127C9.91473 19.8998 9.85526 19.9763 9.78063 20.036C9.85251 20.093 9.91036 20.1657 9.94976 20.2485C9.98915 20.3313 10.009 20.4221 10.0079 20.5138C10.0107 20.6056 9.99153 20.6968 9.95201 20.7798C9.91249 20.8627 9.85373 20.9351 9.78063 20.9908C9.85251 21.0477 9.91036 21.1204 9.94976 21.2032C9.98915 21.2861 10.009 21.3768 10.0079 21.4685C10.0108 21.5605 9.99171 21.6518 9.95218 21.7349C9.91266 21.818 9.85384 21.8905 9.78063 21.9463C9.92088 22.0535 10.0079 22.2388 10.0079 22.4465C10.0004 22.7615 9.76788 23.009 9.49413 23.009H7.29288C6.97263 23.009 6.71313 22.7083 6.71313 22.3385V19.6355C6.71313 19.2658 6.97263 18.9658 7.29288 18.9658H9.42438C9.78063 18.9658 10.0019 19.2583 10.0079 19.5358" fill="url(#paint32_radial_176_238)"/>
<path d="M10.0079 19.535C10.0121 19.6305 9.99371 19.7257 9.95422 19.8127C9.91473 19.8998 9.85526 19.9763 9.78063 20.036C9.85251 20.093 9.91036 20.1657 9.94976 20.2485C9.98915 20.3313 10.009 20.4221 10.0079 20.5138C10.0107 20.6056 9.99153 20.6968 9.95201 20.7798C9.91249 20.8627 9.85373 20.9351 9.78063 20.9908C9.85251 21.0477 9.91036 21.1204 9.94976 21.2032C9.98915 21.2861 10.009 21.3768 10.0079 21.4685C10.0108 21.5605 9.99171 21.6518 9.95218 21.7349C9.91266 21.818 9.85384 21.8905 9.78063 21.9463C9.92088 22.0535 10.0079 22.2388 10.0079 22.4465C10.0004 22.7615 9.76788 23.009 9.49413 23.009H7.29288C6.97263 23.009 6.71313 22.7083 6.71313 22.3385V19.6355C6.71313 19.2658 6.97263 18.9658 7.29288 18.9658H9.42438C9.78063 18.9658 10.0019 19.2583 10.0079 19.5358" fill="url(#paint33_radial_176_238)"/>
<path d="M10.0079 19.535C10.0121 19.6305 9.99371 19.7257 9.95422 19.8127C9.91473 19.8998 9.85526 19.9763 9.78063 20.036C9.85251 20.093 9.91036 20.1657 9.94976 20.2485C9.98915 20.3313 10.009 20.4221 10.0079 20.5138C10.0107 20.6056 9.99153 20.6968 9.95201 20.7798C9.91249 20.8627 9.85373 20.9351 9.78063 20.9908C9.85251 21.0477 9.91036 21.1204 9.94976 21.2032C9.98915 21.2861 10.009 21.3768 10.0079 21.4685C10.0108 21.5605 9.99171 21.6518 9.95218 21.7349C9.91266 21.818 9.85384 21.8905 9.78063 21.9463C9.92088 22.0535 10.0079 22.2388 10.0079 22.4465C10.0004 22.7615 9.76788 23.009 9.49413 23.009H7.29288C6.97263 23.009 6.71313 22.7083 6.71313 22.3385V19.6355C6.71313 19.2658 6.97263 18.9658 7.29288 18.9658H9.42438C9.78063 18.9658 10.0019 19.2583 10.0079 19.5358" fill="url(#paint34_radial_176_238)"/>
<path d="M10.0079 19.535C10.0121 19.6305 9.99371 19.7257 9.95422 19.8127C9.91473 19.8998 9.85526 19.9763 9.78063 20.036C9.85251 20.093 9.91036 20.1657 9.94976 20.2485C9.98915 20.3313 10.009 20.4221 10.0079 20.5138C10.0107 20.6056 9.99153 20.6968 9.95201 20.7798C9.91249 20.8627 9.85373 20.9351 9.78063 20.9908C9.85251 21.0477 9.91036 21.1204 9.94976 21.2032C9.98915 21.2861 10.009 21.3768 10.0079 21.4685C10.0108 21.5605 9.99171 21.6518 9.95218 21.7349C9.91266 21.818 9.85384 21.8905 9.78063 21.9463C9.92088 22.0535 10.0079 22.2388 10.0079 22.4465C10.0004 22.7615 9.76788 23.009 9.49413 23.009H7.29288C6.97263 23.009 6.71313 22.7083 6.71313 22.3385V19.6355C6.71313 19.2658 6.97263 18.9658 7.29288 18.9658H9.42438C9.78063 18.9658 10.0019 19.2583 10.0079 19.5358" fill="url(#paint35_radial_176_238)"/>
<path d="M10.0079 19.535C10.0121 19.6305 9.99371 19.7257 9.95422 19.8127C9.91473 19.8998 9.85526 19.9763 9.78063 20.036C9.85251 20.093 9.91036 20.1657 9.94976 20.2485C9.98915 20.3313 10.009 20.4221 10.0079 20.5138C10.0107 20.6056 9.99153 20.6968 9.95201 20.7798C9.91249 20.8627 9.85373 20.9351 9.78063 20.9908C9.85251 21.0477 9.91036 21.1204 9.94976 21.2032C9.98915 21.2861 10.009 21.3768 10.0079 21.4685C10.0108 21.5605 9.99171 21.6518 9.95218 21.7349C9.91266 21.818 9.85384 21.8905 9.78063 21.9463C9.92088 22.0535 10.0079 22.2388 10.0079 22.4465C10.0004 22.7615 9.76788 23.009 9.49413 23.009H7.29288C6.97263 23.009 6.71313 22.7083 6.71313 22.3385V19.6355C6.71313 19.2658 6.97263 18.9658 7.29288 18.9658H9.42438C9.78063 18.9658 10.0019 19.2583 10.0079 19.5358" fill="url(#paint36_linear_176_238)"/>
</g>
<g filter="url(#filter8_ii_176_238)">
<path d="M13.9911 19.535C13.9868 19.6304 14.0051 19.7255 14.0444 19.8126C14.0838 19.8996 14.1431 19.9762 14.2176 20.036C14.1459 20.0931 14.0881 20.1658 14.0489 20.2486C14.0096 20.3314 13.9899 20.4221 13.9911 20.5138C13.9911 20.714 14.0773 20.891 14.2176 20.9908C14.1459 21.0478 14.0881 21.1205 14.0489 21.2033C14.0096 21.2862 13.9899 21.3769 13.9911 21.4685C13.9911 21.6688 14.0773 21.8458 14.2176 21.9463C14.1445 22.0071 14.0862 22.0838 14.047 22.1704C14.0077 22.257 13.9886 22.3514 13.9911 22.4465C13.9978 22.7615 14.2311 23.009 14.5041 23.009H16.7053C17.0256 23.009 17.2858 22.7083 17.2858 22.3385V19.6355C17.2858 19.2658 17.0256 18.9658 16.7053 18.9658H14.5738C14.2176 18.9658 13.9963 19.2583 13.9911 19.5358" fill="url(#paint37_linear_176_238)"/>
<path d="M13.9911 19.535C13.9868 19.6304 14.0051 19.7255 14.0444 19.8126C14.0838 19.8996 14.1431 19.9762 14.2176 20.036C14.1459 20.0931 14.0881 20.1658 14.0489 20.2486C14.0096 20.3314 13.9899 20.4221 13.9911 20.5138C13.9911 20.714 14.0773 20.891 14.2176 20.9908C14.1459 21.0478 14.0881 21.1205 14.0489 21.2033C14.0096 21.2862 13.9899 21.3769 13.9911 21.4685C13.9911 21.6688 14.0773 21.8458 14.2176 21.9463C14.1445 22.0071 14.0862 22.0838 14.047 22.1704C14.0077 22.257 13.9886 22.3514 13.9911 22.4465C13.9978 22.7615 14.2311 23.009 14.5041 23.009H16.7053C17.0256 23.009 17.2858 22.7083 17.2858 22.3385V19.6355C17.2858 19.2658 17.0256 18.9658 16.7053 18.9658H14.5738C14.2176 18.9658 13.9963 19.2583 13.9911 19.5358" fill="url(#paint38_radial_176_238)"/>
<path d="M13.9911 19.535C13.9868 19.6304 14.0051 19.7255 14.0444 19.8126C14.0838 19.8996 14.1431 19.9762 14.2176 20.036C14.1459 20.0931 14.0881 20.1658 14.0489 20.2486C14.0096 20.3314 13.9899 20.4221 13.9911 20.5138C13.9911 20.714 14.0773 20.891 14.2176 20.9908C14.1459 21.0478 14.0881 21.1205 14.0489 21.2033C14.0096 21.2862 13.9899 21.3769 13.9911 21.4685C13.9911 21.6688 14.0773 21.8458 14.2176 21.9463C14.1445 22.0071 14.0862 22.0838 14.047 22.1704C14.0077 22.257 13.9886 22.3514 13.9911 22.4465C13.9978 22.7615 14.2311 23.009 14.5041 23.009H16.7053C17.0256 23.009 17.2858 22.7083 17.2858 22.3385V19.6355C17.2858 19.2658 17.0256 18.9658 16.7053 18.9658H14.5738C14.2176 18.9658 13.9963 19.2583 13.9911 19.5358" fill="url(#paint39_radial_176_238)"/>
<path d="M13.9911 19.535C13.9868 19.6304 14.0051 19.7255 14.0444 19.8126C14.0838 19.8996 14.1431 19.9762 14.2176 20.036C14.1459 20.0931 14.0881 20.1658 14.0489 20.2486C14.0096 20.3314 13.9899 20.4221 13.9911 20.5138C13.9911 20.714 14.0773 20.891 14.2176 20.9908C14.1459 21.0478 14.0881 21.1205 14.0489 21.2033C14.0096 21.2862 13.9899 21.3769 13.9911 21.4685C13.9911 21.6688 14.0773 21.8458 14.2176 21.9463C14.1445 22.0071 14.0862 22.0838 14.047 22.1704C14.0077 22.257 13.9886 22.3514 13.9911 22.4465C13.9978 22.7615 14.2311 23.009 14.5041 23.009H16.7053C17.0256 23.009 17.2858 22.7083 17.2858 22.3385V19.6355C17.2858 19.2658 17.0256 18.9658 16.7053 18.9658H14.5738C14.2176 18.9658 13.9963 19.2583 13.9911 19.5358" fill="url(#paint40_radial_176_238)"/>
<path d="M13.9911 19.535C13.9868 19.6304 14.0051 19.7255 14.0444 19.8126C14.0838 19.8996 14.1431 19.9762 14.2176 20.036C14.1459 20.0931 14.0881 20.1658 14.0489 20.2486C14.0096 20.3314 13.9899 20.4221 13.9911 20.5138C13.9911 20.714 14.0773 20.891 14.2176 20.9908C14.1459 21.0478 14.0881 21.1205 14.0489 21.2033C14.0096 21.2862 13.9899 21.3769 13.9911 21.4685C13.9911 21.6688 14.0773 21.8458 14.2176 21.9463C14.1445 22.0071 14.0862 22.0838 14.047 22.1704C14.0077 22.257 13.9886 22.3514 13.9911 22.4465C13.9978 22.7615 14.2311 23.009 14.5041 23.009H16.7053C17.0256 23.009 17.2858 22.7083 17.2858 22.3385V19.6355C17.2858 19.2658 17.0256 18.9658 16.7053 18.9658H14.5738C14.2176 18.9658 13.9963 19.2583 13.9911 19.5358" fill="url(#paint41_radial_176_238)"/>
</g>
<path d="M16.2404 17.747V16.0325C16.2404 15.7415 15.9704 15.509 15.6329 15.509H9.13935C8.35785 15.509 7.73535 16.0565 7.73535 16.7248C7.73535 17.2895 8.19285 17.747 8.7576 17.747H16.2404Z" fill="url(#paint42_linear_176_238)"/>
<path d="M8.36011 16.628C8.36011 16.34 8.59411 16.106 8.88211 16.106H16.2404V17.15H8.88211C8.81359 17.1501 8.74573 17.1367 8.6824 17.1105C8.61908 17.0844 8.56152 17.046 8.51304 16.9976C8.46456 16.9492 8.4261 16.8917 8.39986 16.8284C8.37361 16.7651 8.36011 16.6965 8.36011 16.628Z" fill="url(#paint43_linear_176_238)"/>
<g filter="url(#filter9_f_176_238)">
<path d="M14.2671 20.0375H15.7086" stroke="url(#paint44_linear_176_238)" stroke-width="0.05" stroke-linecap="round"/>
</g>
<g filter="url(#filter10_f_176_238)">
<path d="M9.69905 20.0375H8.2583" stroke="url(#paint45_linear_176_238)" stroke-width="0.05" stroke-linecap="round"/>
</g>
<g filter="url(#filter11_f_176_238)">
<path d="M14.2671 20.987H15.7086" stroke="url(#paint46_linear_176_238)" stroke-width="0.05" stroke-linecap="round"/>
</g>
<g filter="url(#filter12_f_176_238)">
<path d="M9.69905 20.987H8.2583" stroke="url(#paint47_linear_176_238)" stroke-width="0.05" stroke-linecap="round"/>
</g>
<g filter="url(#filter13_f_176_238)">
<path d="M14.2671 21.9365H15.7086" stroke="url(#paint48_linear_176_238)" stroke-width="0.05" stroke-linecap="round"/>
</g>
<g filter="url(#filter14_f_176_238)">
<path d="M9.69905 21.9365H8.2583" stroke="url(#paint49_linear_176_238)" stroke-width="0.05" stroke-linecap="round"/>
</g>
<path d="M15.6336 9.668C15.8779 9.65989 16.1142 9.57921 16.3124 9.43625V10.1345C16.3124 10.8042 15.9134 11.4012 15.3074 11.6487C15.4354 11.3757 15.5216 11.0807 15.5661 10.7637L15.6336 9.668Z" fill="url(#paint50_radial_176_238)"/>
<path d="M8.34208 9.668C8.09783 9.65989 7.86153 9.57921 7.66333 9.43625V10.1345C7.66333 10.8042 8.06233 11.4012 8.66908 11.6487C8.53858 11.3685 8.4511 11.0701 8.40958 10.7637L8.34208 9.668Z" fill="url(#paint51_radial_176_238)"/>
<g filter="url(#filter15_ii_176_238)">
<path d="M8.36991 10.8042C8.46276 11.5112 8.8096 12.1602 9.34573 12.6302C9.88186 13.1002 10.5707 13.3592 11.2837 13.3587H12.6989C13.4119 13.3592 14.1007 13.1002 14.6368 12.6302C15.173 12.1602 15.5198 11.5112 15.6127 10.8042C15.7012 9.39124 15.7904 7.98424 15.8564 6.57199C15.8533 6.29477 15.7444 6.02922 15.552 5.82959C15.3597 5.62997 15.0983 5.51135 14.8214 5.49799H13.7714C13.4199 5.49755 13.0761 5.39504 12.7817 5.20292C12.4873 5.0108 12.2551 4.73733 12.1132 4.41574C12.0766 4.32306 12.013 4.24356 11.9306 4.18763C11.8481 4.1317 11.7508 4.10194 11.6512 4.10224H10.6964C9.31266 4.10224 8.19141 5.23699 8.19141 6.63724C8.19141 8.03224 8.27841 9.40474 8.36991 10.8042Z" fill="url(#paint52_radial_176_238)"/>
</g>
<path d="M8.36991 10.8042C8.46276 11.5112 8.8096 12.1602 9.34573 12.6302C9.88186 13.1002 10.5707 13.3592 11.2837 13.3587H12.6989C13.4119 13.3592 14.1007 13.1002 14.6368 12.6302C15.173 12.1602 15.5198 11.5112 15.6127 10.8042C15.7012 9.39124 15.7904 7.98424 15.8564 6.57199C15.8533 6.29477 15.7444 6.02922 15.552 5.82959C15.3597 5.62997 15.0983 5.51135 14.8214 5.49799H13.7714C13.4199 5.49755 13.0761 5.39504 12.7817 5.20292C12.4873 5.0108 12.2551 4.73733 12.1132 4.41574C12.0766 4.32306 12.013 4.24356 11.9306 4.18763C11.8481 4.1317 11.7508 4.10194 11.6512 4.10224H10.6964C9.31266 4.10224 8.19141 5.23699 8.19141 6.63724C8.19141 8.03224 8.27841 9.40474 8.36991 10.8042Z" fill="url(#paint53_linear_176_238)"/>
<path d="M8.36991 10.8042C8.46276 11.5112 8.8096 12.1602 9.34573 12.6302C9.88186 13.1002 10.5707 13.3592 11.2837 13.3587H12.6989C13.4119 13.3592 14.1007 13.1002 14.6368 12.6302C15.173 12.1602 15.5198 11.5112 15.6127 10.8042C15.7012 9.39124 15.7904 7.98424 15.8564 6.57199C15.8533 6.29477 15.7444 6.02922 15.552 5.82959C15.3597 5.62997 15.0983 5.51135 14.8214 5.49799H13.7714C13.4199 5.49755 13.0761 5.39504 12.7817 5.20292C12.4873 5.0108 12.2551 4.73733 12.1132 4.41574C12.0766 4.32306 12.013 4.24356 11.9306 4.18763C11.8481 4.1317 11.7508 4.10194 11.6512 4.10224H10.6964C9.31266 4.10224 8.19141 5.23699 8.19141 6.63724C8.19141 8.03224 8.27841 9.40474 8.36991 10.8042Z" fill="url(#paint54_radial_176_238)"/>
<path d="M8.36991 10.8042C8.46276 11.5112 8.8096 12.1602 9.34573 12.6302C9.88186 13.1002 10.5707 13.3592 11.2837 13.3587H12.6989C13.4119 13.3592 14.1007 13.1002 14.6368 12.6302C15.173 12.1602 15.5198 11.5112 15.6127 10.8042C15.7012 9.39124 15.7904 7.98424 15.8564 6.57199C15.8533 6.29477 15.7444 6.02922 15.552 5.82959C15.3597 5.62997 15.0983 5.51135 14.8214 5.49799H13.7714C13.4199 5.49755 13.0761 5.39504 12.7817 5.20292C12.4873 5.0108 12.2551 4.73733 12.1132 4.41574C12.0766 4.32306 12.013 4.24356 11.9306 4.18763C11.8481 4.1317 11.7508 4.10194 11.6512 4.10224H10.6964C9.31266 4.10224 8.19141 5.23699 8.19141 6.63724C8.19141 8.03224 8.27841 9.40474 8.36991 10.8042Z" fill="url(#paint55_radial_176_238)"/>
<path d="M8.36991 10.8042C8.46276 11.5112 8.8096 12.1602 9.34573 12.6302C9.88186 13.1002 10.5707 13.3592 11.2837 13.3587H12.6989C13.4119 13.3592 14.1007 13.1002 14.6368 12.6302C15.173 12.1602 15.5198 11.5112 15.6127 10.8042C15.7012 9.39124 15.7904 7.98424 15.8564 6.57199C15.8533 6.29477 15.7444 6.02922 15.552 5.82959C15.3597 5.62997 15.0983 5.51135 14.8214 5.49799H13.7714C13.4199 5.49755 13.0761 5.39504 12.7817 5.20292C12.4873 5.0108 12.2551 4.73733 12.1132 4.41574C12.0766 4.32306 12.013 4.24356 11.9306 4.18763C11.8481 4.1317 11.7508 4.10194 11.6512 4.10224H10.6964C9.31266 4.10224 8.19141 5.23699 8.19141 6.63724C8.19141 8.03224 8.27841 9.40474 8.36991 10.8042Z" fill="url(#paint56_radial_176_238)"/>
<path d="M8.36991 10.8042C8.46276 11.5112 8.8096 12.1602 9.34573 12.6302C9.88186 13.1002 10.5707 13.3592 11.2837 13.3587H12.6989C13.4119 13.3592 14.1007 13.1002 14.6368 12.6302C15.173 12.1602 15.5198 11.5112 15.6127 10.8042C15.7012 9.39124 15.7904 7.98424 15.8564 6.57199C15.8533 6.29477 15.7444 6.02922 15.552 5.82959C15.3597 5.62997 15.0983 5.51135 14.8214 5.49799H13.7714C13.4199 5.49755 13.0761 5.39504 12.7817 5.20292C12.4873 5.0108 12.2551 4.73733 12.1132 4.41574C12.0766 4.32306 12.013 4.24356 11.9306 4.18763C11.8481 4.1317 11.7508 4.10194 11.6512 4.10224H10.6964C9.31266 4.10224 8.19141 5.23699 8.19141 6.63724C8.19141 8.03224 8.27841 9.40474 8.36991 10.8042Z" fill="url(#paint57_radial_176_238)"/>
<path d="M8.36991 10.8042C8.46276 11.5112 8.8096 12.1602 9.34573 12.6302C9.88186 13.1002 10.5707 13.3592 11.2837 13.3587H12.6989C13.4119 13.3592 14.1007 13.1002 14.6368 12.6302C15.173 12.1602 15.5198 11.5112 15.6127 10.8042C15.7012 9.39124 15.7904 7.98424 15.8564 6.57199C15.8533 6.29477 15.7444 6.02922 15.552 5.82959C15.3597 5.62997 15.0983 5.51135 14.8214 5.49799H13.7714C13.4199 5.49755 13.0761 5.39504 12.7817 5.20292C12.4873 5.0108 12.2551 4.73733 12.1132 4.41574C12.0766 4.32306 12.013 4.24356 11.9306 4.18763C11.8481 4.1317 11.7508 4.10194 11.6512 4.10224H10.6964C9.31266 4.10224 8.19141 5.23699 8.19141 6.63724C8.19141 8.03224 8.27841 9.40474 8.36991 10.8042Z" fill="url(#paint58_radial_176_238)"/>
<path d="M8.36991 10.8042C8.46276 11.5112 8.8096 12.1602 9.34573 12.6302C9.88186 13.1002 10.5707 13.3592 11.2837 13.3587H12.6989C13.4119 13.3592 14.1007 13.1002 14.6368 12.6302C15.173 12.1602 15.5198 11.5112 15.6127 10.8042C15.7012 9.39124 15.7904 7.98424 15.8564 6.57199C15.8533 6.29477 15.7444 6.02922 15.552 5.82959C15.3597 5.62997 15.0983 5.51135 14.8214 5.49799H13.7714C13.4199 5.49755 13.0761 5.39504 12.7817 5.20292C12.4873 5.0108 12.2551 4.73733 12.1132 4.41574C12.0766 4.32306 12.013 4.24356 11.9306 4.18763C11.8481 4.1317 11.7508 4.10194 11.6512 4.10224H10.6964C9.31266 4.10224 8.19141 5.23699 8.19141 6.63724C8.19141 8.03224 8.27841 9.40474 8.36991 10.8042Z" fill="url(#paint59_radial_176_238)"/>
<g filter="url(#filter16_f_176_238)">
<path d="M11.6872 8.33749L11.2439 9.71599C11.1682 9.99949 11.3497 10.2837 11.6069 10.2837H12.1559C12.4132 10.2837 12.5947 9.99574 12.5197 9.71599L12.1484 8.33749C12.0689 8.03224 11.7704 8.03224 11.6872 8.33749Z" fill="#D69790"/>
</g>
<g filter="url(#filter17_f_176_238)">
<path d="M11.7014 8.19424L11.3024 9.57274C11.2214 9.85699 11.4164 10.1405 11.6932 10.1405H12.2827C12.5602 10.1405 12.7552 9.85249 12.6734 9.57274L12.2744 8.19424C12.1897 7.88899 11.7907 7.88899 11.7014 8.19424Z" fill="#F6BFAB"/>
<path d="M11.7014 8.19424L11.3024 9.57274C11.2214 9.85699 11.4164 10.1405 11.6932 10.1405H12.2827C12.5602 10.1405 12.7552 9.85249 12.6734 9.57274L12.2744 8.19424C12.1897 7.88899 11.7907 7.88899 11.7014 8.19424Z" fill="url(#paint60_linear_176_238)"/>
<path d="M11.7014 8.19424L11.3024 9.57274C11.2214 9.85699 11.4164 10.1405 11.6932 10.1405H12.2827C12.5602 10.1405 12.7552 9.85249 12.6734 9.57274L12.2744 8.19424C12.1897 7.88899 11.7907 7.88899 11.7014 8.19424Z" fill="url(#paint61_radial_176_238)"/>
<path d="M11.7014 8.19424L11.3024 9.57274C11.2214 9.85699 11.4164 10.1405 11.6932 10.1405H12.2827C12.5602 10.1405 12.7552 9.85249 12.6734 9.57274L12.2744 8.19424C12.1897 7.88899 11.7907 7.88899 11.7014 8.19424Z" fill="url(#paint62_linear_176_238)"/>
<path d="M11.7014 8.19424L11.3024 9.57274C11.2214 9.85699 11.4164 10.1405 11.6932 10.1405H12.2827C12.5602 10.1405 12.7552 9.85249 12.6734 9.57274L12.2744 8.19424C12.1897 7.88899 11.7907 7.88899 11.7014 8.19424Z" fill="url(#paint63_radial_176_238)"/>
<path d="M11.7014 8.19424L11.3024 9.57274C11.2214 9.85699 11.4164 10.1405 11.6932 10.1405H12.2827C12.5602 10.1405 12.7552 9.85249 12.6734 9.57274L12.2744 8.19424C12.1897 7.88899 11.7907 7.88899 11.7014 8.19424Z" fill="url(#paint64_linear_176_238)"/>
</g>
<g filter="url(#filter18_f_176_238)">
<path d="M10.9746 10.6062C10.9414 10.5894 10.9037 10.5838 10.8671 10.5901C10.8305 10.5965 10.7969 10.6145 10.7713 10.6415C10.745 10.6678 10.7288 10.7025 10.7257 10.7396C10.7225 10.7767 10.7326 10.8136 10.7541 10.844C11.0151 11.24 11.4703 11.504 11.9878 11.504C12.5053 11.504 12.9613 11.24 13.2223 10.844C13.2436 10.8132 13.2534 10.776 13.2501 10.7388C13.2468 10.7015 13.2306 10.6666 13.2043 10.64C13.1786 10.6134 13.1451 10.5958 13.1086 10.5897C13.0722 10.5836 13.0347 10.5894 13.0018 10.6062H13.0011C12.7086 10.7592 12.3636 10.8462 11.9886 10.8462C11.6361 10.8496 11.2881 10.7672 10.9746 10.6062Z" stroke="url(#paint65_linear_176_238)" stroke-width="0.075"/>
</g>
<path d="M11.988 10.9025C11.6077 10.9025 11.25 10.8125 10.9492 10.6565C10.8465 10.604 10.7362 10.7202 10.8007 10.8132C11.052 11.1942 11.4892 11.4477 11.988 11.4477C12.4867 11.4477 12.9247 11.1942 13.1752 10.8132C13.2405 10.7157 13.1302 10.604 13.0267 10.6557C12.7053 10.8204 12.349 10.9053 11.988 10.9032" fill="url(#paint66_radial_176_238)"/>
<g filter="url(#filter19_ii_176_238)">
<path d="M15.6291 3.7475C16.0316 3.88591 16.3697 4.16646 16.5801 4.5365C16.7469 4.82766 16.8279 5.16009 16.8137 5.49534C16.7995 5.8306 16.6906 6.15499 16.4998 6.431C16.3682 6.62457 16.2976 6.85317 16.2973 7.08725V7.9775C16.1468 7.87561 15.9762 7.80708 15.7971 7.7765L15.8556 6.57125C15.8525 6.29416 15.7437 6.02871 15.5515 5.8291C15.3593 5.6295 15.0981 5.5108 14.8213 5.49725H13.7713C13.0551 5.49725 12.4063 5.075 12.1123 4.415C12.0758 4.32245 12.0123 4.24303 11.93 4.18711C11.8478 4.13119 11.7505 4.10135 11.6511 4.1015H10.6963C9.31181 4.1015 8.19056 5.2355 8.19056 6.63575L8.21306 7.7885C8.02033 7.81251 7.83563 7.88023 7.67306 7.9865V7.0865C7.67273 6.85242 7.60219 6.62382 7.47056 6.43025C7.28893 6.16269 7.18307 5.85099 7.16419 5.52816C7.14531 5.20533 7.21411 4.88341 7.36331 4.5965C7.56918 4.20116 7.91776 3.89896 8.33831 3.75125C8.76851 3.5995 9.1343 3.30592 9.37556 2.91875C9.59538 2.56441 9.9349 2.30058 10.3326 2.17509C10.7302 2.0496 11.1597 2.07077 11.5431 2.23475C11.6844 2.29606 11.8368 2.32769 11.9908 2.32769C12.1448 2.32769 12.2972 2.29606 12.4386 2.23475C12.6493 2.14625 12.8803 2.09375 13.1226 2.09375C13.7556 2.09375 14.3083 2.43575 14.6151 2.94275C14.8453 3.32525 15.2076 3.60275 15.6291 3.7475Z" fill="url(#paint67_linear_176_238)"/>
<path d="M15.6291 3.7475C16.0316 3.88591 16.3697 4.16646 16.5801 4.5365C16.7469 4.82766 16.8279 5.16009 16.8137 5.49534C16.7995 5.8306 16.6906 6.15499 16.4998 6.431C16.3682 6.62457 16.2976 6.85317 16.2973 7.08725V7.9775C16.1468 7.87561 15.9762 7.80708 15.7971 7.7765L15.8556 6.57125C15.8525 6.29416 15.7437 6.02871 15.5515 5.8291C15.3593 5.6295 15.0981 5.5108 14.8213 5.49725H13.7713C13.0551 5.49725 12.4063 5.075 12.1123 4.415C12.0758 4.32245 12.0123 4.24303 11.93 4.18711C11.8478 4.13119 11.7505 4.10135 11.6511 4.1015H10.6963C9.31181 4.1015 8.19056 5.2355 8.19056 6.63575L8.21306 7.7885C8.02033 7.81251 7.83563 7.88023 7.67306 7.9865V7.0865C7.67273 6.85242 7.60219 6.62382 7.47056 6.43025C7.28893 6.16269 7.18307 5.85099 7.16419 5.52816C7.14531 5.20533 7.21411 4.88341 7.36331 4.5965C7.56918 4.20116 7.91776 3.89896 8.33831 3.75125C8.76851 3.5995 9.1343 3.30592 9.37556 2.91875C9.59538 2.56441 9.9349 2.30058 10.3326 2.17509C10.7302 2.0496 11.1597 2.07077 11.5431 2.23475C11.6844 2.29606 11.8368 2.32769 11.9908 2.32769C12.1448 2.32769 12.2972 2.29606 12.4386 2.23475C12.6493 2.14625 12.8803 2.09375 13.1226 2.09375C13.7556 2.09375 14.3083 2.43575 14.6151 2.94275C14.8453 3.32525 15.2076 3.60275 15.6291 3.7475Z" fill="url(#paint68_radial_176_238)"/>
<path d="M15.6291 3.7475C16.0316 3.88591 16.3697 4.16646 16.5801 4.5365C16.7469 4.82766 16.8279 5.16009 16.8137 5.49534C16.7995 5.8306 16.6906 6.15499 16.4998 6.431C16.3682 6.62457 16.2976 6.85317 16.2973 7.08725V7.9775C16.1468 7.87561 15.9762 7.80708 15.7971 7.7765L15.8556 6.57125C15.8525 6.29416 15.7437 6.02871 15.5515 5.8291C15.3593 5.6295 15.0981 5.5108 14.8213 5.49725H13.7713C13.0551 5.49725 12.4063 5.075 12.1123 4.415C12.0758 4.32245 12.0123 4.24303 11.93 4.18711C11.8478 4.13119 11.7505 4.10135 11.6511 4.1015H10.6963C9.31181 4.1015 8.19056 5.2355 8.19056 6.63575L8.21306 7.7885C8.02033 7.81251 7.83563 7.88023 7.67306 7.9865V7.0865C7.67273 6.85242 7.60219 6.62382 7.47056 6.43025C7.28893 6.16269 7.18307 5.85099 7.16419 5.52816C7.14531 5.20533 7.21411 4.88341 7.36331 4.5965C7.56918 4.20116 7.91776 3.89896 8.33831 3.75125C8.76851 3.5995 9.1343 3.30592 9.37556 2.91875C9.59538 2.56441 9.9349 2.30058 10.3326 2.17509C10.7302 2.0496 11.1597 2.07077 11.5431 2.23475C11.6844 2.29606 11.8368 2.32769 11.9908 2.32769C12.1448 2.32769 12.2972 2.29606 12.4386 2.23475C12.6493 2.14625 12.8803 2.09375 13.1226 2.09375C13.7556 2.09375 14.3083 2.43575 14.6151 2.94275C14.8453 3.32525 15.2076 3.60275 15.6291 3.7475Z" fill="url(#paint69_radial_176_238)"/>
<path d="M15.6291 3.7475C16.0316 3.88591 16.3697 4.16646 16.5801 4.5365C16.7469 4.82766 16.8279 5.16009 16.8137 5.49534C16.7995 5.8306 16.6906 6.15499 16.4998 6.431C16.3682 6.62457 16.2976 6.85317 16.2973 7.08725V7.9775C16.1468 7.87561 15.9762 7.80708 15.7971 7.7765L15.8556 6.57125C15.8525 6.29416 15.7437 6.02871 15.5515 5.8291C15.3593 5.6295 15.0981 5.5108 14.8213 5.49725H13.7713C13.0551 5.49725 12.4063 5.075 12.1123 4.415C12.0758 4.32245 12.0123 4.24303 11.93 4.18711C11.8478 4.13119 11.7505 4.10135 11.6511 4.1015H10.6963C9.31181 4.1015 8.19056 5.2355 8.19056 6.63575L8.21306 7.7885C8.02033 7.81251 7.83563 7.88023 7.67306 7.9865V7.0865C7.67273 6.85242 7.60219 6.62382 7.47056 6.43025C7.28893 6.16269 7.18307 5.85099 7.16419 5.52816C7.14531 5.20533 7.21411 4.88341 7.36331 4.5965C7.56918 4.20116 7.91776 3.89896 8.33831 3.75125C8.76851 3.5995 9.1343 3.30592 9.37556 2.91875C9.59538 2.56441 9.9349 2.30058 10.3326 2.17509C10.7302 2.0496 11.1597 2.07077 11.5431 2.23475C11.6844 2.29606 11.8368 2.32769 11.9908 2.32769C12.1448 2.32769 12.2972 2.29606 12.4386 2.23475C12.6493 2.14625 12.8803 2.09375 13.1226 2.09375C13.7556 2.09375 14.3083 2.43575 14.6151 2.94275C14.8453 3.32525 15.2076 3.60275 15.6291 3.7475Z" fill="url(#paint70_radial_176_238)"/>
<path d="M15.6291 3.7475C16.0316 3.88591 16.3697 4.16646 16.5801 4.5365C16.7469 4.82766 16.8279 5.16009 16.8137 5.49534C16.7995 5.8306 16.6906 6.15499 16.4998 6.431C16.3682 6.62457 16.2976 6.85317 16.2973 7.08725V7.9775C16.1468 7.87561 15.9762 7.80708 15.7971 7.7765L15.8556 6.57125C15.8525 6.29416 15.7437 6.02871 15.5515 5.8291C15.3593 5.6295 15.0981 5.5108 14.8213 5.49725H13.7713C13.0551 5.49725 12.4063 5.075 12.1123 4.415C12.0758 4.32245 12.0123 4.24303 11.93 4.18711C11.8478 4.13119 11.7505 4.10135 11.6511 4.1015H10.6963C9.31181 4.1015 8.19056 5.2355 8.19056 6.63575L8.21306 7.7885C8.02033 7.81251 7.83563 7.88023 7.67306 7.9865V7.0865C7.67273 6.85242 7.60219 6.62382 7.47056 6.43025C7.28893 6.16269 7.18307 5.85099 7.16419 5.52816C7.14531 5.20533 7.21411 4.88341 7.36331 4.5965C7.56918 4.20116 7.91776 3.89896 8.33831 3.75125C8.76851 3.5995 9.1343 3.30592 9.37556 2.91875C9.59538 2.56441 9.9349 2.30058 10.3326 2.17509C10.7302 2.0496 11.1597 2.07077 11.5431 2.23475C11.6844 2.29606 11.8368 2.32769 11.9908 2.32769C12.1448 2.32769 12.2972 2.29606 12.4386 2.23475C12.6493 2.14625 12.8803 2.09375 13.1226 2.09375C13.7556 2.09375 14.3083 2.43575 14.6151 2.94275C14.8453 3.32525 15.2076 3.60275 15.6291 3.7475Z" fill="url(#paint71_radial_176_238)"/>
</g>
<g filter="url(#filter20_i_176_238)">
<path d="M14.7876 6.4955C14.6402 6.35628 14.464 6.25106 14.2716 6.18725C14.0436 6.11525 13.7578 6.09575 13.3626 6.1445C13.3355 6.1478 13.3093 6.1564 13.2856 6.16981C13.2618 6.18322 13.2409 6.20119 13.2241 6.22267C13.2073 6.24416 13.1949 6.26874 13.1875 6.29503C13.1802 6.32132 13.1782 6.34879 13.1815 6.37587C13.1848 6.40296 13.1934 6.42913 13.2068 6.45289C13.2202 6.47665 13.2381 6.49753 13.2596 6.51435C13.2811 6.53117 13.3057 6.54359 13.332 6.55091C13.3583 6.55823 13.3857 6.5603 13.4128 6.557C13.7736 6.51275 13.9948 6.536 14.1471 6.584C14.2956 6.6305 14.3961 6.70625 14.5146 6.809C14.5562 6.8452 14.6104 6.8634 14.6654 6.85961C14.7204 6.85581 14.7716 6.83032 14.8078 6.78875C14.844 6.74717 14.8622 6.69292 14.8584 6.63793C14.8546 6.58293 14.8292 6.5317 14.7876 6.4955Z" fill="#202020"/>
</g>
<g filter="url(#filter21_i_176_238)">
<path d="M9.42978 6.41376C9.82312 6.18306 10.2814 6.08818 10.734 6.14376C10.7612 6.14706 10.7874 6.15567 10.8112 6.1691C10.835 6.18253 10.8559 6.20052 10.8728 6.22204C10.8896 6.24356 10.9021 6.26819 10.9094 6.29452C10.9168 6.32085 10.9188 6.34837 10.9155 6.37551C10.9122 6.40264 10.9036 6.42886 10.8902 6.45267C10.8768 6.47647 10.8588 6.4974 10.8372 6.51425C10.8157 6.53111 10.7911 6.54356 10.7648 6.55089C10.7384 6.55823 10.7109 6.56031 10.6838 6.55701C10.323 6.5128 9.95765 6.58787 9.64353 6.77076C9.61998 6.7845 9.5972 6.79953 9.57528 6.81576L9.57303 6.81726C9.52937 6.85107 9.47406 6.86616 9.41928 6.85919C9.3645 6.85223 9.31472 6.82379 9.28091 6.78013C9.24709 6.73647 9.232 6.68116 9.23897 6.62638C9.24593 6.5716 9.27437 6.52182 9.31803 6.48801L9.42978 6.41376Z" fill="#202020"/>
</g>
<g filter="url(#filter22_if_176_238)">
<path d="M12.1627 4.51851L12.1132 4.41576C12.0767 4.32309 12.0131 4.24359 11.9307 4.18766C11.8482 4.13172 11.7509 4.10196 11.6512 4.10226H10.6965C9.31275 4.10226 8.19075 5.23626 8.19075 6.63651V6.84276C7.93575 6.64851 7.61475 6.23976 7.61475 5.57676C7.61475 4.77276 8.20125 4.36701 8.57475 4.10751C8.68125 4.03476 8.76975 3.97251 8.823 3.91776L8.898 3.83901C9.1605 3.56151 9.627 3.06576 10.443 2.84901C10.8125 2.75572 11.1931 2.71407 11.574 2.72526C11.928 2.73426 12.1785 3.04026 12.1785 3.39501V4.50876L12.1627 4.51851Z" fill="#23181C"/>
<path d="M12.1627 4.51851L12.1132 4.41576C12.0767 4.32309 12.0131 4.24359 11.9307 4.18766C11.8482 4.13172 11.7509 4.10196 11.6512 4.10226H10.6965C9.31275 4.10226 8.19075 5.23626 8.19075 6.63651V6.84276C7.93575 6.64851 7.61475 6.23976 7.61475 5.57676C7.61475 4.77276 8.20125 4.36701 8.57475 4.10751C8.68125 4.03476 8.76975 3.97251 8.823 3.91776L8.898 3.83901C9.1605 3.56151 9.627 3.06576 10.443 2.84901C10.8125 2.75572 11.1931 2.71407 11.574 2.72526C11.928 2.73426 12.1785 3.04026 12.1785 3.39501V4.50876L12.1627 4.51851Z" fill="url(#paint72_radial_176_238)"/>
<path d="M12.1627 4.51851L12.1132 4.41576C12.0767 4.32309 12.0131 4.24359 11.9307 4.18766C11.8482 4.13172 11.7509 4.10196 11.6512 4.10226H10.6965C9.31275 4.10226 8.19075 5.23626 8.19075 6.63651V6.84276C7.93575 6.64851 7.61475 6.23976 7.61475 5.57676C7.61475 4.77276 8.20125 4.36701 8.57475 4.10751C8.68125 4.03476 8.76975 3.97251 8.823 3.91776L8.898 3.83901C9.1605 3.56151 9.627 3.06576 10.443 2.84901C10.8125 2.75572 11.1931 2.71407 11.574 2.72526C11.928 2.73426 12.1785 3.04026 12.1785 3.39501V4.50876L12.1627 4.51851Z" fill="url(#paint73_radial_176_238)"/>
</g>
<g filter="url(#filter23_f_176_238)">
<path d="M15.8977 6.96875L15.8752 6.4955C15.8677 5.9225 15.3952 5.45 14.8215 5.426H13.7715C13.4456 5.42602 13.1257 5.33828 12.8454 5.172C12.5651 5.00572 12.3347 4.76703 12.1785 4.481C12.1785 4.481 12.135 4.37975 12.0885 4.205C11.8965 3.4775 12.5917 2.921 13.3305 3.06425C14.0602 3.206 14.892 3.452 15.507 3.85325C16.8157 4.706 16.587 6.24425 15.897 6.96875" fill="#1F151B"/>
<path d="M15.8977 6.96875L15.8752 6.4955C15.8677 5.9225 15.3952 5.45 14.8215 5.426H13.7715C13.4456 5.42602 13.1257 5.33828 12.8454 5.172C12.5651 5.00572 12.3347 4.76703 12.1785 4.481C12.1785 4.481 12.135 4.37975 12.0885 4.205C11.8965 3.4775 12.5917 2.921 13.3305 3.06425C14.0602 3.206 14.892 3.452 15.507 3.85325C16.8157 4.706 16.587 6.24425 15.897 6.96875" fill="url(#paint74_radial_176_238)"/>
<path d="M15.8977 6.96875L15.8752 6.4955C15.8677 5.9225 15.3952 5.45 14.8215 5.426H13.7715C13.4456 5.42602 13.1257 5.33828 12.8454 5.172C12.5651 5.00572 12.3347 4.76703 12.1785 4.481C12.1785 4.481 12.135 4.37975 12.0885 4.205C11.8965 3.4775 12.5917 2.921 13.3305 3.06425C14.0602 3.206 14.892 3.452 15.507 3.85325C16.8157 4.706 16.587 6.24425 15.897 6.96875" fill="url(#paint75_radial_176_238)"/>
<path d="M15.8977 6.96875L15.8752 6.4955C15.8677 5.9225 15.3952 5.45 14.8215 5.426H13.7715C13.4456 5.42602 13.1257 5.33828 12.8454 5.172C12.5651 5.00572 12.3347 4.76703 12.1785 4.481C12.1785 4.481 12.135 4.37975 12.0885 4.205C11.8965 3.4775 12.5917 2.921 13.3305 3.06425C14.0602 3.206 14.892 3.452 15.507 3.85325C16.8157 4.706 16.587 6.24425 15.897 6.96875" fill="url(#paint76_radial_176_238)"/>
</g>
<path d="M13.7813 7.48175C14.271 7.48175 14.685 7.81925 14.7975 8.276C14.8051 8.30641 14.8056 8.33814 14.799 8.36877C14.7924 8.3994 14.7788 8.42811 14.7595 8.45272C14.7401 8.47733 14.7153 8.49717 14.687 8.51074C14.6588 8.52431 14.6278 8.53124 14.5965 8.531H12.924C12.8986 8.53119 12.8736 8.52578 12.8505 8.51516C12.8275 8.50454 12.8071 8.48897 12.7907 8.46956C12.7744 8.45015 12.7626 8.42738 12.756 8.40287C12.7495 8.37836 12.7485 8.35271 12.753 8.32775C12.8002 8.0896 12.9284 7.87516 13.1159 7.72091C13.3034 7.56667 13.5385 7.48215 13.7813 7.48175Z" fill="white"/>
<path d="M13.626 7.685C13.7289 7.68517 13.8304 7.70905 13.9225 7.75478C14.0147 7.80051 14.0951 7.86686 14.1575 7.94868C14.2198 8.0305 14.2625 8.12559 14.2822 8.22658C14.3019 8.32757 14.2981 8.43174 14.271 8.531H12.978C12.9513 8.43152 12.9479 8.32724 12.9679 8.22622C12.988 8.1252 13.031 8.03013 13.0936 7.94837C13.1562 7.86661 13.2368 7.80033 13.3291 7.75467C13.4214 7.709 13.523 7.68516 13.626 7.685Z" fill="url(#paint77_radial_176_238)"/>
<path d="M13.2427 8.35475C13.2427 8.14175 13.4129 7.9715 13.6259 7.9715C13.6919 7.97113 13.7568 7.98781 13.8144 8.01993C13.872 8.05205 13.9203 8.09852 13.9546 8.15483C13.989 8.21113 14.0082 8.27535 14.0104 8.34127C14.0126 8.40718 13.9977 8.47254 13.9672 8.531H13.2884C13.2579 8.47734 13.2424 8.41647 13.2434 8.35475" fill="black"/>
<g filter="url(#filter24_f_176_238)">
<path d="M13.5772 7.82751C13.6244 7.89051 13.5247 7.96851 13.4122 8.05251C13.2982 8.13801 13.2142 8.19726 13.1662 8.13351C13.1189 8.06976 13.1722 7.94976 13.2854 7.86501C13.3979 7.78026 13.5292 7.76301 13.5772 7.82751Z" fill="#C7A7A3"/>
<path d="M13.5772 7.82751C13.6244 7.89051 13.5247 7.96851 13.4122 8.05251C13.2982 8.13801 13.2142 8.19726 13.1662 8.13351C13.1189 8.06976 13.1722 7.94976 13.2854 7.86501C13.3979 7.78026 13.5292 7.76301 13.5772 7.82751Z" fill="url(#paint78_radial_176_238)"/>
</g>
<g filter="url(#filter25_f_176_238)">
<path d="M14.2223 8.26699C14.2025 8.13589 14.1419 8.01438 14.049 7.91974L13.854 8.13349L13.9418 8.30449L14.2223 8.26699Z" fill="url(#paint79_linear_176_238)"/>
</g>
<path d="M10.1947 7.48175C9.70494 7.48175 9.29094 7.81925 9.17844 8.276C9.14544 8.4065 9.24594 8.531 9.37944 8.531H11.0527C11.078 8.53108 11.103 8.52558 11.1259 8.51492C11.1489 8.50425 11.1692 8.48866 11.1854 8.46927C11.2017 8.44987 11.2135 8.42714 11.22 8.40269C11.2264 8.37823 11.2275 8.35265 11.2229 8.32775C11.1758 8.08973 11.0477 7.87538 10.8604 7.72115C10.673 7.56692 10.4373 7.48233 10.1947 7.48175Z" fill="white"/>
<path d="M10.35 7.685C10.2471 7.68517 10.1456 7.70905 10.0535 7.75478C9.96131 7.80051 9.88092 7.86686 9.81854 7.94868C9.75616 8.0305 9.71346 8.12559 9.69377 8.22658C9.67408 8.32757 9.67793 8.43174 9.705 8.531H10.998C11.0132 8.47344 11.0215 8.41427 11.0228 8.35475C11.0212 8.17716 10.9497 8.00734 10.8237 7.88211C10.6978 7.75689 10.5276 7.68633 10.35 7.68575" fill="url(#paint80_radial_176_238)"/>
<path d="M10.7332 8.35475C10.7333 8.30446 10.7235 8.25464 10.7043 8.20815C10.6852 8.16165 10.657 8.1194 10.6215 8.0838C10.5859 8.0482 10.5437 8.01996 10.4973 8.00069C10.4508 7.98142 10.401 7.9715 10.3507 7.9715C10.2848 7.97113 10.2199 7.98781 10.1623 8.01993C10.1047 8.05205 10.0564 8.09852 10.022 8.15483C9.98767 8.21113 9.96847 8.27535 9.96628 8.34127C9.96408 8.40718 9.97897 8.47254 10.0095 8.531H10.6875C10.717 8.4769 10.7327 8.41637 10.7332 8.35475Z" fill="black"/>
<g filter="url(#filter26_f_176_238)">
<path d="M10.962 8.27601C10.962 8.06001 10.7857 7.91602 10.7385 7.87177L10.5217 8.08176L10.6552 8.35176L10.962 8.27601Z" fill="url(#paint81_linear_176_238)"/>
</g>
<g filter="url(#filter27_f_176_238)">
<path d="M10.2174 8.10169C10.3601 8.02607 10.4449 7.90631 10.4067 7.8342C10.3685 7.7621 10.2218 7.76495 10.079 7.84058C9.93628 7.9162 9.85152 8.03596 9.88973 8.10807C9.92793 8.18017 10.0746 8.17732 10.2174 8.10169Z" fill="#C7A7A3" fill-opacity="0.9"/>
<path d="M10.2174 8.10169C10.3601 8.02607 10.4449 7.90631 10.4067 7.8342C10.3685 7.7621 10.2218 7.76495 10.079 7.84058C9.93628 7.9162 9.85152 8.03596 9.88973 8.10807C9.92793 8.18017 10.0746 8.17732 10.2174 8.10169Z" fill="url(#paint82_radial_176_238)"/>
</g>
<path d="M15.6794 9.73625C15.7294 8.93825 15.7757 8.14025 15.8182 7.34225C16.1091 7.39416 16.3709 7.55092 16.5539 7.78287C16.737 8.01482 16.8287 8.30585 16.8116 8.60085C16.7945 8.89585 16.6698 9.17434 16.4612 9.38359C16.2525 9.59283 15.9744 9.71831 15.6794 9.73625Z" fill="url(#paint83_linear_176_238)"/>
<path d="M15.6794 9.73625C15.7294 8.93825 15.7757 8.14025 15.8182 7.34225C16.1091 7.39416 16.3709 7.55092 16.5539 7.78287C16.737 8.01482 16.8287 8.30585 16.8116 8.60085C16.7945 8.89585 16.6698 9.17434 16.4612 9.38359C16.2525 9.59283 15.9744 9.71831 15.6794 9.73625Z" fill="url(#paint84_radial_176_238)"/>
<path d="M15.6794 9.73625C15.7294 8.93825 15.7757 8.14025 15.8182 7.34225C16.1091 7.39416 16.3709 7.55092 16.5539 7.78287C16.737 8.01482 16.8287 8.30585 16.8116 8.60085C16.7945 8.89585 16.6698 9.17434 16.4612 9.38359C16.2525 9.59283 15.9744 9.71831 15.6794 9.73625Z" fill="url(#paint85_radial_176_238)"/>
<path d="M15.6794 9.73625C15.7294 8.93825 15.7757 8.14025 15.8182 7.34225C16.1091 7.39416 16.3709 7.55092 16.5539 7.78287C16.737 8.01482 16.8287 8.30585 16.8116 8.60085C16.7945 8.89585 16.6698 9.17434 16.4612 9.38359C16.2525 9.59283 15.9744 9.71831 15.6794 9.73625Z" fill="url(#paint86_radial_176_238)"/>
<path d="M8.20489 7.33624C7.91657 7.37722 7.65257 7.52039 7.46095 7.73968C7.26933 7.95897 7.16284 8.23979 7.16089 8.53099C7.16089 9.17599 7.66564 9.70174 8.30089 9.73624C8.25247 8.93698 8.22046 8.13682 8.20489 7.33624Z" fill="url(#paint87_linear_176_238)"/>
<path d="M8.20489 7.33624C7.91657 7.37722 7.65257 7.52039 7.46095 7.73968C7.26933 7.95897 7.16284 8.23979 7.16089 8.53099C7.16089 9.17599 7.66564 9.70174 8.30089 9.73624C8.25247 8.93698 8.22046 8.13682 8.20489 7.33624Z" fill="url(#paint88_radial_176_238)"/>
<g filter="url(#filter28_f_176_238)">
<path d="M8.17412 7.83124C8.01009 7.86826 7.86429 7.96176 7.76221 8.09539C7.66014 8.22902 7.60827 8.39427 7.61569 8.56227C7.62311 8.73026 7.68933 8.8903 7.80279 9.01441C7.91625 9.13853 8.06972 9.21881 8.23637 9.24124C8.20995 8.77151 8.1892 8.30147 8.17412 7.83124Z" fill="url(#paint89_radial_176_238)"/>
</g>
<g filter="url(#filter29_f_176_238)">
<path d="M15.7424 9.25251C15.7714 8.77751 15.7989 8.30176 15.8249 7.82526C16.0048 7.84854 16.1691 7.93912 16.2849 8.07873C16.4006 8.21834 16.4591 8.39663 16.4487 8.57767C16.4382 8.75872 16.3595 8.92908 16.2285 9.05443C16.0974 9.17979 15.9238 9.25009 15.7424 9.25251Z" fill="url(#paint90_linear_176_238)"/>
</g>
<g filter="url(#filter30_f_176_238)">
<path d="M9.45752 6.62375C9.65102 6.485 10.131 6.242 10.6995 6.338" stroke="#353535" stroke-width="0.125" stroke-linecap="round"/>
</g>
<g filter="url(#filter31_f_176_238)">
<path d="M14.6587 6.58925C14.466 6.4505 13.986 6.2075 13.4175 6.30275" stroke="#353535" stroke-width="0.125" stroke-linecap="round"/>
</g>
<g filter="url(#filter32_ii_176_238)">
<path d="M15.6255 6.87576H13.023C12.798 6.87576 12.588 6.98076 12.4455 7.15326C12.3997 7.21047 12.3415 7.25644 12.2752 7.28764C12.2089 7.31884 12.1363 7.33445 12.063 7.33326C11.9898 7.33445 11.9172 7.31884 11.8509 7.28764C11.7846 7.25644 11.7263 7.21047 11.6805 7.15326C11.538 6.98076 11.328 6.87576 11.103 6.87576H8.49304C8.35054 6.87576 8.23804 6.98826 8.23804 7.13076V7.29576C8.23804 7.37826 8.27554 7.44576 8.33554 7.49076C8.36554 7.51326 8.38804 7.55076 8.38804 7.58826V8.41326C8.38804 9.20076 9.02554 9.84576 9.82054 9.84576H10.353C11.1405 9.84576 11.7855 9.20826 11.7855 8.41326V7.95576C11.793 7.80576 11.913 7.69326 12.063 7.69326C12.213 7.69326 12.333 7.81326 12.3405 7.96326V8.41326C12.3405 9.20076 12.978 9.84576 13.773 9.84576H14.3055C15.093 9.84576 15.738 9.20826 15.738 8.41326V7.58076C15.738 7.54326 15.753 7.50576 15.783 7.48326C15.843 7.43826 15.8805 7.36326 15.8805 7.28826V7.13076C15.8805 6.98826 15.768 6.87576 15.6255 6.87576ZM11.5305 8.33826C11.5305 9.02076 10.9755 9.57576 10.293 9.57576H9.88054C9.19804 9.57576 8.64304 9.02076 8.64304 8.33826V7.79826C8.64304 7.43076 8.93554 7.13826 9.30304 7.13826H10.863C11.2305 7.13826 11.5305 7.43076 11.5305 7.79826V8.33826ZM15.4905 8.33826C15.4905 9.02076 14.9355 9.57576 14.253 9.57576H13.8405C13.158 9.57576 12.603 9.02076 12.603 8.33826V7.79826C12.603 7.43076 12.8955 7.13826 13.263 7.13826H14.8305C15.198 7.13826 15.4905 7.43076 15.4905 7.79826V8.33826Z" fill="url(#paint91_linear_176_238)"/>
<path d="M15.6255 6.87576H13.023C12.798 6.87576 12.588 6.98076 12.4455 7.15326C12.3997 7.21047 12.3415 7.25644 12.2752 7.28764C12.2089 7.31884 12.1363 7.33445 12.063 7.33326C11.9898 7.33445 11.9172 7.31884 11.8509 7.28764C11.7846 7.25644 11.7263 7.21047 11.6805 7.15326C11.538 6.98076 11.328 6.87576 11.103 6.87576H8.49304C8.35054 6.87576 8.23804 6.98826 8.23804 7.13076V7.29576C8.23804 7.37826 8.27554 7.44576 8.33554 7.49076C8.36554 7.51326 8.38804 7.55076 8.38804 7.58826V8.41326C8.38804 9.20076 9.02554 9.84576 9.82054 9.84576H10.353C11.1405 9.84576 11.7855 9.20826 11.7855 8.41326V7.95576C11.793 7.80576 11.913 7.69326 12.063 7.69326C12.213 7.69326 12.333 7.81326 12.3405 7.96326V8.41326C12.3405 9.20076 12.978 9.84576 13.773 9.84576H14.3055C15.093 9.84576 15.738 9.20826 15.738 8.41326V7.58076C15.738 7.54326 15.753 7.50576 15.783 7.48326C15.843 7.43826 15.8805 7.36326 15.8805 7.28826V7.13076C15.8805 6.98826 15.768 6.87576 15.6255 6.87576ZM11.5305 8.33826C11.5305 9.02076 10.9755 9.57576 10.293 9.57576H9.88054C9.19804 9.57576 8.64304 9.02076 8.64304 8.33826V7.79826C8.64304 7.43076 8.93554 7.13826 9.30304 7.13826H10.863C11.2305 7.13826 11.5305 7.43076 11.5305 7.79826V8.33826ZM15.4905 8.33826C15.4905 9.02076 14.9355 9.57576 14.253 9.57576H13.8405C13.158 9.57576 12.603 9.02076 12.603 8.33826V7.79826C12.603 7.43076 12.8955 7.13826 13.263 7.13826H14.8305C15.198 7.13826 15.4905 7.43076 15.4905 7.79826V8.33826Z" fill="url(#paint92_radial_176_238)"/>
</g>
<defs>
<filter id="filter0_i_176_238" x="1.50293" y="3.50824" width="20.9854" height="15.7933" filterUnits="userSpaceOnUse" color-interpolation-filters="sRGB">
<feFlood flood-opacity="0" result="BackgroundImageFix"/>
<feBlend mode="normal" in="SourceGraphic" in2="BackgroundImageFix" result="shape"/>
<feColorMatrix in="SourceAlpha" type="matrix" values="0 0 0 0 0 0 0 0 0 0 0 0 0 0 0 0 0 0 127 0" result="hardAlpha"/>
<feOffset dy="0.05"/>
<feGaussianBlur stdDeviation="0.05"/>
<feComposite in2="hardAlpha" operator="arithmetic" k2="-1" k3="1"/>
<feColorMatrix type="matrix" values="0 0 0 0 0.81585 0 0 0 0 0.641744 0 0 0 0 0.41905 0 0 0 1 0"/>
<feBlend mode="normal" in2="shape" result="effect1_innerShadow_176_238"/>
</filter>
<filter id="filter1_f_176_238" x="2.13911" y="3.52873" width="20.2833" height="15.3138" filterUnits="userSpaceOnUse" color-interpolation-filters="sRGB">
<feFlood flood-opacity="0" result="BackgroundImageFix"/>
<feBlend mode="normal" in="SourceGraphic" in2="BackgroundImageFix" result="shape"/>
<feGaussianBlur stdDeviation="0.1" result="effect1_foregroundBlur_176_238"/>
</filter>
<filter id="filter2_i_176_238" x="1.50293" y="3.59899" width="20.9326" height="15.645" filterUnits="userSpaceOnUse" color-interpolation-filters="sRGB">
<feFlood flood-opacity="0" result="BackgroundImageFix"/>
<feBlend mode="normal" in="SourceGraphic" in2="BackgroundImageFix" result="shape"/>
<feColorMatrix in="SourceAlpha" type="matrix" values="0 0 0 0 0 0 0 0 0 0 0 0 0 0 0 0 0 0 127 0" result="hardAlpha"/>
<feOffset dy="-0.15"/>
<feGaussianBlur stdDeviation="0.1"/>
<feComposite in2="hardAlpha" operator="arithmetic" k2="-1" k3="1"/>
<feColorMatrix type="matrix" values="0 0 0 0 0.85098 0 0 0 0 0.482353 0 0 0 0 0.647059 0 0 0 1 0"/>
<feBlend mode="normal" in2="shape" result="effect1_innerShadow_176_238"/>
</filter>
<filter id="filter3_i_176_238" x="13.5405" y="12.5033" width="2.09766" height="10.505" filterUnits="userSpaceOnUse" color-interpolation-filters="sRGB">
<feFlood flood-opacity="0" result="BackgroundImageFix"/>
<feBlend mode="normal" in="SourceGraphic" in2="BackgroundImageFix" result="shape"/>
<feColorMatrix in="SourceAlpha" type="matrix" values="0 0 0 0 0 0 0 0 0 0 0 0 0 0 0 0 0 0 127 0" result="hardAlpha"/>
<feOffset dy="-0.05"/>
<feGaussianBlur stdDeviation="0.0625"/>
<feComposite in2="hardAlpha" operator="arithmetic" k2="-1" k3="1"/>
<feColorMatrix type="matrix" values="0 0 0 0 0.380392 0 0 0 0 0.164706 0 0 0 0 0.203922 0 0 0 1 0"/>
<feBlend mode="normal" in2="shape" result="effect1_innerShadow_176_238"/>
</filter>
<filter id="filter4_i_176_238" x="8.36035" y="12.5033" width="2.09766" height="10.505" filterUnits="userSpaceOnUse" color-interpolation-filters="sRGB">
<feFlood flood-opacity="0" result="BackgroundImageFix"/>
<feBlend mode="normal" in="SourceGraphic" in2="BackgroundImageFix" result="shape"/>
<feColorMatrix in="SourceAlpha" type="matrix" values="0 0 0 0 0 0 0 0 0 0 0 0 0 0 0 0 0 0 127 0" result="hardAlpha"/>
<feOffset dy="-0.05"/>
<feGaussianBlur stdDeviation="0.0625"/>
<feComposite in2="hardAlpha" operator="arithmetic" k2="-1" k3="1"/>
<feColorMatrix type="matrix" values="0 0 0 0 0.380392 0 0 0 0 0.164706 0 0 0 0 0.203922 0 0 0 1 0"/>
<feBlend mode="normal" in2="shape" result="effect1_innerShadow_176_238"/>
</filter>
<filter id="filter5_i_176_238" x="15.7359" y="17.84" width="1.55" height="2.5175" filterUnits="userSpaceOnUse" color-interpolation-filters="sRGB">
<feFlood flood-opacity="0" result="BackgroundImageFix"/>
<feBlend mode="normal" in="SourceGraphic" in2="BackgroundImageFix" result="shape"/>
<feColorMatrix in="SourceAlpha" type="matrix" values="0 0 0 0 0 0 0 0 0 0 0 0 0 0 0 0 0 0 127 0" result="hardAlpha"/>
<feOffset dx="-0.05" dy="0.05"/>
<feGaussianBlur stdDeviation="0.05"/>
<feComposite in2="hardAlpha" operator="arithmetic" k2="-1" k3="1"/>
<feColorMatrix type="matrix" values="0 0 0 0 0.968627 0 0 0 0 0.803922 0 0 0 0 0.713726 0 0 0 1 0"/>
<feBlend mode="normal" in2="shape" result="effect1_innerShadow_176_238"/>
</filter>
<filter id="filter6_i_176_238" x="6.7124" y="17.834" width="1.55" height="2.4675" filterUnits="userSpaceOnUse" color-interpolation-filters="sRGB">
<feFlood flood-opacity="0" result="BackgroundImageFix"/>
<feBlend mode="normal" in="SourceGraphic" in2="BackgroundImageFix" result="shape"/>
<feColorMatrix in="SourceAlpha" type="matrix" values="0 0 0 0 0 0 0 0 0 0 0 0 0 0 0 0 0 0 127 0" result="hardAlpha"/>
<feOffset dx="0.05"/>
<feGaussianBlur stdDeviation="0.0625"/>
<feComposite in2="hardAlpha" operator="arithmetic" k2="-1" k3="1"/>
<feColorMatrix type="matrix" values="0 0 0 0 0.886275 0 0 0 0 0.670588 0 0 0 0 0.588235 0 0 0 1 0"/>
<feBlend mode="normal" in2="shape" result="effect1_innerShadow_176_238"/>
</filter>
<filter id="filter7_i_176_238" x="6.71313" y="18.9658" width="3.49541" height="4.04324" filterUnits="userSpaceOnUse" color-interpolation-filters="sRGB">
<feFlood flood-opacity="0" result="BackgroundImageFix"/>
<feBlend mode="normal" in="SourceGraphic" in2="BackgroundImageFix" result="shape"/>
<feColorMatrix in="SourceAlpha" type="matrix" values="0 0 0 0 0 0 0 0 0 0 0 0 0 0 0 0 0 0 127 0" result="hardAlpha"/>
<feOffset dx="0.2"/>
<feGaussianBlur stdDeviation="0.125"/>
<feComposite in2="hardAlpha" operator="arithmetic" k2="-1" k3="1"/>
<feColorMatrix type="matrix" values="0 0 0 0 0.882353 0 0 0 0 0.670588 0 0 0 0 0.603922 0 0 0 1 0"/>
<feBlend mode="normal" in2="shape" result="effect1_innerShadow_176_238"/>
</filter>
<filter id="filter8_ii_176_238" x="13.8905" y="18.8658" width="3.49541" height="4.14324" filterUnits="userSpaceOnUse" color-interpolation-filters="sRGB">
<feFlood flood-opacity="0" result="BackgroundImageFix"/>
<feBlend mode="normal" in="SourceGraphic" in2="BackgroundImageFix" result="shape"/>
<feColorMatrix in="SourceAlpha" type="matrix" values="0 0 0 0 0 0 0 0 0 0 0 0 0 0 0 0 0 0 127 0" result="hardAlpha"/>
<feOffset dx="0.1" dy="-0.1"/>
<feGaussianBlur stdDeviation="0.125"/>
<feComposite in2="hardAlpha" operator="arithmetic" k2="-1" k3="1"/>
<feColorMatrix type="matrix" values="0 0 0 0 0.74902 0 0 0 0 0.490196 0 0 0 0 0.478431 0 0 0 1 0"/>
<feBlend mode="normal" in2="shape" result="effect1_innerShadow_176_238"/>
<feColorMatrix in="SourceAlpha" type="matrix" values="0 0 0 0 0 0 0 0 0 0 0 0 0 0 0 0 0 0 127 0" result="hardAlpha"/>
<feOffset dx="-0.1"/>
<feGaussianBlur stdDeviation="0.1"/>
<feComposite in2="hardAlpha" operator="arithmetic" k2="-1" k3="1"/>
<feColorMatrix type="matrix" values="0 0 0 0 0.956863 0 0 0 0 0.796078 0 0 0 0 0.721569 0 0 0 1 0"/>
<feBlend mode="normal" in2="effect1_innerShadow_176_238" result="effect2_innerShadow_176_238"/>
</filter>
<filter id="filter9_f_176_238" x="14.1922" y="19.9625" width="1.59146" height="0.149988" filterUnits="userSpaceOnUse" color-interpolation-filters="sRGB">
<feFlood flood-opacity="0" result="BackgroundImageFix"/>
<feBlend mode="normal" in="SourceGraphic" in2="BackgroundImageFix" result="shape"/>
<feGaussianBlur stdDeviation="0.025" result="effect1_foregroundBlur_176_238"/>
</filter>
<filter id="filter10_f_176_238" x="8.1834" y="19.9625" width="1.59072" height="0.149988" filterUnits="userSpaceOnUse" color-interpolation-filters="sRGB">
<feFlood flood-opacity="0" result="BackgroundImageFix"/>
<feBlend mode="normal" in="SourceGraphic" in2="BackgroundImageFix" result="shape"/>
<feGaussianBlur stdDeviation="0.025" result="effect1_foregroundBlur_176_238"/>
</filter>
<filter id="filter11_f_176_238" x="14.1922" y="20.912" width="1.59146" height="0.149988" filterUnits="userSpaceOnUse" color-interpolation-filters="sRGB">
<feFlood flood-opacity="0" result="BackgroundImageFix"/>
<feBlend mode="normal" in="SourceGraphic" in2="BackgroundImageFix" result="shape"/>
<feGaussianBlur stdDeviation="0.025" result="effect1_foregroundBlur_176_238"/>
</filter>
<filter id="filter12_f_176_238" x="8.1834" y="20.912" width="1.59072" height="0.149988" filterUnits="userSpaceOnUse" color-interpolation-filters="sRGB">
<feFlood flood-opacity="0" result="BackgroundImageFix"/>
<feBlend mode="normal" in="SourceGraphic" in2="BackgroundImageFix" result="shape"/>
<feGaussianBlur stdDeviation="0.025" result="effect1_foregroundBlur_176_238"/>
</filter>
<filter id="filter13_f_176_238" x="14.1922" y="21.8615" width="1.59146" height="0.149988" filterUnits="userSpaceOnUse" color-interpolation-filters="sRGB">
<feFlood flood-opacity="0" result="BackgroundImageFix"/>
<feBlend mode="normal" in="SourceGraphic" in2="BackgroundImageFix" result="shape"/>
<feGaussianBlur stdDeviation="0.025" result="effect1_foregroundBlur_176_238"/>
</filter>
<filter id="filter14_f_176_238" x="8.1834" y="21.8615" width="1.59072" height="0.149988" filterUnits="userSpaceOnUse" color-interpolation-filters="sRGB">
<feFlood flood-opacity="0" result="BackgroundImageFix"/>
<feBlend mode="normal" in="SourceGraphic" in2="BackgroundImageFix" result="shape"/>
<feGaussianBlur stdDeviation="0.025" result="effect1_foregroundBlur_176_238"/>
</filter>
<filter id="filter15_ii_176_238" x="8.19141" y="4.10223" width="8.16504" height="9.3565" filterUnits="userSpaceOnUse" color-interpolation-filters="sRGB">
<feFlood flood-opacity="0" result="BackgroundImageFix"/>
<feBlend mode="normal" in="SourceGraphic" in2="BackgroundImageFix" result="shape"/>
<feColorMatrix in="SourceAlpha" type="matrix" values="0 0 0 0 0 0 0 0 0 0 0 0 0 0 0 0 0 0 127 0" result="hardAlpha"/>
<feOffset dx="0.5"/>
<feGaussianBlur stdDeviation="0.35"/>
<feComposite in2="hardAlpha" operator="arithmetic" k2="-1" k3="1"/>
<feColorMatrix type="matrix" values="0 0 0 0 0.913725 0 0 0 0 0.686275 0 0 0 0 0.592157 0 0 0 1 0"/>
<feBlend mode="normal" in2="shape" result="effect1_innerShadow_176_238"/>
<feColorMatrix in="SourceAlpha" type="matrix" values="0 0 0 0 0 0 0 0 0 0 0 0 0 0 0 0 0 0 127 0" result="hardAlpha"/>
<feOffset dy="0.1"/>
<feGaussianBlur stdDeviation="0.1875"/>
<feComposite in2="hardAlpha" operator="arithmetic" k2="-1" k3="1"/>
<feColorMatrix type="matrix" values="0 0 0 0 0.780392 0 0 0 0 0.568627 0 0 0 0 0.486275 0 0 0 1 0"/>
<feBlend mode="normal" in2="effect1_innerShadow_176_238" result="effect2_innerShadow_176_238"/>
</filter>
<filter id="filter16_f_176_238" x="10.7266" y="7.60855" width="2.31006" height="3.1752" filterUnits="userSpaceOnUse" color-interpolation-filters="sRGB">
<feFlood flood-opacity="0" result="BackgroundImageFix"/>
<feBlend mode="normal" in="SourceGraphic" in2="BackgroundImageFix" result="shape"/>
<feGaussianBlur stdDeviation="0.25" result="effect1_foregroundBlur_176_238"/>
</filter>
<filter id="filter17_f_176_238" x="11.1839" y="7.8653" width="1.6082" height="2.3752" filterUnits="userSpaceOnUse" color-interpolation-filters="sRGB">
<feFlood flood-opacity="0" result="BackgroundImageFix"/>
<feBlend mode="normal" in="SourceGraphic" in2="BackgroundImageFix" result="shape"/>
<feGaussianBlur stdDeviation="0.05" result="effect1_foregroundBlur_176_238"/>
</filter>
<filter id="filter18_f_176_238" x="10.6375" y="10.4999" width="2.70083" height="1.09164" filterUnits="userSpaceOnUse" color-interpolation-filters="sRGB">
<feFlood flood-opacity="0" result="BackgroundImageFix"/>
<feBlend mode="normal" in="SourceGraphic" in2="BackgroundImageFix" result="shape"/>
<feGaussianBlur stdDeviation="0.025" result="effect1_foregroundBlur_176_238"/>
</filter>
<filter id="filter19_ii_176_238" x="7.16113" y="1.84375" width="9.65405" height="6.14276" filterUnits="userSpaceOnUse" color-interpolation-filters="sRGB">
<feFlood flood-opacity="0" result="BackgroundImageFix"/>
<feBlend mode="normal" in="SourceGraphic" in2="BackgroundImageFix" result="shape"/>
<feColorMatrix in="SourceAlpha" type="matrix" values="0 0 0 0 0 0 0 0 0 0 0 0 0 0 0 0 0 0 127 0" result="hardAlpha"/>
<feOffset dy="-0.25"/>
<feGaussianBlur stdDeviation="0.3125"/>
<feComposite in2="hardAlpha" operator="arithmetic" k2="-1" k3="1"/>
<feColorMatrix type="matrix" values="0 0 0 0 0.137255 0 0 0 0 0.0901961 0 0 0 0 0.145098 0 0 0 1 0"/>
<feBlend mode="normal" in2="shape" result="effect1_innerShadow_176_238"/>
<feColorMatrix in="SourceAlpha" type="matrix" values="0 0 0 0 0 0 0 0 0 0 0 0 0 0 0 0 0 0 127 0" result="hardAlpha"/>
<feOffset dy="-0.1"/>
<feGaussianBlur stdDeviation="0.1"/>
<feComposite in2="hardAlpha" operator="arithmetic" k2="-1" k3="1"/>
<feColorMatrix type="matrix" values="0 0 0 0 0.0784314 0 0 0 0 0.0352941 0 0 0 0 0.0470588 0 0 0 1 0"/>
<feBlend mode="normal" in2="effect1_innerShadow_176_238" result="effect2_innerShadow_176_238"/>
</filter>
<filter id="filter20_i_176_238" x="13.1799" y="6.01761" width="1.72896" height="0.842493" filterUnits="userSpaceOnUse" color-interpolation-filters="sRGB">
<feFlood flood-opacity="0" result="BackgroundImageFix"/>
<feBlend mode="normal" in="SourceGraphic" in2="BackgroundImageFix" result="shape"/>
<feColorMatrix in="SourceAlpha" type="matrix" values="0 0 0 0 0 0 0 0 0 0 0 0 0 0 0 0 0 0 127 0" result="hardAlpha"/>
<feOffset dx="0.05" dy="-0.1"/>
<feGaussianBlur stdDeviation="0.0625"/>
<feComposite in2="hardAlpha" operator="arithmetic" k2="-1" k3="1"/>
<feColorMatrix type="matrix" values="0 0 0 0 0.0588235 0 0 0 0 0.054902 0 0 0 0 0.0588235 0 0 0 1 0"/>
<feBlend mode="normal" in2="shape" result="effect1_innerShadow_176_238"/>
</filter>
<filter id="filter21_i_176_238" x="9.2373" y="6.02827" width="1.72969" height="0.832605" filterUnits="userSpaceOnUse" color-interpolation-filters="sRGB">
<feFlood flood-opacity="0" result="BackgroundImageFix"/>
<feBlend mode="normal" in="SourceGraphic" in2="BackgroundImageFix" result="shape"/>
<feColorMatrix in="SourceAlpha" type="matrix" values="0 0 0 0 0 0 0 0 0 0 0 0 0 0 0 0 0 0 127 0" result="hardAlpha"/>
<feOffset dx="0.05" dy="-0.1"/>
<feGaussianBlur stdDeviation="0.0625"/>
<feComposite in2="hardAlpha" operator="arithmetic" k2="-1" k3="1"/>
<feColorMatrix type="matrix" values="0 0 0 0 0.0588235 0 0 0 0 0.054902 0 0 0 0 0.0588235 0 0 0 1 0"/>
<feBlend mode="normal" in2="shape" result="effect1_innerShadow_176_238"/>
</filter>
<filter id="filter22_if_176_238" x="7.48975" y="2.59848" width="4.88872" height="4.36929" filterUnits="userSpaceOnUse" color-interpolation-filters="sRGB">
<feFlood flood-opacity="0" result="BackgroundImageFix"/>
<feBlend mode="normal" in="SourceGraphic" in2="BackgroundImageFix" result="shape"/>
<feColorMatrix in="SourceAlpha" type="matrix" values="0 0 0 0 0 0 0 0 0 0 0 0 0 0 0 0 0 0 127 0" result="hardAlpha"/>
<feOffset dx="0.2" dy="0.1"/>
<feGaussianBlur stdDeviation="0.1"/>
<feComposite in2="hardAlpha" operator="arithmetic" k2="-1" k3="1"/>
<feColorMatrix type="matrix" values="0 0 0 0 0.286275 0 0 0 0 0.243137 0 0 0 0 0.227451 0 0 0 1 0"/>
<feBlend mode="normal" in2="shape" result="effect1_innerShadow_176_238"/>
<feGaussianBlur stdDeviation="0.0625" result="effect2_foregroundBlur_176_238"/>
</filter>
<filter id="filter23_f_176_238" x="11.9312" y="2.91666" width="4.64648" height="4.17709" filterUnits="userSpaceOnUse" color-interpolation-filters="sRGB">
<feFlood flood-opacity="0" result="BackgroundImageFix"/>
<feBlend mode="normal" in="SourceGraphic" in2="BackgroundImageFix" result="shape"/>
<feGaussianBlur stdDeviation="0.0625" result="effect1_foregroundBlur_176_238"/>
</filter>
<filter id="filter24_f_176_238" x="13.0989" y="7.73842" width="0.540186" height="0.471887" filterUnits="userSpaceOnUse" color-interpolation-filters="sRGB">
<feFlood flood-opacity="0" result="BackgroundImageFix"/>
<feBlend mode="normal" in="SourceGraphic" in2="BackgroundImageFix" result="shape"/>
<feGaussianBlur stdDeviation="0.025" result="effect1_foregroundBlur_176_238"/>
</filter>
<filter id="filter25_f_176_238" x="13.754" y="7.81974" width="0.568164" height="0.584766" filterUnits="userSpaceOnUse" color-interpolation-filters="sRGB">
<feFlood flood-opacity="0" result="BackgroundImageFix"/>
<feBlend mode="normal" in="SourceGraphic" in2="BackgroundImageFix" result="shape"/>
<feGaussianBlur stdDeviation="0.05" result="effect1_foregroundBlur_176_238"/>
</filter>
<filter id="filter26_f_176_238" x="10.4217" y="7.77177" width="0.640186" height="0.680011" filterUnits="userSpaceOnUse" color-interpolation-filters="sRGB">
<feFlood flood-opacity="0" result="BackgroundImageFix"/>
<feBlend mode="normal" in="SourceGraphic" in2="BackgroundImageFix" result="shape"/>
<feGaussianBlur stdDeviation="0.05" result="effect1_foregroundBlur_176_238"/>
</filter>
<filter id="filter27_f_176_238" x="9.83062" y="7.73192" width="0.635156" height="0.478418" filterUnits="userSpaceOnUse" color-interpolation-filters="sRGB">
<feFlood flood-opacity="0" result="BackgroundImageFix"/>
<feBlend mode="normal" in="SourceGraphic" in2="BackgroundImageFix" result="shape"/>
<feGaussianBlur stdDeviation="0.025" result="effect1_foregroundBlur_176_238"/>
</filter>
<filter id="filter28_f_176_238" x="7.48999" y="7.70624" width="0.871338" height="1.66" filterUnits="userSpaceOnUse" color-interpolation-filters="sRGB">
<feFlood flood-opacity="0" result="BackgroundImageFix"/>
<feBlend mode="normal" in="SourceGraphic" in2="BackgroundImageFix" result="shape"/>
<feGaussianBlur stdDeviation="0.0625" result="effect1_foregroundBlur_176_238"/>
</filter>
<filter id="filter29_f_176_238" x="15.4924" y="7.57526" width="1.20752" height="1.92725" filterUnits="userSpaceOnUse" color-interpolation-filters="sRGB">
<feFlood flood-opacity="0" result="BackgroundImageFix"/>
<feBlend mode="normal" in="SourceGraphic" in2="BackgroundImageFix" result="shape"/>
<feGaussianBlur stdDeviation="0.125" result="effect1_foregroundBlur_176_238"/>
</filter>
<filter id="filter30_f_176_238" x="9.27002" y="6.1286" width="1.61694" height="0.682648" filterUnits="userSpaceOnUse" color-interpolation-filters="sRGB">
<feFlood flood-opacity="0" result="BackgroundImageFix"/>
<feBlend mode="normal" in="SourceGraphic" in2="BackgroundImageFix" result="shape"/>
<feGaussianBlur stdDeviation="0.0625" result="effect1_foregroundBlur_176_238"/>
</filter>
<filter id="filter31_f_176_238" x="13.23" y="6.09366" width="1.61621" height="0.683105" filterUnits="userSpaceOnUse" color-interpolation-filters="sRGB">
<feFlood flood-opacity="0" result="BackgroundImageFix"/>
<feBlend mode="normal" in="SourceGraphic" in2="BackgroundImageFix" result="shape"/>
<feGaussianBlur stdDeviation="0.0625" result="effect1_foregroundBlur_176_238"/>
</filter>
<filter id="filter32_ii_176_238" x="8.18804" y="6.82576" width="7.69258" height="3.07" filterUnits="userSpaceOnUse" color-interpolation-filters="sRGB">
<feFlood flood-opacity="0" result="BackgroundImageFix"/>
<feBlend mode="normal" in="SourceGraphic" in2="BackgroundImageFix" result="shape"/>
<feColorMatrix in="SourceAlpha" type="matrix" values="0 0 0 0 0 0 0 0 0 0 0 0 0 0 0 0 0 0 127 0" result="hardAlpha"/>
<feOffset dx="-0.05" dy="0.05"/>
<feGaussianBlur stdDeviation="0.05"/>
<feComposite in2="hardAlpha" operator="arithmetic" k2="-1" k3="1"/>
<feColorMatrix type="matrix" values="0 0 0 0 0.381221 0 0 0 0 0.2699 0 0 0 0 0.482422 0 0 0 1 0"/>
<feBlend mode="normal" in2="shape" result="effect1_innerShadow_176_238"/>
<feColorMatrix in="SourceAlpha" type="matrix" values="0 0 0 0 0 0 0 0 0 0 0 0 0 0 0 0 0 0 127 0" result="hardAlpha"/>
<feOffset dy="-0.05"/>
<feGaussianBlur stdDeviation="0.025"/>
<feComposite in2="hardAlpha" operator="arithmetic" k2="-1" k3="1"/>
<feColorMatrix type="matrix" values="0 0 0 0 0.2 0 0 0 0 0.109804 0 0 0 0 0.211765 0 0 0 1 0"/>
<feBlend mode="normal" in2="effect1_innerShadow_176_238" result="effect2_innerShadow_176_238"/>
</filter>
<linearGradient id="paint0_linear_176_238" x1="8.86418" y1="3.96499" x2="23.4457" y2="17.642" gradientUnits="userSpaceOnUse">
<stop stop-color="#EFBE85"/>
<stop offset="0.568" stop-color="#E8AC81"/>
<stop offset="1" stop-color="#D6753D"/>
</linearGradient>
<linearGradient id="paint1_linear_176_238" x1="22.5472" y1="10.481" x2="6.84368" y2="10.481" gradientUnits="userSpaceOnUse">
<stop stop-color="#509245"/>
<stop offset="1" stop-color="#44803D"/>
</linearGradient>
<radialGradient id="paint2_radial_176_238" cx="0" cy="0" r="1" gradientUnits="userSpaceOnUse" gradientTransform="translate(4.82837 19.8096) rotate(-56.746) scale(13.6772 18.7189)">
<stop stop-color="#25585F"/>
<stop offset="1" stop-color="#25585F" stop-opacity="0"/>
</radialGradient>
<radialGradient id="paint3_radial_176_238" cx="0" cy="0" r="1" gradientUnits="userSpaceOnUse" gradientTransform="translate(22.1722 19.622) rotate(-125.417) scale(12.9416 12.8011)">
<stop stop-color="#358175"/>
<stop offset="1" stop-color="#358175" stop-opacity="0"/>
</radialGradient>
<linearGradient id="paint4_linear_176_238" x1="10.0783" y1="3.17074" x2="23.4373" y2="18.7797" gradientUnits="userSpaceOnUse">
<stop stop-color="#FFD59C"/>
<stop offset="1" stop-color="#F69C5B"/>
</linearGradient>
<linearGradient id="paint5_linear_176_238" x1="-3.67957" y1="19.739" x2="21.6794" y2="19.739" gradientUnits="userSpaceOnUse">
<stop stop-color="#D18F7B"/>
<stop offset="1" stop-color="#F1B58B"/>
</linearGradient>
<linearGradient id="paint6_linear_176_238" x1="2.32043" y1="4.41124" x2="2.32043" y2="18.239" gradientUnits="userSpaceOnUse">
<stop stop-color="#D78248"/>
<stop offset="1" stop-color="#D78248" stop-opacity="0"/>
</linearGradient>
<radialGradient id="paint7_radial_176_238" cx="0" cy="0" r="1" gradientUnits="userSpaceOnUse" gradientTransform="translate(1.50293 3.74899) rotate(90) scale(6.98354 0.46323)">
<stop offset="0.355" stop-color="#BC7B53"/>
<stop offset="1" stop-color="#BC7B53" stop-opacity="0"/>
</radialGradient>
<radialGradient id="paint8_radial_176_238" cx="0" cy="0" r="1" gradientUnits="userSpaceOnUse" gradientTransform="translate(11.9999 12.4738) rotate(90) scale(10.5352 4.66399)">
<stop stop-color="#61342D"/>
<stop offset="1" stop-color="#764747"/>
</radialGradient>
<radialGradient id="paint9_radial_176_238" cx="0" cy="0" r="1" gradientUnits="userSpaceOnUse" gradientTransform="translate(16.9919 15.872) rotate(90) scale(6.28125 2.20312)">
<stop stop-color="#9A6D66"/>
<stop offset="1" stop-color="#9A6D66" stop-opacity="0"/>
</radialGradient>
<radialGradient id="paint10_radial_176_238" cx="0" cy="0" r="1" gradientUnits="userSpaceOnUse" gradientTransform="translate(9.53993 14.8183) rotate(135) scale(1.62414 1.30926)">
<stop stop-color="#61332B"/>
<stop offset="1" stop-color="#61332B" stop-opacity="0"/>
</radialGradient>
<radialGradient id="paint11_radial_176_238" cx="0" cy="0" r="1" gradientUnits="userSpaceOnUse" gradientTransform="translate(20.2454 21.6845) rotate(-90) scale(7.64062 2.88829)">
<stop stop-color="#7C5A5A"/>
<stop offset="1" stop-color="#735451"/>
</radialGradient>
<linearGradient id="paint12_linear_176_238" x1="18.8804" y1="23.3495" x2="18.8804" y2="20.4868" gradientUnits="userSpaceOnUse">
<stop stop-color="#614451"/>
<stop offset="1" stop-color="#614451" stop-opacity="0"/>
</linearGradient>
<linearGradient id="paint13_linear_176_238" x1="16.8044" y1="22.4578" x2="17.4141" y2="22.4465" gradientUnits="userSpaceOnUse">
<stop offset="0.254" stop-color="#4F2737"/>
<stop offset="1" stop-color="#4F2737" stop-opacity="0"/>
</linearGradient>
<linearGradient id="paint14_linear_176_238" x1="5.35048" y1="21.6193" x2="7.14673" y2="21.6193" gradientUnits="userSpaceOnUse">
<stop stop-color="#623D44"/>
<stop offset="1" stop-color="#4F2E37"/>
</linearGradient>
<radialGradient id="paint15_radial_176_238" cx="0" cy="0" r="1" gradientUnits="userSpaceOnUse" gradientTransform="translate(8.59348 22.8463) rotate(180) scale(5.19051 12.9605)">
<stop offset="0.576" stop-color="#5D3841" stop-opacity="0"/>
<stop offset="1" stop-color="#7F6260"/>
</radialGradient>
<radialGradient id="paint16_radial_176_238" cx="0" cy="0" r="1" gradientUnits="userSpaceOnUse" gradientTransform="translate(11.391 15.731) scale(2.69531 8.84767)">
<stop stop-color="#ABA5A8"/>
<stop offset="1" stop-color="#544B50"/>
</radialGradient>
<linearGradient id="paint17_linear_176_238" x1="13.5405" y1="14.2895" x2="15.6383" y2="14.2895" gradientUnits="userSpaceOnUse">
<stop stop-color="#613327"/>
<stop offset="0.371" stop-color="#764440"/>
</linearGradient>
<radialGradient id="paint18_radial_176_238" cx="0" cy="0" r="1" gradientUnits="userSpaceOnUse" gradientTransform="translate(15.9233 15.0913) rotate(-115.221) scale(2.80535 1.6969)">
<stop stop-color="#90645E"/>
<stop offset="1" stop-color="#90645E" stop-opacity="0"/>
</radialGradient>
<radialGradient id="paint19_radial_176_238" cx="0" cy="0" r="1" gradientUnits="userSpaceOnUse" gradientTransform="translate(14.7533 15.8483) rotate(-125.283) scale(1.22742 0.223545)">
<stop stop-color="#8A5D57"/>
<stop offset="1" stop-color="#8A5D57" stop-opacity="0"/>
</radialGradient>
<radialGradient id="paint20_radial_176_238" cx="0" cy="0" r="1" gradientUnits="userSpaceOnUse" gradientTransform="translate(13.4754 12.8598) rotate(69.677) scale(0.712305 1.33332)">
<stop offset="0.359" stop-color="#481E13"/>
<stop offset="1" stop-color="#4A1D14" stop-opacity="0"/>
</radialGradient>
<linearGradient id="paint21_linear_176_238" x1="10.458" y1="14.2895" x2="8.3602" y2="14.2895" gradientUnits="userSpaceOnUse">
<stop stop-color="#744036"/>
<stop offset="0.639" stop-color="#72433E"/>
</linearGradient>
<radialGradient id="paint22_radial_176_238" cx="0" cy="0" r="1" gradientUnits="userSpaceOnUse" gradientTransform="translate(10.137 15.7775) rotate(-88.8542) scale(2.34422 0.946929)">
<stop stop-color="#875955"/>
<stop offset="1" stop-color="#875955" stop-opacity="0"/>
</radialGradient>
<linearGradient id="paint23_linear_176_238" x1="9.0817" y1="13.2118" x2="9.50395" y2="13.376" gradientUnits="userSpaceOnUse">
<stop stop-color="#6F5048"/>
<stop offset="1" stop-color="#6F5048" stop-opacity="0"/>
</linearGradient>
<radialGradient id="paint24_radial_176_238" cx="0" cy="0" r="1" gradientUnits="userSpaceOnUse" gradientTransform="translate(10.5232 12.86) rotate(115.115) scale(0.828309 1.55045)">
<stop offset="0.219" stop-color="#481E13"/>
<stop offset="1" stop-color="#4A1D14" stop-opacity="0"/>
</radialGradient>
<radialGradient id="paint25_radial_176_238" cx="0" cy="0" r="1" gradientUnits="userSpaceOnUse" gradientTransform="translate(12.0046 13.4363) rotate(90) scale(2.10826 1.54222)">
<stop offset="0.298" stop-color="#A87366"/>
<stop offset="1" stop-color="#875841"/>
</radialGradient>
<radialGradient id="paint26_radial_176_238" cx="0" cy="0" r="1" gradientUnits="userSpaceOnUse" gradientTransform="translate(16.9776 18.3365) rotate(136.93) scale(1.15904 1.6697)">
<stop offset="0.28" stop-color="#E9BDA6"/>
<stop offset="1" stop-color="#DDA88B"/>
</radialGradient>
<radialGradient id="paint27_radial_176_238" cx="0" cy="0" r="1" gradientUnits="userSpaceOnUse" gradientTransform="translate(17.0841 18.1257) rotate(-40.3996) scale(0.609637 0.363152)">
<stop stop-color="#FCD2BC"/>
<stop offset="1" stop-color="#FCD2BC" stop-opacity="0"/>
</radialGradient>
<radialGradient id="paint28_radial_176_238" cx="0" cy="0" r="1" gradientUnits="userSpaceOnUse" gradientTransform="translate(8.3204 18.518) rotate(-170.853) scale(1.40062 4.38862)">
<stop stop-color="#B88165"/>
<stop offset="1" stop-color="#CD9A86"/>
</radialGradient>
<linearGradient id="paint29_linear_176_238" x1="16.3829" y1="19.106" x2="13.1016" y2="19.106" gradientUnits="userSpaceOnUse">
<stop stop-color="#E9266F"/>
<stop offset="1" stop-color="#BF1B74"/>
</linearGradient>
<linearGradient id="paint30_linear_176_238" x1="7.73535" y1="18.1925" x2="8.05635" y2="18.1925" gradientUnits="userSpaceOnUse">
<stop stop-color="#6D6670"/>
<stop offset="1" stop-color="#6D6670" stop-opacity="0"/>
</linearGradient>
<linearGradient id="paint31_linear_176_238" x1="9.64713" y1="21.5203" x2="6.42138" y2="21.5203" gradientUnits="userSpaceOnUse">
<stop stop-color="#EAB9AD"/>
<stop offset="0.716" stop-color="#D4A093"/>
</linearGradient>
<radialGradient id="paint32_radial_176_238" cx="0" cy="0" r="1" gradientUnits="userSpaceOnUse" gradientTransform="translate(9.14088 19.532) rotate(180) scale(1.2539 0.494662)">
<stop stop-color="#F2C6BB"/>
<stop offset="1" stop-color="#F2C6BB" stop-opacity="0"/>
</radialGradient>
<radialGradient id="paint33_radial_176_238" cx="0" cy="0" r="1" gradientUnits="userSpaceOnUse" gradientTransform="translate(9.15213 20.4928) rotate(180) scale(1.14844 0.453052)">
<stop stop-color="#F2C6BB"/>
<stop offset="1" stop-color="#F2C6BB" stop-opacity="0"/>
</radialGradient>
<radialGradient id="paint34_radial_176_238" cx="0" cy="0" r="1" gradientUnits="userSpaceOnUse" gradientTransform="translate(9.18738 21.4543) rotate(180) scale(1.00781 0.397575)">
<stop stop-color="#F2C6BB"/>
<stop offset="1" stop-color="#F2C6BB" stop-opacity="0"/>
</radialGradient>
<radialGradient id="paint35_radial_176_238" cx="0" cy="0" r="1" gradientUnits="userSpaceOnUse" gradientTransform="translate(9.23988 22.4735) rotate(180) scale(1.125 0.443805)">
<stop stop-color="#F2C6BB"/>
<stop offset="1" stop-color="#F2C6BB" stop-opacity="0"/>
</radialGradient>
<linearGradient id="paint36_linear_176_238" x1="8.29713" y1="23.2108" x2="8.29713" y2="22.4023" gradientUnits="userSpaceOnUse">
<stop stop-color="#C38792"/>
<stop offset="1" stop-color="#C38792" stop-opacity="0"/>
</linearGradient>
<linearGradient id="paint37_linear_176_238" x1="16.8516" y1="21.2158" x2="13.9903" y2="21.2158" gradientUnits="userSpaceOnUse">
<stop stop-color="#FFD7C3"/>
<stop offset="0.807" stop-color="#D19890"/>
</linearGradient>
<radialGradient id="paint38_radial_176_238" cx="0" cy="0" r="1" gradientUnits="userSpaceOnUse" gradientTransform="translate(15.9373 19.532) scale(1.27734 0.50391)">
<stop stop-color="#FFD6C4"/>
<stop offset="1" stop-color="#FFD6C4" stop-opacity="0"/>
</radialGradient>
<radialGradient id="paint39_radial_176_238" cx="0" cy="0" r="1" gradientUnits="userSpaceOnUse" gradientTransform="translate(15.8908 20.4928) scale(1.21875 0.480795)">
<stop stop-color="#FFD6C4"/>
<stop offset="1" stop-color="#FFD6C4" stop-opacity="0"/>
</radialGradient>
<radialGradient id="paint40_radial_176_238" cx="0" cy="0" r="1" gradientUnits="userSpaceOnUse" gradientTransform="translate(15.8203 21.4543) scale(1.17187 0.4623)">
<stop stop-color="#FFD6C4"/>
<stop offset="1" stop-color="#FFD6C4" stop-opacity="0"/>
</radialGradient>
<radialGradient id="paint41_radial_176_238" cx="0" cy="0" r="1" gradientUnits="userSpaceOnUse" gradientTransform="translate(15.7146 22.4735) scale(1.07812 0.425317)">
<stop stop-color="#FFD6C4"/>
<stop offset="1" stop-color="#FFD6C4" stop-opacity="0"/>
</radialGradient>
<linearGradient id="paint42_linear_176_238" x1="8.0856" y1="16.9738" x2="16.2404" y2="16.9738" gradientUnits="userSpaceOnUse">
<stop stop-color="#564567"/>
<stop offset="1" stop-color="#564567"/>
</linearGradient>
<linearGradient id="paint43_linear_176_238" x1="12.3006" y1="16.2702" x2="12.3006" y2="17.1492" gradientUnits="userSpaceOnUse">
<stop stop-color="#DCD5E1"/>
<stop offset="1" stop-color="#B2ACB9"/>
</linearGradient>
<linearGradient id="paint44_linear_176_238" x1="-nan" y1="-nan" x2="-nan" y2="-nan" gradientUnits="userSpaceOnUse">
<stop stop-color="#B6736C"/>
<stop offset="1" stop-color="#B6736C" stop-opacity="0"/>
</linearGradient>
<linearGradient id="paint45_linear_176_238" x1="-nan" y1="-nan" x2="-nan" y2="-nan" gradientUnits="userSpaceOnUse">
<stop stop-color="#E4AF9D"/>
<stop offset="1" stop-color="#E4AF9D" stop-opacity="0"/>
</linearGradient>
<linearGradient id="paint46_linear_176_238" x1="-nan" y1="-nan" x2="-nan" y2="-nan" gradientUnits="userSpaceOnUse">
<stop stop-color="#B6736C"/>
<stop offset="1" stop-color="#B6736C" stop-opacity="0"/>
</linearGradient>
<linearGradient id="paint47_linear_176_238" x1="-nan" y1="-nan" x2="-nan" y2="-nan" gradientUnits="userSpaceOnUse">
<stop stop-color="#E4AF9D"/>
<stop offset="1" stop-color="#E4AF9D" stop-opacity="0"/>
</linearGradient>
<linearGradient id="paint48_linear_176_238" x1="-nan" y1="-nan" x2="-nan" y2="-nan" gradientUnits="userSpaceOnUse">
<stop stop-color="#B6736C"/>
<stop offset="1" stop-color="#B6736C" stop-opacity="0"/>
</linearGradient>
<linearGradient id="paint49_linear_176_238" x1="-nan" y1="-nan" x2="-nan" y2="-nan" gradientUnits="userSpaceOnUse">
<stop stop-color="#E4AF9D"/>
<stop offset="1" stop-color="#E4AF9D" stop-opacity="0"/>
</linearGradient>
<radialGradient id="paint50_radial_176_238" cx="0" cy="0" r="1" gradientUnits="userSpaceOnUse" gradientTransform="translate(15.5527 9.43616) rotate(69.657) scale(1.6154 1.91898)">
<stop offset="0.215" stop-color="#313131"/>
<stop offset="1" stop-color="#1A161E"/>
</radialGradient>
<radialGradient id="paint51_radial_176_238" cx="0" cy="0" r="1" gradientUnits="userSpaceOnUse" gradientTransform="translate(7.44583 9.80375) rotate(17.4472) scale(1.16075 3.58098)">
<stop stop-color="#564943"/>
<stop offset="0.746" stop-color="#1E191C"/>
</radialGradient>
<radialGradient id="paint52_radial_176_238" cx="0" cy="0" r="1" gradientUnits="userSpaceOnUse" gradientTransform="translate(14.0939 8.73049) rotate(180) scale(3.92088 6.936)">
<stop stop-color="#FFDCC0"/>
<stop offset="1" stop-color="#D6A195"/>
</radialGradient>
<linearGradient id="paint53_linear_176_238" x1="15.8564" y1="9.99424" x2="12.5917" y2="9.99424" gradientUnits="userSpaceOnUse">
<stop stop-color="#FFD6BA"/>
<stop offset="1" stop-color="#FFD6BA" stop-opacity="0"/>
</linearGradient>
<radialGradient id="paint54_radial_176_238" cx="0" cy="0" r="1" gradientUnits="userSpaceOnUse" gradientTransform="translate(12.4259 4.10224) rotate(90) scale(9.76898 8.08988)">
<stop offset="0.754" stop-color="#BC847A" stop-opacity="0"/>
<stop offset="1" stop-color="#A36F64"/>
</radialGradient>
<radialGradient id="paint55_radial_176_238" cx="0" cy="0" r="1" gradientUnits="userSpaceOnUse" gradientTransform="translate(13.8232 7.74499) rotate(-90) scale(0.861263 1.06581)">
<stop offset="0.325" stop-color="#F6B8A8"/>
<stop offset="1" stop-color="#F6B8A8" stop-opacity="0"/>
</radialGradient>
<radialGradient id="paint56_radial_176_238" cx="0" cy="0" r="1" gradientUnits="userSpaceOnUse" gradientTransform="translate(10.2629 7.78024) rotate(-89.7942) scale(0.820708 0.893128)">
<stop offset="0.378" stop-color="#D39991"/>
<stop offset="1" stop-color="#D39991" stop-opacity="0"/>
</radialGradient>
<radialGradient id="paint57_radial_176_238" cx="0" cy="0" r="1" gradientUnits="userSpaceOnUse" gradientTransform="translate(14.5627 9.47149) rotate(176.388) scale(6.38466 16.3096)">
<stop offset="0.836" stop-color="#E6AD97" stop-opacity="0"/>
<stop offset="1" stop-color="#E6AD97"/>
</radialGradient>
<radialGradient id="paint58_radial_176_238" cx="0" cy="0" r="1" gradientUnits="userSpaceOnUse" gradientTransform="translate(7.88766 5.48674) rotate(-46.6113) scale(3.38281 1.23835)">
<stop offset="0.428" stop-color="#9F6D5C"/>
<stop offset="1" stop-color="#9F6D5C" stop-opacity="0"/>
</radialGradient>
<radialGradient id="paint59_radial_176_238" cx="0" cy="0" r="1" gradientUnits="userSpaceOnUse" gradientTransform="translate(13.8082 4.99624) rotate(121.159) scale(2.52673 2.08602)">
<stop offset="0.078" stop-color="#F6C3B0"/>
<stop offset="1" stop-color="#F6C3B0" stop-opacity="0"/>
</radialGradient>
<linearGradient id="paint60_linear_176_238" x1="12.6164" y1="9.23674" x2="11.9879" y2="9.26224" gradientUnits="userSpaceOnUse">
<stop offset="0.36" stop-color="#FFDFC7"/>
<stop offset="1" stop-color="#FFDFC7" stop-opacity="0"/>
</linearGradient>
<radialGradient id="paint61_radial_176_238" cx="0" cy="0" r="1" gradientUnits="userSpaceOnUse" gradientTransform="translate(12.3374 9.75049) rotate(90) scale(0.183075 0.575385)">
<stop stop-color="#FFDDC7"/>
<stop offset="1" stop-color="#FFDDC7" stop-opacity="0"/>
</radialGradient>
<linearGradient id="paint62_linear_176_238" x1="11.9879" y1="10.091" x2="11.9879" y2="9.74224" gradientUnits="userSpaceOnUse">
<stop stop-color="#D89793"/>
<stop offset="1" stop-color="#D89793" stop-opacity="0"/>
</linearGradient>
<radialGradient id="paint63_radial_176_238" cx="0" cy="0" r="1" gradientUnits="userSpaceOnUse" gradientTransform="translate(12.4252 9.32374) rotate(155.369) scale(1.25506 2.01697)">
<stop offset="0.714" stop-color="#D3968C" stop-opacity="0"/>
<stop offset="1" stop-color="#D3968C"/>
</radialGradient>
<linearGradient id="paint64_linear_176_238" x1="11.9879" y1="7.96549" x2="11.9879" y2="8.47174" gradientUnits="userSpaceOnUse">
<stop stop-color="#E8BBA8"/>
<stop offset="1" stop-color="#E8BBA8" stop-opacity="0"/>
</linearGradient>
<linearGradient id="paint65_linear_176_238" x1="11.0863" y1="11.2692" x2="11.3256" y2="10.643" gradientUnits="userSpaceOnUse">
<stop stop-color="#ECBCAE"/>
<stop offset="1" stop-color="#ECBCAE" stop-opacity="0"/>
</linearGradient>
<radialGradient id="paint66_radial_176_238" cx="0" cy="0" r="1" gradientUnits="userSpaceOnUse" gradientTransform="translate(11.988 11.3847) rotate(-90) scale(0.540555 2.17477)">
<stop stop-color="#88014E"/>
<stop offset="1" stop-color="#86004D"/>
</radialGradient>
<linearGradient id="paint67_linear_176_238" x1="17.1268" y1="4.48325" x2="8.41781" y2="4.48325" gradientUnits="userSpaceOnUse">
<stop stop-color="#443D40"/>
<stop offset="1" stop-color="#272127"/>
</linearGradient>
<radialGradient id="paint68_radial_176_238" cx="0" cy="0" r="1" gradientUnits="userSpaceOnUse" gradientTransform="translate(8.06606 6.56075) rotate(-90) scale(2.62599 6.64082)">
<stop offset="0.536" stop-color="#3E3433"/>
<stop offset="1" stop-color="#3E3433" stop-opacity="0"/>
</radialGradient>
<radialGradient id="paint69_radial_176_238" cx="0" cy="0" r="1" gradientUnits="userSpaceOnUse" gradientTransform="translate(15.633 7.54387) rotate(-87.401) scale(1.88635 3.34223)">
<stop stop-color="#4F4D4D"/>
<stop offset="1" stop-color="#4F4D4D" stop-opacity="0"/>
</radialGradient>
<radialGradient id="paint70_radial_176_238" cx="0" cy="0" r="1" gradientUnits="userSpaceOnUse" gradientTransform="translate(15.0684 2.83619) rotate(-146.667) scale(2.11746 1.55432)">
<stop stop-color="#5E5A5B"/>
<stop offset="1" stop-color="#5E5A5B" stop-opacity="0"/>
</radialGradient>
<radialGradient id="paint71_radial_176_238" cx="0" cy="0" r="1" gradientUnits="userSpaceOnUse" gradientTransform="translate(11.3098 1.64225) rotate(58.465) scale(1.29793 3.00537)">
<stop offset="0.287" stop-color="#484646"/>
<stop offset="1" stop-color="#484646" stop-opacity="0"/>
</radialGradient>
<radialGradient id="paint72_radial_176_238" cx="0" cy="0" r="1" gradientUnits="userSpaceOnUse" gradientTransform="translate(12.1785 3.33651) rotate(180) scale(1.65084 0.61269)">
<stop stop-color="#423C3F"/>
<stop offset="1" stop-color="#423C3F" stop-opacity="0"/>
</radialGradient>
<radialGradient id="paint73_radial_176_238" cx="0" cy="0" r="1" gradientUnits="userSpaceOnUse" gradientTransform="translate(7.91475 6.29376) rotate(-57.7244) scale(4.51995 5.00765)">
<stop offset="0.093" stop-color="#0B0306"/>
<stop offset="0.311" stop-color="#1C0C20"/>
<stop offset="1" stop-color="#1C0C20" stop-opacity="0"/>
</radialGradient>
<radialGradient id="paint74_radial_176_238" cx="0" cy="0" r="1" gradientUnits="userSpaceOnUse" gradientTransform="translate(14.5485 3.91925) scale(2.29378 0.896827)">
<stop stop-color="#4E494B"/>
<stop offset="1" stop-color="#4E494B" stop-opacity="0"/>
</radialGradient>
<radialGradient id="paint75_radial_176_238" cx="0" cy="0" r="1" gradientUnits="userSpaceOnUse" gradientTransform="translate(13.9635 6.197) rotate(-43.6141) scale(2.77491 5.08015)">
<stop offset="0.857" stop-color="#545051" stop-opacity="0"/>
<stop offset="1" stop-color="#545051"/>
</radialGradient>
<radialGradient id="paint76_radial_176_238" cx="0" cy="0" r="1" gradientUnits="userSpaceOnUse" gradientTransform="translate(13.299 5.09) rotate(6.66666) scale(2.45273 1.02691)">
<stop stop-color="#200E25"/>
<stop offset="1" stop-color="#200E25" stop-opacity="0"/>
</radialGradient>
<radialGradient id="paint77_radial_176_238" cx="0" cy="0" r="1" gradientUnits="userSpaceOnUse" gradientTransform="translate(13.6245 8.0435) rotate(90) scale(0.60849 0.967867)">
<stop offset="0.802" stop-color="#7D574A"/>
<stop offset="1" stop-color="#664842"/>
</radialGradient>
<radialGradient id="paint78_radial_176_238" cx="0" cy="0" r="1" gradientUnits="userSpaceOnUse" gradientTransform="translate(13.4541 8.10639) rotate(-127.812) scale(0.283718 0.390608)">
<stop offset="0.766" stop-color="#FFE6E2" stop-opacity="0"/>
<stop offset="0.966" stop-color="#FFE6E2"/>
</radialGradient>
<linearGradient id="paint79_linear_176_238" x1="14.208" y1="8.08324" x2="13.9733" y2="8.22874" gradientUnits="userSpaceOnUse">
<stop stop-color="#B4948D"/>
<stop offset="1" stop-color="#B4948D" stop-opacity="0"/>
</linearGradient>
<radialGradient id="paint80_radial_176_238" cx="0" cy="0" r="1" gradientUnits="userSpaceOnUse" gradientTransform="translate(10.3515 8.0435) rotate(90) scale(0.60852 0.96792)">
<stop offset="0.802" stop-color="#7D574A"/>
<stop offset="1" stop-color="#664842"/>
</radialGradient>
<linearGradient id="paint81_linear_176_238" x1="10.9095" y1="8.08326" x2="10.674" y2="8.22876" gradientUnits="userSpaceOnUse">
<stop stop-color="#B4948D"/>
<stop offset="1" stop-color="#B4948D" stop-opacity="0"/>
</linearGradient>
<radialGradient id="paint82_radial_176_238" cx="0" cy="0" r="1" gradientUnits="userSpaceOnUse" gradientTransform="translate(10.2485 8.1845) rotate(-118.811) scale(0.370606 0.445494)">
<stop offset="0.766" stop-color="#FFE6E2" stop-opacity="0"/>
<stop offset="0.966" stop-color="#FFE6E2"/>
</radialGradient>
<linearGradient id="paint83_linear_176_238" x1="16.8157" y1="8.1035" x2="15.9104" y2="9.73625" gradientUnits="userSpaceOnUse">
<stop stop-color="#FFD6BD"/>
<stop offset="1" stop-color="#F0B8A6"/>
</linearGradient>
<radialGradient id="paint84_radial_176_238" cx="0" cy="0" r="1" gradientUnits="userSpaceOnUse" gradientTransform="translate(15.4514 8.05325) rotate(74.3475) scale(1.74725 1.66701)">
<stop offset="0.856" stop-color="#CE978E" stop-opacity="0"/>
<stop offset="1" stop-color="#CE978E"/>
</radialGradient>
<radialGradient id="paint85_radial_176_238" cx="0" cy="0" r="1" gradientUnits="userSpaceOnUse" gradientTransform="translate(15.7214 8.462) rotate(-53.9198) scale(1.00326 0.840932)">
<stop offset="0.664" stop-color="#F7B99C"/>
<stop offset="1" stop-color="#F7B99C" stop-opacity="0"/>
</radialGradient>
<radialGradient id="paint86_radial_176_238" cx="0" cy="0" r="1" gradientUnits="userSpaceOnUse" gradientTransform="translate(15.8069 8.59175) rotate(-69.263) scale(1.24337 1.66131)">
<stop offset="0.803" stop-color="#EBBB9D" stop-opacity="0"/>
<stop offset="1" stop-color="#EBBB9D"/>
</radialGradient>
<linearGradient id="paint87_linear_176_238" x1="7.60039" y1="8.63149" x2="8.69464" y2="8.53624" gradientUnits="userSpaceOnUse">
<stop stop-color="#D19787"/>
<stop offset="1" stop-color="#C9887D"/>
</linearGradient>
<radialGradient id="paint88_radial_176_238" cx="0" cy="0" r="1" gradientUnits="userSpaceOnUse" gradientTransform="translate(8.30083 8.53523) rotate(-173.034) scale(1.21887 1.3084)">
<stop offset="0.775" stop-color="#E8AF99" stop-opacity="0"/>
<stop offset="1" stop-color="#E8AF99"/>
</radialGradient>
<radialGradient id="paint89_radial_176_238" cx="0" cy="0" r="1" gradientUnits="userSpaceOnUse" gradientTransform="translate(8.30237 8.53774) rotate(170.26) scale(0.697412 0.855755)">
<stop stop-color="#C18472"/>
<stop offset="1" stop-color="#CA8B7A"/>
</radialGradient>
<linearGradient id="paint90_linear_176_238" x1="16.0972" y1="7.82526" x2="16.0972" y2="9.25326" gradientUnits="userSpaceOnUse">
<stop stop-color="#F9BB9E"/>
<stop offset="1" stop-color="#F6BBA0"/>
</linearGradient>
<linearGradient id="paint91_linear_176_238" x1="12.06" y1="7.18026" x2="12.06" y2="10.0168" gradientUnits="userSpaceOnUse">
<stop stop-color="#402857"/>
<stop offset="1" stop-color="#251732"/>
</linearGradient>
<radialGradient id="paint92_radial_176_238" cx="0" cy="0" r="1" gradientUnits="userSpaceOnUse" gradientTransform="translate(8.53129 8.00826) scale(0.679688 2.03906)">
<stop stop-color="#52396B"/>
<stop offset="1" stop-color="#52396B" stop-opacity="0"/>
</radialGradient>
</defs>
</svg>
